<svg xmlns="http://www.w3.org/2000/svg" viewBox="0 0 1200 700" preserveAspectRatio="xMidYMid slice">
  <defs>
    <linearGradient id="g" x1="0" y1="0" x2="1" y2="1">
      <stop offset="0" stop-color="#fff0e9"/>
      <stop offset="0.55" stop-color="#ffffff"/>
      <stop offset="1" stop-color="#ee7f45" stop-opacity=".30"/>
    </linearGradient>
    <radialGradient id="sun" cx="78%" cy="18%" r="42%"><stop offset="0" stop-color="#ee7f45" stop-opacity=".38"/><stop offset="1" stop-color="#ee7f45" stop-opacity="0"/></radialGradient>
  </defs>
  <rect width="1200" height="700" fill="url(#g)"/>
  <rect width="1200" height="700" fill="url(#sun)"/>
  <circle cx="1010" cy="120" r="80" fill="#ee7f45" opacity=".18"/>
  
  <g><rect x="0" y="241" width="109" height="219" rx="8" fill="#183b66" opacity="0.38"/><rect x="124" y="324" width="98" height="136" rx="8" fill="#183b66" opacity="0.47"/><rect x="236" y="161" width="51" height="299" rx="8" fill="#183b66" opacity="0.34"/><rect x="298" y="326" width="54" height="134" rx="8" fill="#183b66" opacity="0.42"/><rect x="362" y="242" width="100" height="218" rx="8" fill="#183b66" opacity="0.37"/><rect x="479" y="155" width="92" height="305" rx="8" fill="#183b66" opacity="0.31"/><rect x="581" y="319" width="92" height="141" rx="8" fill="#183b66" opacity="0.49"/><rect x="682" y="285" width="89" height="175" rx="8" fill="#183b66" opacity="0.50"/><rect x="779" y="158" width="57" height="302" rx="8" fill="#183b66" opacity="0.52"/><rect x="853" y="195" width="97" height="265" rx="8" fill="#183b66" opacity="0.48"/><rect x="967" y="190" width="59" height="270" rx="8" fill="#183b66" opacity="0.51"/><rect x="1041" y="156" width="63" height="304" rx="8" fill="#183b66" opacity="0.37"/><rect x="1112" y="220" width="67" height="240" rx="8" fill="#183b66" opacity="0.46"/><rect x="1189" y="256" width="89" height="204" rx="8" fill="#183b66" opacity="0.36"/></g>
  <g><rect x="12" y="263" width="8" height="10" rx="2" fill="white" opacity=".18"/><rect x="12" y="287" width="8" height="10" rx="2" fill="white" opacity=".18"/><rect x="12" y="311" width="8" height="10" rx="2" fill="white" opacity=".18"/><rect x="12" y="335" width="8" height="10" rx="2" fill="white" opacity=".18"/><rect x="12" y="359" width="8" height="10" rx="2" fill="white" opacity=".18"/><rect x="34" y="263" width="8" height="10" rx="2" fill="white" opacity=".18"/><rect x="34" y="287" width="8" height="10" rx="2" fill="white" opacity=".18"/><rect x="34" y="311" width="8" height="10" rx="2" fill="white" opacity=".18"/><rect x="34" y="335" width="8" height="10" rx="2" fill="white" opacity=".18"/><rect x="34" y="359" width="8" height="10" rx="2" fill="white" opacity=".18"/><rect x="56" y="263" width="8" height="10" rx="2" fill="white" opacity=".18"/><rect x="56" y="287" width="8" height="10" rx="2" fill="white" opacity=".18"/><rect x="56" y="311" width="8" height="10" rx="2" fill="white" opacity=".18"/><rect x="56" y="335" width="8" height="10" rx="2" fill="white" opacity=".18"/><rect x="56" y="359" width="8" height="10" rx="2" fill="white" opacity=".18"/><rect x="248" y="183" width="8" height="10" rx="2" fill="white" opacity=".18"/><rect x="248" y="207" width="8" height="10" rx="2" fill="white" opacity=".18"/><rect x="248" y="231" width="8" height="10" rx="2" fill="white" opacity=".18"/><rect x="248" y="255" width="8" height="10" rx="2" fill="white" opacity=".18"/><rect x="248" y="279" width="8" height="10" rx="2" fill="white" opacity=".18"/><rect x="270" y="183" width="8" height="10" rx="2" fill="white" opacity=".18"/><rect x="270" y="207" width="8" height="10" rx="2" fill="white" opacity=".18"/><rect x="270" y="231" width="8" height="10" rx="2" fill="white" opacity=".18"/><rect x="270" y="255" width="8" height="10" rx="2" fill="white" opacity=".18"/><rect x="270" y="279" width="8" height="10" rx="2" fill="white" opacity=".18"/><rect x="374" y="264" width="8" height="10" rx="2" fill="white" opacity=".18"/><rect x="374" y="288" width="8" height="10" rx="2" fill="white" opacity=".18"/><rect x="374" y="312" width="8" height="10" rx="2" fill="white" opacity=".18"/><rect x="374" y="336" width="8" height="10" rx="2" fill="white" opacity=".18"/><rect x="374" y="360" width="8" height="10" rx="2" fill="white" opacity=".18"/><rect x="396" y="264" width="8" height="10" rx="2" fill="white" opacity=".18"/><rect x="396" y="288" width="8" height="10" rx="2" fill="white" opacity=".18"/><rect x="396" y="312" width="8" height="10" rx="2" fill="white" opacity=".18"/><rect x="396" y="336" width="8" height="10" rx="2" fill="white" opacity=".18"/><rect x="396" y="360" width="8" height="10" rx="2" fill="white" opacity=".18"/><rect x="418" y="264" width="8" height="10" rx="2" fill="white" opacity=".18"/><rect x="418" y="288" width="8" height="10" rx="2" fill="white" opacity=".18"/><rect x="418" y="312" width="8" height="10" rx="2" fill="white" opacity=".18"/><rect x="418" y="336" width="8" height="10" rx="2" fill="white" opacity=".18"/><rect x="418" y="360" width="8" height="10" rx="2" fill="white" opacity=".18"/><rect x="593" y="341" width="8" height="10" rx="2" fill="white" opacity=".18"/><rect x="593" y="365" width="8" height="10" rx="2" fill="white" opacity=".18"/><rect x="593" y="389" width="8" height="10" rx="2" fill="white" opacity=".18"/><rect x="593" y="413" width="8" height="10" rx="2" fill="white" opacity=".18"/><rect x="593" y="437" width="8" height="10" rx="2" fill="white" opacity=".18"/><rect x="615" y="341" width="8" height="10" rx="2" fill="white" opacity=".18"/><rect x="615" y="365" width="8" height="10" rx="2" fill="white" opacity=".18"/><rect x="615" y="389" width="8" height="10" rx="2" fill="white" opacity=".18"/><rect x="615" y="413" width="8" height="10" rx="2" fill="white" opacity=".18"/><rect x="615" y="437" width="8" height="10" rx="2" fill="white" opacity=".18"/><rect x="637" y="341" width="8" height="10" rx="2" fill="white" opacity=".18"/><rect x="637" y="365" width="8" height="10" rx="2" fill="white" opacity=".18"/><rect x="637" y="389" width="8" height="10" rx="2" fill="white" opacity=".18"/><rect x="637" y="413" width="8" height="10" rx="2" fill="white" opacity=".18"/><rect x="637" y="437" width="8" height="10" rx="2" fill="white" opacity=".18"/><rect x="791" y="180" width="8" height="10" rx="2" fill="white" opacity=".18"/><rect x="791" y="204" width="8" height="10" rx="2" fill="white" opacity=".18"/><rect x="791" y="228" width="8" height="10" rx="2" fill="white" opacity=".18"/><rect x="791" y="252" width="8" height="10" rx="2" fill="white" opacity=".18"/><rect x="791" y="276" width="8" height="10" rx="2" fill="white" opacity=".18"/><rect x="813" y="180" width="8" height="10" rx="2" fill="white" opacity=".18"/><rect x="813" y="204" width="8" height="10" rx="2" fill="white" opacity=".18"/><rect x="813" y="228" width="8" height="10" rx="2" fill="white" opacity=".18"/><rect x="813" y="252" width="8" height="10" rx="2" fill="white" opacity=".18"/><rect x="813" y="276" width="8" height="10" rx="2" fill="white" opacity=".18"/><rect x="979" y="212" width="8" height="10" rx="2" fill="white" opacity=".18"/><rect x="979" y="236" width="8" height="10" rx="2" fill="white" opacity=".18"/><rect x="979" y="260" width="8" height="10" rx="2" fill="white" opacity=".18"/><rect x="979" y="284" width="8" height="10" rx="2" fill="white" opacity=".18"/><rect x="979" y="308" width="8" height="10" rx="2" fill="white" opacity=".18"/><rect x="1001" y="212" width="8" height="10" rx="2" fill="white" opacity=".18"/><rect x="1001" y="236" width="8" height="10" rx="2" fill="white" opacity=".18"/><rect x="1001" y="260" width="8" height="10" rx="2" fill="white" opacity=".18"/><rect x="1001" y="284" width="8" height="10" rx="2" fill="white" opacity=".18"/><rect x="1001" y="308" width="8" height="10" rx="2" fill="white" opacity=".18"/><rect x="1124" y="242" width="8" height="10" rx="2" fill="white" opacity=".18"/><rect x="1124" y="266" width="8" height="10" rx="2" fill="white" opacity=".18"/><rect x="1124" y="290" width="8" height="10" rx="2" fill="white" opacity=".18"/><rect x="1124" y="314" width="8" height="10" rx="2" fill="white" opacity=".18"/><rect x="1124" y="338" width="8" height="10" rx="2" fill="white" opacity=".18"/><rect x="1146" y="242" width="8" height="10" rx="2" fill="white" opacity=".18"/><rect x="1146" y="266" width="8" height="10" rx="2" fill="white" opacity=".18"/><rect x="1146" y="290" width="8" height="10" rx="2" fill="white" opacity=".18"/><rect x="1146" y="314" width="8" height="10" rx="2" fill="white" opacity=".18"/><rect x="1146" y="338" width="8" height="10" rx="2" fill="white" opacity=".18"/><rect x="1168" y="242" width="8" height="10" rx="2" fill="white" opacity=".18"/><rect x="1168" y="266" width="8" height="10" rx="2" fill="white" opacity=".18"/><rect x="1168" y="290" width="8" height="10" rx="2" fill="white" opacity=".18"/><rect x="1168" y="314" width="8" height="10" rx="2" fill="white" opacity=".18"/><rect x="1168" y="338" width="8" height="10" rx="2" fill="white" opacity=".18"/></g>
  <rect x="0" y="452" width="1200" height="248" fill="#183b66" opacity=".06"/>
  <text x="60" y="625" font-family="Inter, Arial, sans-serif" font-size="34" font-weight="700" fill="#183b66" opacity=".20">Atlanta</text>
</svg>