<svg xmlns="http://www.w3.org/2000/svg" viewBox="0 0 1200 700" preserveAspectRatio="xMidYMid slice">
  <defs>
    <linearGradient id="g" x1="0" y1="0" x2="1" y2="1">
      <stop offset="0" stop-color="#eef4fb"/>
      <stop offset="0.55" stop-color="#ffffff"/>
      <stop offset="1" stop-color="#173d63" stop-opacity=".30"/>
    </linearGradient>
    <radialGradient id="sun" cx="78%" cy="18%" r="42%"><stop offset="0" stop-color="#173d63" stop-opacity=".38"/><stop offset="1" stop-color="#173d63" stop-opacity="0"/></radialGradient>
  </defs>
  <rect width="1200" height="700" fill="url(#g)"/>
  <rect width="1200" height="700" fill="url(#sun)"/>
  <circle cx="1010" cy="120" r="80" fill="#173d63" opacity=".18"/>
  
  <g><rect x="0" y="144" width="76" height="316" rx="8" fill="#b64a4a" opacity="0.35"/><rect x="93" y="288" width="84" height="172" rx="8" fill="#b64a4a" opacity="0.43"/><rect x="192" y="192" width="94" height="268" rx="8" fill="#b64a4a" opacity="0.33"/><rect x="301" y="228" width="51" height="232" rx="8" fill="#b64a4a" opacity="0.49"/><rect x="369" y="280" width="61" height="180" rx="8" fill="#b64a4a" opacity="0.30"/><rect x="447" y="198" width="94" height="262" rx="8" fill="#b64a4a" opacity="0.42"/><rect x="550" y="249" width="105" height="211" rx="8" fill="#b64a4a" opacity="0.53"/><rect x="673" y="202" width="73" height="258" rx="8" fill="#b64a4a" opacity="0.52"/><rect x="760" y="183" width="85" height="277" rx="8" fill="#b64a4a" opacity="0.43"/><rect x="860" y="263" width="78" height="197" rx="8" fill="#b64a4a" opacity="0.33"/><rect x="956" y="143" width="87" height="317" rx="8" fill="#b64a4a" opacity="0.41"/><rect x="1054" y="216" width="67" height="244" rx="8" fill="#b64a4a" opacity="0.50"/><rect x="1137" y="182" width="96" height="278" rx="8" fill="#b64a4a" opacity="0.41"/></g>
  <g><rect x="12" y="166" width="8" height="10" rx="2" fill="white" opacity=".18"/><rect x="12" y="190" width="8" height="10" rx="2" fill="white" opacity=".18"/><rect x="12" y="214" width="8" height="10" rx="2" fill="white" opacity=".18"/><rect x="12" y="238" width="8" height="10" rx="2" fill="white" opacity=".18"/><rect x="12" y="262" width="8" height="10" rx="2" fill="white" opacity=".18"/><rect x="34" y="166" width="8" height="10" rx="2" fill="white" opacity=".18"/><rect x="34" y="190" width="8" height="10" rx="2" fill="white" opacity=".18"/><rect x="34" y="214" width="8" height="10" rx="2" fill="white" opacity=".18"/><rect x="34" y="238" width="8" height="10" rx="2" fill="white" opacity=".18"/><rect x="34" y="262" width="8" height="10" rx="2" fill="white" opacity=".18"/><rect x="56" y="166" width="8" height="10" rx="2" fill="white" opacity=".18"/><rect x="56" y="190" width="8" height="10" rx="2" fill="white" opacity=".18"/><rect x="56" y="214" width="8" height="10" rx="2" fill="white" opacity=".18"/><rect x="56" y="238" width="8" height="10" rx="2" fill="white" opacity=".18"/><rect x="56" y="262" width="8" height="10" rx="2" fill="white" opacity=".18"/><rect x="204" y="214" width="8" height="10" rx="2" fill="white" opacity=".18"/><rect x="204" y="238" width="8" height="10" rx="2" fill="white" opacity=".18"/><rect x="204" y="262" width="8" height="10" rx="2" fill="white" opacity=".18"/><rect x="204" y="286" width="8" height="10" rx="2" fill="white" opacity=".18"/><rect x="204" y="310" width="8" height="10" rx="2" fill="white" opacity=".18"/><rect x="226" y="214" width="8" height="10" rx="2" fill="white" opacity=".18"/><rect x="226" y="238" width="8" height="10" rx="2" fill="white" opacity=".18"/><rect x="226" y="262" width="8" height="10" rx="2" fill="white" opacity=".18"/><rect x="226" y="286" width="8" height="10" rx="2" fill="white" opacity=".18"/><rect x="226" y="310" width="8" height="10" rx="2" fill="white" opacity=".18"/><rect x="248" y="214" width="8" height="10" rx="2" fill="white" opacity=".18"/><rect x="248" y="238" width="8" height="10" rx="2" fill="white" opacity=".18"/><rect x="248" y="262" width="8" height="10" rx="2" fill="white" opacity=".18"/><rect x="248" y="286" width="8" height="10" rx="2" fill="white" opacity=".18"/><rect x="248" y="310" width="8" height="10" rx="2" fill="white" opacity=".18"/><rect x="381" y="302" width="8" height="10" rx="2" fill="white" opacity=".18"/><rect x="381" y="326" width="8" height="10" rx="2" fill="white" opacity=".18"/><rect x="381" y="350" width="8" height="10" rx="2" fill="white" opacity=".18"/><rect x="381" y="374" width="8" height="10" rx="2" fill="white" opacity=".18"/><rect x="381" y="398" width="8" height="10" rx="2" fill="white" opacity=".18"/><rect x="403" y="302" width="8" height="10" rx="2" fill="white" opacity=".18"/><rect x="403" y="326" width="8" height="10" rx="2" fill="white" opacity=".18"/><rect x="403" y="350" width="8" height="10" rx="2" fill="white" opacity=".18"/><rect x="403" y="374" width="8" height="10" rx="2" fill="white" opacity=".18"/><rect x="403" y="398" width="8" height="10" rx="2" fill="white" opacity=".18"/><rect x="562" y="271" width="8" height="10" rx="2" fill="white" opacity=".18"/><rect x="562" y="295" width="8" height="10" rx="2" fill="white" opacity=".18"/><rect x="562" y="319" width="8" height="10" rx="2" fill="white" opacity=".18"/><rect x="562" y="343" width="8" height="10" rx="2" fill="white" opacity=".18"/><rect x="562" y="367" width="8" height="10" rx="2" fill="white" opacity=".18"/><rect x="584" y="271" width="8" height="10" rx="2" fill="white" opacity=".18"/><rect x="584" y="295" width="8" height="10" rx="2" fill="white" opacity=".18"/><rect x="584" y="319" width="8" height="10" rx="2" fill="white" opacity=".18"/><rect x="584" y="343" width="8" height="10" rx="2" fill="white" opacity=".18"/><rect x="584" y="367" width="8" height="10" rx="2" fill="white" opacity=".18"/><rect x="606" y="271" width="8" height="10" rx="2" fill="white" opacity=".18"/><rect x="606" y="295" width="8" height="10" rx="2" fill="white" opacity=".18"/><rect x="606" y="319" width="8" height="10" rx="2" fill="white" opacity=".18"/><rect x="606" y="343" width="8" height="10" rx="2" fill="white" opacity=".18"/><rect x="606" y="367" width="8" height="10" rx="2" fill="white" opacity=".18"/><rect x="772" y="205" width="8" height="10" rx="2" fill="white" opacity=".18"/><rect x="772" y="229" width="8" height="10" rx="2" fill="white" opacity=".18"/><rect x="772" y="253" width="8" height="10" rx="2" fill="white" opacity=".18"/><rect x="772" y="277" width="8" height="10" rx="2" fill="white" opacity=".18"/><rect x="772" y="301" width="8" height="10" rx="2" fill="white" opacity=".18"/><rect x="794" y="205" width="8" height="10" rx="2" fill="white" opacity=".18"/><rect x="794" y="229" width="8" height="10" rx="2" fill="white" opacity=".18"/><rect x="794" y="253" width="8" height="10" rx="2" fill="white" opacity=".18"/><rect x="794" y="277" width="8" height="10" rx="2" fill="white" opacity=".18"/><rect x="794" y="301" width="8" height="10" rx="2" fill="white" opacity=".18"/><rect x="816" y="205" width="8" height="10" rx="2" fill="white" opacity=".18"/><rect x="816" y="229" width="8" height="10" rx="2" fill="white" opacity=".18"/><rect x="816" y="253" width="8" height="10" rx="2" fill="white" opacity=".18"/><rect x="816" y="277" width="8" height="10" rx="2" fill="white" opacity=".18"/><rect x="816" y="301" width="8" height="10" rx="2" fill="white" opacity=".18"/><rect x="968" y="165" width="8" height="10" rx="2" fill="white" opacity=".18"/><rect x="968" y="189" width="8" height="10" rx="2" fill="white" opacity=".18"/><rect x="968" y="213" width="8" height="10" rx="2" fill="white" opacity=".18"/><rect x="968" y="237" width="8" height="10" rx="2" fill="white" opacity=".18"/><rect x="968" y="261" width="8" height="10" rx="2" fill="white" opacity=".18"/><rect x="990" y="165" width="8" height="10" rx="2" fill="white" opacity=".18"/><rect x="990" y="189" width="8" height="10" rx="2" fill="white" opacity=".18"/><rect x="990" y="213" width="8" height="10" rx="2" fill="white" opacity=".18"/><rect x="990" y="237" width="8" height="10" rx="2" fill="white" opacity=".18"/><rect x="990" y="261" width="8" height="10" rx="2" fill="white" opacity=".18"/><rect x="1012" y="165" width="8" height="10" rx="2" fill="white" opacity=".18"/><rect x="1012" y="189" width="8" height="10" rx="2" fill="white" opacity=".18"/><rect x="1012" y="213" width="8" height="10" rx="2" fill="white" opacity=".18"/><rect x="1012" y="237" width="8" height="10" rx="2" fill="white" opacity=".18"/><rect x="1012" y="261" width="8" height="10" rx="2" fill="white" opacity=".18"/><rect x="1149" y="204" width="8" height="10" rx="2" fill="white" opacity=".18"/><rect x="1149" y="228" width="8" height="10" rx="2" fill="white" opacity=".18"/><rect x="1149" y="252" width="8" height="10" rx="2" fill="white" opacity=".18"/><rect x="1149" y="276" width="8" height="10" rx="2" fill="white" opacity=".18"/><rect x="1149" y="300" width="8" height="10" rx="2" fill="white" opacity=".18"/><rect x="1171" y="204" width="8" height="10" rx="2" fill="white" opacity=".18"/><rect x="1171" y="228" width="8" height="10" rx="2" fill="white" opacity=".18"/><rect x="1171" y="252" width="8" height="10" rx="2" fill="white" opacity=".18"/><rect x="1171" y="276" width="8" height="10" rx="2" fill="white" opacity=".18"/><rect x="1171" y="300" width="8" height="10" rx="2" fill="white" opacity=".18"/><rect x="1193" y="204" width="8" height="10" rx="2" fill="white" opacity=".18"/><rect x="1193" y="228" width="8" height="10" rx="2" fill="white" opacity=".18"/><rect x="1193" y="252" width="8" height="10" rx="2" fill="white" opacity=".18"/><rect x="1193" y="276" width="8" height="10" rx="2" fill="white" opacity=".18"/><rect x="1193" y="300" width="8" height="10" rx="2" fill="white" opacity=".18"/></g>
  <rect x="0" y="452" width="1200" height="248" fill="#b64a4a" opacity=".06"/>
  <text x="60" y="625" font-family="Inter, Arial, sans-serif" font-size="34" font-weight="700" fill="#b64a4a" opacity=".20">Boston</text>
</svg>