<svg xmlns="http://www.w3.org/2000/svg" viewBox="0 0 1200 700" preserveAspectRatio="xMidYMid slice">
  <defs>
    <linearGradient id="g" x1="0" y1="0" x2="1" y2="1">
      <stop offset="0" stop-color="#eef5fb"/>
      <stop offset="0.55" stop-color="#ffffff"/>
      <stop offset="1" stop-color="#1f5e8c" stop-opacity=".30"/>
    </linearGradient>
    <radialGradient id="sun" cx="78%" cy="18%" r="42%"><stop offset="0" stop-color="#1f5e8c" stop-opacity=".38"/><stop offset="1" stop-color="#1f5e8c" stop-opacity="0"/></radialGradient>
  </defs>
  <rect width="1200" height="700" fill="url(#g)"/>
  <rect width="1200" height="700" fill="url(#sun)"/>
  <circle cx="1010" cy="120" r="80" fill="#1f5e8c" opacity=".18"/>
  
  <g><rect x="0" y="240" width="80" height="220" rx="8" fill="#a8c6d9" opacity="0.35"/><rect x="92" y="313" width="65" height="147" rx="8" fill="#a8c6d9" opacity="0.43"/><rect x="176" y="195" width="60" height="265" rx="8" fill="#a8c6d9" opacity="0.54"/><rect x="252" y="203" width="85" height="257" rx="8" fill="#a8c6d9" opacity="0.52"/><rect x="355" y="192" width="65" height="268" rx="8" fill="#a8c6d9" opacity="0.32"/><rect x="437" y="251" width="78" height="209" rx="8" fill="#a8c6d9" opacity="0.50"/><rect x="535" y="164" width="81" height="296" rx="8" fill="#a8c6d9" opacity="0.52"/><rect x="630" y="315" width="65" height="145" rx="8" fill="#a8c6d9" opacity="0.32"/><rect x="712" y="324" width="81" height="136" rx="8" fill="#a8c6d9" opacity="0.29"/><rect x="805" y="243" width="57" height="217" rx="8" fill="#a8c6d9" opacity="0.29"/><rect x="881" y="225" width="102" height="235" rx="8" fill="#a8c6d9" opacity="0.36"/><rect x="994" y="160" width="101" height="300" rx="8" fill="#a8c6d9" opacity="0.37"/><rect x="1106" y="235" width="74" height="225" rx="8" fill="#a8c6d9" opacity="0.48"/><rect x="1192" y="208" width="61" height="252" rx="8" fill="#a8c6d9" opacity="0.34"/></g>
  <g><rect x="12" y="262" width="8" height="10" rx="2" fill="white" opacity=".18"/><rect x="12" y="286" width="8" height="10" rx="2" fill="white" opacity=".18"/><rect x="12" y="310" width="8" height="10" rx="2" fill="white" opacity=".18"/><rect x="12" y="334" width="8" height="10" rx="2" fill="white" opacity=".18"/><rect x="12" y="358" width="8" height="10" rx="2" fill="white" opacity=".18"/><rect x="34" y="262" width="8" height="10" rx="2" fill="white" opacity=".18"/><rect x="34" y="286" width="8" height="10" rx="2" fill="white" opacity=".18"/><rect x="34" y="310" width="8" height="10" rx="2" fill="white" opacity=".18"/><rect x="34" y="334" width="8" height="10" rx="2" fill="white" opacity=".18"/><rect x="34" y="358" width="8" height="10" rx="2" fill="white" opacity=".18"/><rect x="56" y="262" width="8" height="10" rx="2" fill="white" opacity=".18"/><rect x="56" y="286" width="8" height="10" rx="2" fill="white" opacity=".18"/><rect x="56" y="310" width="8" height="10" rx="2" fill="white" opacity=".18"/><rect x="56" y="334" width="8" height="10" rx="2" fill="white" opacity=".18"/><rect x="56" y="358" width="8" height="10" rx="2" fill="white" opacity=".18"/><rect x="188" y="217" width="8" height="10" rx="2" fill="white" opacity=".18"/><rect x="188" y="241" width="8" height="10" rx="2" fill="white" opacity=".18"/><rect x="188" y="265" width="8" height="10" rx="2" fill="white" opacity=".18"/><rect x="188" y="289" width="8" height="10" rx="2" fill="white" opacity=".18"/><rect x="188" y="313" width="8" height="10" rx="2" fill="white" opacity=".18"/><rect x="210" y="217" width="8" height="10" rx="2" fill="white" opacity=".18"/><rect x="210" y="241" width="8" height="10" rx="2" fill="white" opacity=".18"/><rect x="210" y="265" width="8" height="10" rx="2" fill="white" opacity=".18"/><rect x="210" y="289" width="8" height="10" rx="2" fill="white" opacity=".18"/><rect x="210" y="313" width="8" height="10" rx="2" fill="white" opacity=".18"/><rect x="367" y="214" width="8" height="10" rx="2" fill="white" opacity=".18"/><rect x="367" y="238" width="8" height="10" rx="2" fill="white" opacity=".18"/><rect x="367" y="262" width="8" height="10" rx="2" fill="white" opacity=".18"/><rect x="367" y="286" width="8" height="10" rx="2" fill="white" opacity=".18"/><rect x="367" y="310" width="8" height="10" rx="2" fill="white" opacity=".18"/><rect x="389" y="214" width="8" height="10" rx="2" fill="white" opacity=".18"/><rect x="389" y="238" width="8" height="10" rx="2" fill="white" opacity=".18"/><rect x="389" y="262" width="8" height="10" rx="2" fill="white" opacity=".18"/><rect x="389" y="286" width="8" height="10" rx="2" fill="white" opacity=".18"/><rect x="389" y="310" width="8" height="10" rx="2" fill="white" opacity=".18"/><rect x="547" y="186" width="8" height="10" rx="2" fill="white" opacity=".18"/><rect x="547" y="210" width="8" height="10" rx="2" fill="white" opacity=".18"/><rect x="547" y="234" width="8" height="10" rx="2" fill="white" opacity=".18"/><rect x="547" y="258" width="8" height="10" rx="2" fill="white" opacity=".18"/><rect x="547" y="282" width="8" height="10" rx="2" fill="white" opacity=".18"/><rect x="569" y="186" width="8" height="10" rx="2" fill="white" opacity=".18"/><rect x="569" y="210" width="8" height="10" rx="2" fill="white" opacity=".18"/><rect x="569" y="234" width="8" height="10" rx="2" fill="white" opacity=".18"/><rect x="569" y="258" width="8" height="10" rx="2" fill="white" opacity=".18"/><rect x="569" y="282" width="8" height="10" rx="2" fill="white" opacity=".18"/><rect x="591" y="186" width="8" height="10" rx="2" fill="white" opacity=".18"/><rect x="591" y="210" width="8" height="10" rx="2" fill="white" opacity=".18"/><rect x="591" y="234" width="8" height="10" rx="2" fill="white" opacity=".18"/><rect x="591" y="258" width="8" height="10" rx="2" fill="white" opacity=".18"/><rect x="591" y="282" width="8" height="10" rx="2" fill="white" opacity=".18"/><rect x="724" y="346" width="8" height="10" rx="2" fill="white" opacity=".18"/><rect x="724" y="370" width="8" height="10" rx="2" fill="white" opacity=".18"/><rect x="724" y="394" width="8" height="10" rx="2" fill="white" opacity=".18"/><rect x="724" y="418" width="8" height="10" rx="2" fill="white" opacity=".18"/><rect x="746" y="346" width="8" height="10" rx="2" fill="white" opacity=".18"/><rect x="746" y="370" width="8" height="10" rx="2" fill="white" opacity=".18"/><rect x="746" y="394" width="8" height="10" rx="2" fill="white" opacity=".18"/><rect x="746" y="418" width="8" height="10" rx="2" fill="white" opacity=".18"/><rect x="768" y="346" width="8" height="10" rx="2" fill="white" opacity=".18"/><rect x="768" y="370" width="8" height="10" rx="2" fill="white" opacity=".18"/><rect x="768" y="394" width="8" height="10" rx="2" fill="white" opacity=".18"/><rect x="768" y="418" width="8" height="10" rx="2" fill="white" opacity=".18"/><rect x="893" y="247" width="8" height="10" rx="2" fill="white" opacity=".18"/><rect x="893" y="271" width="8" height="10" rx="2" fill="white" opacity=".18"/><rect x="893" y="295" width="8" height="10" rx="2" fill="white" opacity=".18"/><rect x="893" y="319" width="8" height="10" rx="2" fill="white" opacity=".18"/><rect x="893" y="343" width="8" height="10" rx="2" fill="white" opacity=".18"/><rect x="915" y="247" width="8" height="10" rx="2" fill="white" opacity=".18"/><rect x="915" y="271" width="8" height="10" rx="2" fill="white" opacity=".18"/><rect x="915" y="295" width="8" height="10" rx="2" fill="white" opacity=".18"/><rect x="915" y="319" width="8" height="10" rx="2" fill="white" opacity=".18"/><rect x="915" y="343" width="8" height="10" rx="2" fill="white" opacity=".18"/><rect x="937" y="247" width="8" height="10" rx="2" fill="white" opacity=".18"/><rect x="937" y="271" width="8" height="10" rx="2" fill="white" opacity=".18"/><rect x="937" y="295" width="8" height="10" rx="2" fill="white" opacity=".18"/><rect x="937" y="319" width="8" height="10" rx="2" fill="white" opacity=".18"/><rect x="937" y="343" width="8" height="10" rx="2" fill="white" opacity=".18"/><rect x="1118" y="257" width="8" height="10" rx="2" fill="white" opacity=".18"/><rect x="1118" y="281" width="8" height="10" rx="2" fill="white" opacity=".18"/><rect x="1118" y="305" width="8" height="10" rx="2" fill="white" opacity=".18"/><rect x="1118" y="329" width="8" height="10" rx="2" fill="white" opacity=".18"/><rect x="1118" y="353" width="8" height="10" rx="2" fill="white" opacity=".18"/><rect x="1140" y="257" width="8" height="10" rx="2" fill="white" opacity=".18"/><rect x="1140" y="281" width="8" height="10" rx="2" fill="white" opacity=".18"/><rect x="1140" y="305" width="8" height="10" rx="2" fill="white" opacity=".18"/><rect x="1140" y="329" width="8" height="10" rx="2" fill="white" opacity=".18"/><rect x="1140" y="353" width="8" height="10" rx="2" fill="white" opacity=".18"/><rect x="1162" y="257" width="8" height="10" rx="2" fill="white" opacity=".18"/><rect x="1162" y="281" width="8" height="10" rx="2" fill="white" opacity=".18"/><rect x="1162" y="305" width="8" height="10" rx="2" fill="white" opacity=".18"/><rect x="1162" y="329" width="8" height="10" rx="2" fill="white" opacity=".18"/><rect x="1162" y="353" width="8" height="10" rx="2" fill="white" opacity=".18"/></g>
  <rect x="0" y="452" width="1200" height="248" fill="#a8c6d9" opacity=".06"/>
  <text x="60" y="625" font-family="Inter, Arial, sans-serif" font-size="34" font-weight="700" fill="#a8c6d9" opacity=".20">Chicago</text>
</svg>