<svg xmlns="http://www.w3.org/2000/svg" viewBox="0 0 1200 700" preserveAspectRatio="xMidYMid slice">
  <defs>
    <linearGradient id="g" x1="0" y1="0" x2="1" y2="1">
      <stop offset="0" stop-color="#eef4fb"/>
      <stop offset="0.55" stop-color="#ffffff"/>
      <stop offset="1" stop-color="#204b78" stop-opacity=".30"/>
    </linearGradient>
    <radialGradient id="sun" cx="78%" cy="18%" r="42%"><stop offset="0" stop-color="#204b78" stop-opacity=".38"/><stop offset="1" stop-color="#204b78" stop-opacity="0"/></radialGradient>
  </defs>
  <rect width="1200" height="700" fill="url(#g)"/>
  <rect width="1200" height="700" fill="url(#sun)"/>
  <circle cx="1010" cy="120" r="80" fill="#204b78" opacity=".18"/>
  <path d="M0 500 C220 460 350 530 600 495 C820 465 980 510 1200 480 L1200 700 L0 700 Z" fill="#204b78" opacity=".22"/><path d="M140 445 C260 380 380 380 500 445" fill="none" stroke="#d35e35" stroke-width="12" opacity=".62"/>
  <g><rect x="0" y="330" width="105" height="130" rx="8" fill="#d35e35" opacity="0.33"/><rect x="123" y="210" width="70" height="250" rx="8" fill="#d35e35" opacity="0.49"/><rect x="205" y="210" width="84" height="250" rx="8" fill="#d35e35" opacity="0.49"/><rect x="302" y="310" width="58" height="150" rx="8" fill="#d35e35" opacity="0.39"/><rect x="369" y="204" width="55" height="256" rx="8" fill="#d35e35" opacity="0.51"/><rect x="439" y="260" width="92" height="200" rx="8" fill="#d35e35" opacity="0.43"/><rect x="551" y="157" width="100" height="303" rx="8" fill="#d35e35" opacity="0.35"/><rect x="669" y="153" width="85" height="307" rx="8" fill="#d35e35" opacity="0.39"/><rect x="770" y="170" width="59" height="290" rx="8" fill="#d35e35" opacity="0.43"/><rect x="849" y="339" width="68" height="121" rx="8" fill="#d35e35" opacity="0.48"/><rect x="934" y="150" width="87" height="310" rx="8" fill="#d35e35" opacity="0.39"/><rect x="1034" y="158" width="68" height="302" rx="8" fill="#d35e35" opacity="0.43"/><rect x="1116" y="249" width="77" height="211" rx="8" fill="#d35e35" opacity="0.55"/></g>
  <g><rect x="12" y="352" width="8" height="10" rx="2" fill="white" opacity=".18"/><rect x="12" y="376" width="8" height="10" rx="2" fill="white" opacity=".18"/><rect x="12" y="400" width="8" height="10" rx="2" fill="white" opacity=".18"/><rect x="12" y="424" width="8" height="10" rx="2" fill="white" opacity=".18"/><rect x="34" y="352" width="8" height="10" rx="2" fill="white" opacity=".18"/><rect x="34" y="376" width="8" height="10" rx="2" fill="white" opacity=".18"/><rect x="34" y="400" width="8" height="10" rx="2" fill="white" opacity=".18"/><rect x="34" y="424" width="8" height="10" rx="2" fill="white" opacity=".18"/><rect x="56" y="352" width="8" height="10" rx="2" fill="white" opacity=".18"/><rect x="56" y="376" width="8" height="10" rx="2" fill="white" opacity=".18"/><rect x="56" y="400" width="8" height="10" rx="2" fill="white" opacity=".18"/><rect x="56" y="424" width="8" height="10" rx="2" fill="white" opacity=".18"/><rect x="217" y="232" width="8" height="10" rx="2" fill="white" opacity=".18"/><rect x="217" y="256" width="8" height="10" rx="2" fill="white" opacity=".18"/><rect x="217" y="280" width="8" height="10" rx="2" fill="white" opacity=".18"/><rect x="217" y="304" width="8" height="10" rx="2" fill="white" opacity=".18"/><rect x="217" y="328" width="8" height="10" rx="2" fill="white" opacity=".18"/><rect x="239" y="232" width="8" height="10" rx="2" fill="white" opacity=".18"/><rect x="239" y="256" width="8" height="10" rx="2" fill="white" opacity=".18"/><rect x="239" y="280" width="8" height="10" rx="2" fill="white" opacity=".18"/><rect x="239" y="304" width="8" height="10" rx="2" fill="white" opacity=".18"/><rect x="239" y="328" width="8" height="10" rx="2" fill="white" opacity=".18"/><rect x="261" y="232" width="8" height="10" rx="2" fill="white" opacity=".18"/><rect x="261" y="256" width="8" height="10" rx="2" fill="white" opacity=".18"/><rect x="261" y="280" width="8" height="10" rx="2" fill="white" opacity=".18"/><rect x="261" y="304" width="8" height="10" rx="2" fill="white" opacity=".18"/><rect x="261" y="328" width="8" height="10" rx="2" fill="white" opacity=".18"/><rect x="381" y="226" width="8" height="10" rx="2" fill="white" opacity=".18"/><rect x="381" y="250" width="8" height="10" rx="2" fill="white" opacity=".18"/><rect x="381" y="274" width="8" height="10" rx="2" fill="white" opacity=".18"/><rect x="381" y="298" width="8" height="10" rx="2" fill="white" opacity=".18"/><rect x="381" y="322" width="8" height="10" rx="2" fill="white" opacity=".18"/><rect x="403" y="226" width="8" height="10" rx="2" fill="white" opacity=".18"/><rect x="403" y="250" width="8" height="10" rx="2" fill="white" opacity=".18"/><rect x="403" y="274" width="8" height="10" rx="2" fill="white" opacity=".18"/><rect x="403" y="298" width="8" height="10" rx="2" fill="white" opacity=".18"/><rect x="403" y="322" width="8" height="10" rx="2" fill="white" opacity=".18"/><rect x="563" y="179" width="8" height="10" rx="2" fill="white" opacity=".18"/><rect x="563" y="203" width="8" height="10" rx="2" fill="white" opacity=".18"/><rect x="563" y="227" width="8" height="10" rx="2" fill="white" opacity=".18"/><rect x="563" y="251" width="8" height="10" rx="2" fill="white" opacity=".18"/><rect x="563" y="275" width="8" height="10" rx="2" fill="white" opacity=".18"/><rect x="585" y="179" width="8" height="10" rx="2" fill="white" opacity=".18"/><rect x="585" y="203" width="8" height="10" rx="2" fill="white" opacity=".18"/><rect x="585" y="227" width="8" height="10" rx="2" fill="white" opacity=".18"/><rect x="585" y="251" width="8" height="10" rx="2" fill="white" opacity=".18"/><rect x="585" y="275" width="8" height="10" rx="2" fill="white" opacity=".18"/><rect x="607" y="179" width="8" height="10" rx="2" fill="white" opacity=".18"/><rect x="607" y="203" width="8" height="10" rx="2" fill="white" opacity=".18"/><rect x="607" y="227" width="8" height="10" rx="2" fill="white" opacity=".18"/><rect x="607" y="251" width="8" height="10" rx="2" fill="white" opacity=".18"/><rect x="607" y="275" width="8" height="10" rx="2" fill="white" opacity=".18"/><rect x="782" y="192" width="8" height="10" rx="2" fill="white" opacity=".18"/><rect x="782" y="216" width="8" height="10" rx="2" fill="white" opacity=".18"/><rect x="782" y="240" width="8" height="10" rx="2" fill="white" opacity=".18"/><rect x="782" y="264" width="8" height="10" rx="2" fill="white" opacity=".18"/><rect x="782" y="288" width="8" height="10" rx="2" fill="white" opacity=".18"/><rect x="804" y="192" width="8" height="10" rx="2" fill="white" opacity=".18"/><rect x="804" y="216" width="8" height="10" rx="2" fill="white" opacity=".18"/><rect x="804" y="240" width="8" height="10" rx="2" fill="white" opacity=".18"/><rect x="804" y="264" width="8" height="10" rx="2" fill="white" opacity=".18"/><rect x="804" y="288" width="8" height="10" rx="2" fill="white" opacity=".18"/><rect x="946" y="172" width="8" height="10" rx="2" fill="white" opacity=".18"/><rect x="946" y="196" width="8" height="10" rx="2" fill="white" opacity=".18"/><rect x="946" y="220" width="8" height="10" rx="2" fill="white" opacity=".18"/><rect x="946" y="244" width="8" height="10" rx="2" fill="white" opacity=".18"/><rect x="946" y="268" width="8" height="10" rx="2" fill="white" opacity=".18"/><rect x="968" y="172" width="8" height="10" rx="2" fill="white" opacity=".18"/><rect x="968" y="196" width="8" height="10" rx="2" fill="white" opacity=".18"/><rect x="968" y="220" width="8" height="10" rx="2" fill="white" opacity=".18"/><rect x="968" y="244" width="8" height="10" rx="2" fill="white" opacity=".18"/><rect x="968" y="268" width="8" height="10" rx="2" fill="white" opacity=".18"/><rect x="990" y="172" width="8" height="10" rx="2" fill="white" opacity=".18"/><rect x="990" y="196" width="8" height="10" rx="2" fill="white" opacity=".18"/><rect x="990" y="220" width="8" height="10" rx="2" fill="white" opacity=".18"/><rect x="990" y="244" width="8" height="10" rx="2" fill="white" opacity=".18"/><rect x="990" y="268" width="8" height="10" rx="2" fill="white" opacity=".18"/><rect x="1128" y="271" width="8" height="10" rx="2" fill="white" opacity=".18"/><rect x="1128" y="295" width="8" height="10" rx="2" fill="white" opacity=".18"/><rect x="1128" y="319" width="8" height="10" rx="2" fill="white" opacity=".18"/><rect x="1128" y="343" width="8" height="10" rx="2" fill="white" opacity=".18"/><rect x="1128" y="367" width="8" height="10" rx="2" fill="white" opacity=".18"/><rect x="1150" y="271" width="8" height="10" rx="2" fill="white" opacity=".18"/><rect x="1150" y="295" width="8" height="10" rx="2" fill="white" opacity=".18"/><rect x="1150" y="319" width="8" height="10" rx="2" fill="white" opacity=".18"/><rect x="1150" y="343" width="8" height="10" rx="2" fill="white" opacity=".18"/><rect x="1150" y="367" width="8" height="10" rx="2" fill="white" opacity=".18"/><rect x="1172" y="271" width="8" height="10" rx="2" fill="white" opacity=".18"/><rect x="1172" y="295" width="8" height="10" rx="2" fill="white" opacity=".18"/><rect x="1172" y="319" width="8" height="10" rx="2" fill="white" opacity=".18"/><rect x="1172" y="343" width="8" height="10" rx="2" fill="white" opacity=".18"/><rect x="1172" y="367" width="8" height="10" rx="2" fill="white" opacity=".18"/></g>
  <rect x="0" y="452" width="1200" height="248" fill="#d35e35" opacity=".06"/>
  <text x="60" y="625" font-family="Inter, Arial, sans-serif" font-size="34" font-weight="700" fill="#d35e35" opacity=".20">Cincinnati</text>
</svg>