<svg xmlns="http://www.w3.org/2000/svg" viewBox="0 0 1200 700" preserveAspectRatio="xMidYMid slice">
  <defs>
    <linearGradient id="g" x1="0" y1="0" x2="1" y2="1">
      <stop offset="0" stop-color="#f8efe6"/>
      <stop offset="0.55" stop-color="#ffffff"/>
      <stop offset="1" stop-color="#f26a21" stop-opacity=".30"/>
    </linearGradient>
    <radialGradient id="sun" cx="78%" cy="18%" r="42%"><stop offset="0" stop-color="#f26a21" stop-opacity=".38"/><stop offset="1" stop-color="#f26a21" stop-opacity="0"/></radialGradient>
  </defs>
  <rect width="1200" height="700" fill="url(#g)"/>
  <rect width="1200" height="700" fill="url(#sun)"/>
  <circle cx="1010" cy="120" r="80" fill="#f26a21" opacity=".18"/>
  
  <g><rect x="0" y="268" width="95" height="192" rx="8" fill="#183b66" opacity="0.39"/><rect x="103" y="250" width="102" height="210" rx="8" fill="#183b66" opacity="0.33"/><rect x="221" y="328" width="67" height="132" rx="8" fill="#183b66" opacity="0.33"/><rect x="300" y="139" width="78" height="321" rx="8" fill="#183b66" opacity="0.42"/><rect x="390" y="193" width="91" height="267" rx="8" fill="#183b66" opacity="0.46"/><rect x="494" y="260" width="86" height="200" rx="8" fill="#183b66" opacity="0.51"/><rect x="588" y="191" width="81" height="269" rx="8" fill="#183b66" opacity="0.40"/><rect x="686" y="203" width="85" height="257" rx="8" fill="#183b66" opacity="0.51"/><rect x="785" y="327" width="53" height="133" rx="8" fill="#183b66" opacity="0.37"/><rect x="854" y="227" width="53" height="233" rx="8" fill="#183b66" opacity="0.44"/><rect x="917" y="297" width="55" height="163" rx="8" fill="#183b66" opacity="0.37"/><rect x="983" y="181" width="100" height="279" rx="8" fill="#183b66" opacity="0.30"/><rect x="1098" y="267" width="62" height="193" rx="8" fill="#183b66" opacity="0.37"/><rect x="1172" y="183" width="103" height="277" rx="8" fill="#183b66" opacity="0.33"/></g>
  <g><rect x="12" y="290" width="8" height="10" rx="2" fill="white" opacity=".18"/><rect x="12" y="314" width="8" height="10" rx="2" fill="white" opacity=".18"/><rect x="12" y="338" width="8" height="10" rx="2" fill="white" opacity=".18"/><rect x="12" y="362" width="8" height="10" rx="2" fill="white" opacity=".18"/><rect x="12" y="386" width="8" height="10" rx="2" fill="white" opacity=".18"/><rect x="34" y="290" width="8" height="10" rx="2" fill="white" opacity=".18"/><rect x="34" y="314" width="8" height="10" rx="2" fill="white" opacity=".18"/><rect x="34" y="338" width="8" height="10" rx="2" fill="white" opacity=".18"/><rect x="34" y="362" width="8" height="10" rx="2" fill="white" opacity=".18"/><rect x="34" y="386" width="8" height="10" rx="2" fill="white" opacity=".18"/><rect x="56" y="290" width="8" height="10" rx="2" fill="white" opacity=".18"/><rect x="56" y="314" width="8" height="10" rx="2" fill="white" opacity=".18"/><rect x="56" y="338" width="8" height="10" rx="2" fill="white" opacity=".18"/><rect x="56" y="362" width="8" height="10" rx="2" fill="white" opacity=".18"/><rect x="56" y="386" width="8" height="10" rx="2" fill="white" opacity=".18"/><rect x="233" y="350" width="8" height="10" rx="2" fill="white" opacity=".18"/><rect x="233" y="374" width="8" height="10" rx="2" fill="white" opacity=".18"/><rect x="233" y="398" width="8" height="10" rx="2" fill="white" opacity=".18"/><rect x="233" y="422" width="8" height="10" rx="2" fill="white" opacity=".18"/><rect x="255" y="350" width="8" height="10" rx="2" fill="white" opacity=".18"/><rect x="255" y="374" width="8" height="10" rx="2" fill="white" opacity=".18"/><rect x="255" y="398" width="8" height="10" rx="2" fill="white" opacity=".18"/><rect x="255" y="422" width="8" height="10" rx="2" fill="white" opacity=".18"/><rect x="277" y="350" width="8" height="10" rx="2" fill="white" opacity=".18"/><rect x="277" y="374" width="8" height="10" rx="2" fill="white" opacity=".18"/><rect x="277" y="398" width="8" height="10" rx="2" fill="white" opacity=".18"/><rect x="277" y="422" width="8" height="10" rx="2" fill="white" opacity=".18"/><rect x="402" y="215" width="8" height="10" rx="2" fill="white" opacity=".18"/><rect x="402" y="239" width="8" height="10" rx="2" fill="white" opacity=".18"/><rect x="402" y="263" width="8" height="10" rx="2" fill="white" opacity=".18"/><rect x="402" y="287" width="8" height="10" rx="2" fill="white" opacity=".18"/><rect x="402" y="311" width="8" height="10" rx="2" fill="white" opacity=".18"/><rect x="424" y="215" width="8" height="10" rx="2" fill="white" opacity=".18"/><rect x="424" y="239" width="8" height="10" rx="2" fill="white" opacity=".18"/><rect x="424" y="263" width="8" height="10" rx="2" fill="white" opacity=".18"/><rect x="424" y="287" width="8" height="10" rx="2" fill="white" opacity=".18"/><rect x="424" y="311" width="8" height="10" rx="2" fill="white" opacity=".18"/><rect x="446" y="215" width="8" height="10" rx="2" fill="white" opacity=".18"/><rect x="446" y="239" width="8" height="10" rx="2" fill="white" opacity=".18"/><rect x="446" y="263" width="8" height="10" rx="2" fill="white" opacity=".18"/><rect x="446" y="287" width="8" height="10" rx="2" fill="white" opacity=".18"/><rect x="446" y="311" width="8" height="10" rx="2" fill="white" opacity=".18"/><rect x="600" y="213" width="8" height="10" rx="2" fill="white" opacity=".18"/><rect x="600" y="237" width="8" height="10" rx="2" fill="white" opacity=".18"/><rect x="600" y="261" width="8" height="10" rx="2" fill="white" opacity=".18"/><rect x="600" y="285" width="8" height="10" rx="2" fill="white" opacity=".18"/><rect x="600" y="309" width="8" height="10" rx="2" fill="white" opacity=".18"/><rect x="622" y="213" width="8" height="10" rx="2" fill="white" opacity=".18"/><rect x="622" y="237" width="8" height="10" rx="2" fill="white" opacity=".18"/><rect x="622" y="261" width="8" height="10" rx="2" fill="white" opacity=".18"/><rect x="622" y="285" width="8" height="10" rx="2" fill="white" opacity=".18"/><rect x="622" y="309" width="8" height="10" rx="2" fill="white" opacity=".18"/><rect x="644" y="213" width="8" height="10" rx="2" fill="white" opacity=".18"/><rect x="644" y="237" width="8" height="10" rx="2" fill="white" opacity=".18"/><rect x="644" y="261" width="8" height="10" rx="2" fill="white" opacity=".18"/><rect x="644" y="285" width="8" height="10" rx="2" fill="white" opacity=".18"/><rect x="644" y="309" width="8" height="10" rx="2" fill="white" opacity=".18"/><rect x="797" y="349" width="8" height="10" rx="2" fill="white" opacity=".18"/><rect x="797" y="373" width="8" height="10" rx="2" fill="white" opacity=".18"/><rect x="797" y="397" width="8" height="10" rx="2" fill="white" opacity=".18"/><rect x="797" y="421" width="8" height="10" rx="2" fill="white" opacity=".18"/><rect x="819" y="349" width="8" height="10" rx="2" fill="white" opacity=".18"/><rect x="819" y="373" width="8" height="10" rx="2" fill="white" opacity=".18"/><rect x="819" y="397" width="8" height="10" rx="2" fill="white" opacity=".18"/><rect x="819" y="421" width="8" height="10" rx="2" fill="white" opacity=".18"/><rect x="929" y="319" width="8" height="10" rx="2" fill="white" opacity=".18"/><rect x="929" y="343" width="8" height="10" rx="2" fill="white" opacity=".18"/><rect x="929" y="367" width="8" height="10" rx="2" fill="white" opacity=".18"/><rect x="929" y="391" width="8" height="10" rx="2" fill="white" opacity=".18"/><rect x="929" y="415" width="8" height="10" rx="2" fill="white" opacity=".18"/><rect x="951" y="319" width="8" height="10" rx="2" fill="white" opacity=".18"/><rect x="951" y="343" width="8" height="10" rx="2" fill="white" opacity=".18"/><rect x="951" y="367" width="8" height="10" rx="2" fill="white" opacity=".18"/><rect x="951" y="391" width="8" height="10" rx="2" fill="white" opacity=".18"/><rect x="951" y="415" width="8" height="10" rx="2" fill="white" opacity=".18"/><rect x="1110" y="289" width="8" height="10" rx="2" fill="white" opacity=".18"/><rect x="1110" y="313" width="8" height="10" rx="2" fill="white" opacity=".18"/><rect x="1110" y="337" width="8" height="10" rx="2" fill="white" opacity=".18"/><rect x="1110" y="361" width="8" height="10" rx="2" fill="white" opacity=".18"/><rect x="1110" y="385" width="8" height="10" rx="2" fill="white" opacity=".18"/><rect x="1132" y="289" width="8" height="10" rx="2" fill="white" opacity=".18"/><rect x="1132" y="313" width="8" height="10" rx="2" fill="white" opacity=".18"/><rect x="1132" y="337" width="8" height="10" rx="2" fill="white" opacity=".18"/><rect x="1132" y="361" width="8" height="10" rx="2" fill="white" opacity=".18"/><rect x="1132" y="385" width="8" height="10" rx="2" fill="white" opacity=".18"/></g>
  <rect x="0" y="452" width="1200" height="248" fill="#183b66" opacity=".06"/>
  <text x="60" y="625" font-family="Inter, Arial, sans-serif" font-size="34" font-weight="700" fill="#183b66" opacity=".20">Dallas</text>
</svg>