<svg xmlns="http://www.w3.org/2000/svg" viewBox="0 0 1200 700" preserveAspectRatio="xMidYMid slice">
  <defs>
    <linearGradient id="g" x1="0" y1="0" x2="1" y2="1">
      <stop offset="0" stop-color="#edf6ff"/>
      <stop offset="0.55" stop-color="#ffffff"/>
      <stop offset="1" stop-color="#366aa1" stop-opacity=".30"/>
    </linearGradient>
    <radialGradient id="sun" cx="78%" cy="18%" r="42%"><stop offset="0" stop-color="#366aa1" stop-opacity=".38"/><stop offset="1" stop-color="#366aa1" stop-opacity="0"/></radialGradient>
  </defs>
  <rect width="1200" height="700" fill="url(#g)"/>
  <rect width="1200" height="700" fill="url(#sun)"/>
  <circle cx="1010" cy="120" r="80" fill="#366aa1" opacity=".18"/>
  <path d="M0 390 L130 230 L230 345 L360 170 L520 370 L700 210 L830 360 L970 190 L1200 390 Z" fill="#366aa1" opacity=".28"/><path d="M0 410 L180 300 L330 395 L540 260 L760 405 L940 285 L1200 415 Z" fill="#f47a3c" opacity=".38"/>
  <g><rect x="0" y="140" width="80" height="320" rx="8" fill="#f47a3c" opacity="0.55"/><rect x="88" y="335" width="78" height="125" rx="8" fill="#f47a3c" opacity="0.47"/><rect x="186" y="245" width="75" height="215" rx="8" fill="#f47a3c" opacity="0.52"/><rect x="269" y="270" width="102" height="190" rx="8" fill="#f47a3c" opacity="0.34"/><rect x="387" y="235" width="61" height="225" rx="8" fill="#f47a3c" opacity="0.54"/><rect x="460" y="338" width="105" height="122" rx="8" fill="#f47a3c" opacity="0.38"/><rect x="580" y="228" width="75" height="232" rx="8" fill="#f47a3c" opacity="0.30"/><rect x="665" y="182" width="68" height="278" rx="8" fill="#f47a3c" opacity="0.34"/><rect x="751" y="152" width="92" height="308" rx="8" fill="#f47a3c" opacity="0.39"/><rect x="855" y="284" width="86" height="176" rx="8" fill="#f47a3c" opacity="0.33"/><rect x="956" y="148" width="64" height="312" rx="8" fill="#f47a3c" opacity="0.32"/><rect x="1031" y="224" width="59" height="236" rx="8" fill="#f47a3c" opacity="0.49"/><rect x="1104" y="163" width="88" height="297" rx="8" fill="#f47a3c" opacity="0.28"/></g>
  <g><rect x="12" y="162" width="8" height="10" rx="2" fill="white" opacity=".18"/><rect x="12" y="186" width="8" height="10" rx="2" fill="white" opacity=".18"/><rect x="12" y="210" width="8" height="10" rx="2" fill="white" opacity=".18"/><rect x="12" y="234" width="8" height="10" rx="2" fill="white" opacity=".18"/><rect x="12" y="258" width="8" height="10" rx="2" fill="white" opacity=".18"/><rect x="34" y="162" width="8" height="10" rx="2" fill="white" opacity=".18"/><rect x="34" y="186" width="8" height="10" rx="2" fill="white" opacity=".18"/><rect x="34" y="210" width="8" height="10" rx="2" fill="white" opacity=".18"/><rect x="34" y="234" width="8" height="10" rx="2" fill="white" opacity=".18"/><rect x="34" y="258" width="8" height="10" rx="2" fill="white" opacity=".18"/><rect x="56" y="162" width="8" height="10" rx="2" fill="white" opacity=".18"/><rect x="56" y="186" width="8" height="10" rx="2" fill="white" opacity=".18"/><rect x="56" y="210" width="8" height="10" rx="2" fill="white" opacity=".18"/><rect x="56" y="234" width="8" height="10" rx="2" fill="white" opacity=".18"/><rect x="56" y="258" width="8" height="10" rx="2" fill="white" opacity=".18"/><rect x="198" y="267" width="8" height="10" rx="2" fill="white" opacity=".18"/><rect x="198" y="291" width="8" height="10" rx="2" fill="white" opacity=".18"/><rect x="198" y="315" width="8" height="10" rx="2" fill="white" opacity=".18"/><rect x="198" y="339" width="8" height="10" rx="2" fill="white" opacity=".18"/><rect x="198" y="363" width="8" height="10" rx="2" fill="white" opacity=".18"/><rect x="220" y="267" width="8" height="10" rx="2" fill="white" opacity=".18"/><rect x="220" y="291" width="8" height="10" rx="2" fill="white" opacity=".18"/><rect x="220" y="315" width="8" height="10" rx="2" fill="white" opacity=".18"/><rect x="220" y="339" width="8" height="10" rx="2" fill="white" opacity=".18"/><rect x="220" y="363" width="8" height="10" rx="2" fill="white" opacity=".18"/><rect x="242" y="267" width="8" height="10" rx="2" fill="white" opacity=".18"/><rect x="242" y="291" width="8" height="10" rx="2" fill="white" opacity=".18"/><rect x="242" y="315" width="8" height="10" rx="2" fill="white" opacity=".18"/><rect x="242" y="339" width="8" height="10" rx="2" fill="white" opacity=".18"/><rect x="242" y="363" width="8" height="10" rx="2" fill="white" opacity=".18"/><rect x="399" y="257" width="8" height="10" rx="2" fill="white" opacity=".18"/><rect x="399" y="281" width="8" height="10" rx="2" fill="white" opacity=".18"/><rect x="399" y="305" width="8" height="10" rx="2" fill="white" opacity=".18"/><rect x="399" y="329" width="8" height="10" rx="2" fill="white" opacity=".18"/><rect x="399" y="353" width="8" height="10" rx="2" fill="white" opacity=".18"/><rect x="421" y="257" width="8" height="10" rx="2" fill="white" opacity=".18"/><rect x="421" y="281" width="8" height="10" rx="2" fill="white" opacity=".18"/><rect x="421" y="305" width="8" height="10" rx="2" fill="white" opacity=".18"/><rect x="421" y="329" width="8" height="10" rx="2" fill="white" opacity=".18"/><rect x="421" y="353" width="8" height="10" rx="2" fill="white" opacity=".18"/><rect x="592" y="250" width="8" height="10" rx="2" fill="white" opacity=".18"/><rect x="592" y="274" width="8" height="10" rx="2" fill="white" opacity=".18"/><rect x="592" y="298" width="8" height="10" rx="2" fill="white" opacity=".18"/><rect x="592" y="322" width="8" height="10" rx="2" fill="white" opacity=".18"/><rect x="592" y="346" width="8" height="10" rx="2" fill="white" opacity=".18"/><rect x="614" y="250" width="8" height="10" rx="2" fill="white" opacity=".18"/><rect x="614" y="274" width="8" height="10" rx="2" fill="white" opacity=".18"/><rect x="614" y="298" width="8" height="10" rx="2" fill="white" opacity=".18"/><rect x="614" y="322" width="8" height="10" rx="2" fill="white" opacity=".18"/><rect x="614" y="346" width="8" height="10" rx="2" fill="white" opacity=".18"/><rect x="636" y="250" width="8" height="10" rx="2" fill="white" opacity=".18"/><rect x="636" y="274" width="8" height="10" rx="2" fill="white" opacity=".18"/><rect x="636" y="298" width="8" height="10" rx="2" fill="white" opacity=".18"/><rect x="636" y="322" width="8" height="10" rx="2" fill="white" opacity=".18"/><rect x="636" y="346" width="8" height="10" rx="2" fill="white" opacity=".18"/><rect x="763" y="174" width="8" height="10" rx="2" fill="white" opacity=".18"/><rect x="763" y="198" width="8" height="10" rx="2" fill="white" opacity=".18"/><rect x="763" y="222" width="8" height="10" rx="2" fill="white" opacity=".18"/><rect x="763" y="246" width="8" height="10" rx="2" fill="white" opacity=".18"/><rect x="763" y="270" width="8" height="10" rx="2" fill="white" opacity=".18"/><rect x="785" y="174" width="8" height="10" rx="2" fill="white" opacity=".18"/><rect x="785" y="198" width="8" height="10" rx="2" fill="white" opacity=".18"/><rect x="785" y="222" width="8" height="10" rx="2" fill="white" opacity=".18"/><rect x="785" y="246" width="8" height="10" rx="2" fill="white" opacity=".18"/><rect x="785" y="270" width="8" height="10" rx="2" fill="white" opacity=".18"/><rect x="807" y="174" width="8" height="10" rx="2" fill="white" opacity=".18"/><rect x="807" y="198" width="8" height="10" rx="2" fill="white" opacity=".18"/><rect x="807" y="222" width="8" height="10" rx="2" fill="white" opacity=".18"/><rect x="807" y="246" width="8" height="10" rx="2" fill="white" opacity=".18"/><rect x="807" y="270" width="8" height="10" rx="2" fill="white" opacity=".18"/><rect x="968" y="170" width="8" height="10" rx="2" fill="white" opacity=".18"/><rect x="968" y="194" width="8" height="10" rx="2" fill="white" opacity=".18"/><rect x="968" y="218" width="8" height="10" rx="2" fill="white" opacity=".18"/><rect x="968" y="242" width="8" height="10" rx="2" fill="white" opacity=".18"/><rect x="968" y="266" width="8" height="10" rx="2" fill="white" opacity=".18"/><rect x="990" y="170" width="8" height="10" rx="2" fill="white" opacity=".18"/><rect x="990" y="194" width="8" height="10" rx="2" fill="white" opacity=".18"/><rect x="990" y="218" width="8" height="10" rx="2" fill="white" opacity=".18"/><rect x="990" y="242" width="8" height="10" rx="2" fill="white" opacity=".18"/><rect x="990" y="266" width="8" height="10" rx="2" fill="white" opacity=".18"/><rect x="1116" y="185" width="8" height="10" rx="2" fill="white" opacity=".18"/><rect x="1116" y="209" width="8" height="10" rx="2" fill="white" opacity=".18"/><rect x="1116" y="233" width="8" height="10" rx="2" fill="white" opacity=".18"/><rect x="1116" y="257" width="8" height="10" rx="2" fill="white" opacity=".18"/><rect x="1116" y="281" width="8" height="10" rx="2" fill="white" opacity=".18"/><rect x="1138" y="185" width="8" height="10" rx="2" fill="white" opacity=".18"/><rect x="1138" y="209" width="8" height="10" rx="2" fill="white" opacity=".18"/><rect x="1138" y="233" width="8" height="10" rx="2" fill="white" opacity=".18"/><rect x="1138" y="257" width="8" height="10" rx="2" fill="white" opacity=".18"/><rect x="1138" y="281" width="8" height="10" rx="2" fill="white" opacity=".18"/><rect x="1160" y="185" width="8" height="10" rx="2" fill="white" opacity=".18"/><rect x="1160" y="209" width="8" height="10" rx="2" fill="white" opacity=".18"/><rect x="1160" y="233" width="8" height="10" rx="2" fill="white" opacity=".18"/><rect x="1160" y="257" width="8" height="10" rx="2" fill="white" opacity=".18"/><rect x="1160" y="281" width="8" height="10" rx="2" fill="white" opacity=".18"/></g>
  <rect x="0" y="452" width="1200" height="248" fill="#f47a3c" opacity=".06"/>
  <text x="60" y="625" font-family="Inter, Arial, sans-serif" font-size="34" font-weight="700" fill="#f47a3c" opacity=".20">Denver</text>
</svg>