<svg xmlns="http://www.w3.org/2000/svg" viewBox="0 0 1200 700" preserveAspectRatio="xMidYMid slice">
  <defs>
    <linearGradient id="g" x1="0" y1="0" x2="1" y2="1">
      <stop offset="0" stop-color="#ecf6ff"/>
      <stop offset="0.55" stop-color="#ffffff"/>
      <stop offset="1" stop-color="#245ba7" stop-opacity=".30"/>
    </linearGradient>
    <radialGradient id="sun" cx="78%" cy="18%" r="42%"><stop offset="0" stop-color="#245ba7" stop-opacity=".38"/><stop offset="1" stop-color="#245ba7" stop-opacity="0"/></radialGradient>
  </defs>
  <rect width="1200" height="700" fill="url(#g)"/>
  <rect width="1200" height="700" fill="url(#sun)"/>
  <circle cx="1010" cy="120" r="80" fill="#245ba7" opacity=".18"/>
  <path d="M0 500 C220 460 350 530 600 495 C820 465 980 510 1200 480 L1200 700 L0 700 Z" fill="#245ba7" opacity=".22"/><path d="M140 445 C260 380 380 380 500 445" fill="none" stroke="#f2b33d" stroke-width="12" opacity=".62"/>
  <g><rect x="0" y="295" width="96" height="165" rx="8" fill="#f2b33d" opacity="0.32"/><rect x="104" y="173" width="51" height="287" rx="8" fill="#f2b33d" opacity="0.52"/><rect x="174" y="217" width="54" height="243" rx="8" fill="#f2b33d" opacity="0.45"/><rect x="240" y="147" width="97" height="313" rx="8" fill="#f2b33d" opacity="0.43"/><rect x="353" y="166" width="52" height="294" rx="8" fill="#f2b33d" opacity="0.40"/><rect x="416" y="242" width="91" height="218" rx="8" fill="#f2b33d" opacity="0.51"/><rect x="527" y="302" width="69" height="158" rx="8" fill="#f2b33d" opacity="0.29"/><rect x="615" y="137" width="51" height="323" rx="8" fill="#f2b33d" opacity="0.53"/><rect x="686" y="307" width="108" height="153" rx="8" fill="#f2b33d" opacity="0.46"/><rect x="809" y="217" width="67" height="243" rx="8" fill="#f2b33d" opacity="0.43"/><rect x="885" y="143" width="52" height="317" rx="8" fill="#f2b33d" opacity="0.54"/><rect x="948" y="277" width="68" height="183" rx="8" fill="#f2b33d" opacity="0.46"/><rect x="1031" y="154" width="102" height="306" rx="8" fill="#f2b33d" opacity="0.44"/><rect x="1149" y="156" width="74" height="304" rx="8" fill="#f2b33d" opacity="0.30"/></g>
  <g><rect x="12" y="317" width="8" height="10" rx="2" fill="white" opacity=".18"/><rect x="12" y="341" width="8" height="10" rx="2" fill="white" opacity=".18"/><rect x="12" y="365" width="8" height="10" rx="2" fill="white" opacity=".18"/><rect x="12" y="389" width="8" height="10" rx="2" fill="white" opacity=".18"/><rect x="12" y="413" width="8" height="10" rx="2" fill="white" opacity=".18"/><rect x="34" y="317" width="8" height="10" rx="2" fill="white" opacity=".18"/><rect x="34" y="341" width="8" height="10" rx="2" fill="white" opacity=".18"/><rect x="34" y="365" width="8" height="10" rx="2" fill="white" opacity=".18"/><rect x="34" y="389" width="8" height="10" rx="2" fill="white" opacity=".18"/><rect x="34" y="413" width="8" height="10" rx="2" fill="white" opacity=".18"/><rect x="56" y="317" width="8" height="10" rx="2" fill="white" opacity=".18"/><rect x="56" y="341" width="8" height="10" rx="2" fill="white" opacity=".18"/><rect x="56" y="365" width="8" height="10" rx="2" fill="white" opacity=".18"/><rect x="56" y="389" width="8" height="10" rx="2" fill="white" opacity=".18"/><rect x="56" y="413" width="8" height="10" rx="2" fill="white" opacity=".18"/><rect x="186" y="239" width="8" height="10" rx="2" fill="white" opacity=".18"/><rect x="186" y="263" width="8" height="10" rx="2" fill="white" opacity=".18"/><rect x="186" y="287" width="8" height="10" rx="2" fill="white" opacity=".18"/><rect x="186" y="311" width="8" height="10" rx="2" fill="white" opacity=".18"/><rect x="186" y="335" width="8" height="10" rx="2" fill="white" opacity=".18"/><rect x="208" y="239" width="8" height="10" rx="2" fill="white" opacity=".18"/><rect x="208" y="263" width="8" height="10" rx="2" fill="white" opacity=".18"/><rect x="208" y="287" width="8" height="10" rx="2" fill="white" opacity=".18"/><rect x="208" y="311" width="8" height="10" rx="2" fill="white" opacity=".18"/><rect x="208" y="335" width="8" height="10" rx="2" fill="white" opacity=".18"/><rect x="365" y="188" width="8" height="10" rx="2" fill="white" opacity=".18"/><rect x="365" y="212" width="8" height="10" rx="2" fill="white" opacity=".18"/><rect x="365" y="236" width="8" height="10" rx="2" fill="white" opacity=".18"/><rect x="365" y="260" width="8" height="10" rx="2" fill="white" opacity=".18"/><rect x="365" y="284" width="8" height="10" rx="2" fill="white" opacity=".18"/><rect x="387" y="188" width="8" height="10" rx="2" fill="white" opacity=".18"/><rect x="387" y="212" width="8" height="10" rx="2" fill="white" opacity=".18"/><rect x="387" y="236" width="8" height="10" rx="2" fill="white" opacity=".18"/><rect x="387" y="260" width="8" height="10" rx="2" fill="white" opacity=".18"/><rect x="387" y="284" width="8" height="10" rx="2" fill="white" opacity=".18"/><rect x="539" y="324" width="8" height="10" rx="2" fill="white" opacity=".18"/><rect x="539" y="348" width="8" height="10" rx="2" fill="white" opacity=".18"/><rect x="539" y="372" width="8" height="10" rx="2" fill="white" opacity=".18"/><rect x="539" y="396" width="8" height="10" rx="2" fill="white" opacity=".18"/><rect x="539" y="420" width="8" height="10" rx="2" fill="white" opacity=".18"/><rect x="561" y="324" width="8" height="10" rx="2" fill="white" opacity=".18"/><rect x="561" y="348" width="8" height="10" rx="2" fill="white" opacity=".18"/><rect x="561" y="372" width="8" height="10" rx="2" fill="white" opacity=".18"/><rect x="561" y="396" width="8" height="10" rx="2" fill="white" opacity=".18"/><rect x="561" y="420" width="8" height="10" rx="2" fill="white" opacity=".18"/><rect x="583" y="324" width="8" height="10" rx="2" fill="white" opacity=".18"/><rect x="583" y="348" width="8" height="10" rx="2" fill="white" opacity=".18"/><rect x="583" y="372" width="8" height="10" rx="2" fill="white" opacity=".18"/><rect x="583" y="396" width="8" height="10" rx="2" fill="white" opacity=".18"/><rect x="583" y="420" width="8" height="10" rx="2" fill="white" opacity=".18"/><rect x="698" y="329" width="8" height="10" rx="2" fill="white" opacity=".18"/><rect x="698" y="353" width="8" height="10" rx="2" fill="white" opacity=".18"/><rect x="698" y="377" width="8" height="10" rx="2" fill="white" opacity=".18"/><rect x="698" y="401" width="8" height="10" rx="2" fill="white" opacity=".18"/><rect x="698" y="425" width="8" height="10" rx="2" fill="white" opacity=".18"/><rect x="720" y="329" width="8" height="10" rx="2" fill="white" opacity=".18"/><rect x="720" y="353" width="8" height="10" rx="2" fill="white" opacity=".18"/><rect x="720" y="377" width="8" height="10" rx="2" fill="white" opacity=".18"/><rect x="720" y="401" width="8" height="10" rx="2" fill="white" opacity=".18"/><rect x="720" y="425" width="8" height="10" rx="2" fill="white" opacity=".18"/><rect x="742" y="329" width="8" height="10" rx="2" fill="white" opacity=".18"/><rect x="742" y="353" width="8" height="10" rx="2" fill="white" opacity=".18"/><rect x="742" y="377" width="8" height="10" rx="2" fill="white" opacity=".18"/><rect x="742" y="401" width="8" height="10" rx="2" fill="white" opacity=".18"/><rect x="742" y="425" width="8" height="10" rx="2" fill="white" opacity=".18"/><rect x="897" y="165" width="8" height="10" rx="2" fill="white" opacity=".18"/><rect x="897" y="189" width="8" height="10" rx="2" fill="white" opacity=".18"/><rect x="897" y="213" width="8" height="10" rx="2" fill="white" opacity=".18"/><rect x="897" y="237" width="8" height="10" rx="2" fill="white" opacity=".18"/><rect x="897" y="261" width="8" height="10" rx="2" fill="white" opacity=".18"/><rect x="919" y="165" width="8" height="10" rx="2" fill="white" opacity=".18"/><rect x="919" y="189" width="8" height="10" rx="2" fill="white" opacity=".18"/><rect x="919" y="213" width="8" height="10" rx="2" fill="white" opacity=".18"/><rect x="919" y="237" width="8" height="10" rx="2" fill="white" opacity=".18"/><rect x="919" y="261" width="8" height="10" rx="2" fill="white" opacity=".18"/><rect x="1043" y="176" width="8" height="10" rx="2" fill="white" opacity=".18"/><rect x="1043" y="200" width="8" height="10" rx="2" fill="white" opacity=".18"/><rect x="1043" y="224" width="8" height="10" rx="2" fill="white" opacity=".18"/><rect x="1043" y="248" width="8" height="10" rx="2" fill="white" opacity=".18"/><rect x="1043" y="272" width="8" height="10" rx="2" fill="white" opacity=".18"/><rect x="1065" y="176" width="8" height="10" rx="2" fill="white" opacity=".18"/><rect x="1065" y="200" width="8" height="10" rx="2" fill="white" opacity=".18"/><rect x="1065" y="224" width="8" height="10" rx="2" fill="white" opacity=".18"/><rect x="1065" y="248" width="8" height="10" rx="2" fill="white" opacity=".18"/><rect x="1065" y="272" width="8" height="10" rx="2" fill="white" opacity=".18"/><rect x="1087" y="176" width="8" height="10" rx="2" fill="white" opacity=".18"/><rect x="1087" y="200" width="8" height="10" rx="2" fill="white" opacity=".18"/><rect x="1087" y="224" width="8" height="10" rx="2" fill="white" opacity=".18"/><rect x="1087" y="248" width="8" height="10" rx="2" fill="white" opacity=".18"/><rect x="1087" y="272" width="8" height="10" rx="2" fill="white" opacity=".18"/></g>
  <rect x="0" y="452" width="1200" height="248" fill="#f2b33d" opacity=".06"/>
  <text x="60" y="625" font-family="Inter, Arial, sans-serif" font-size="34" font-weight="700" fill="#f2b33d" opacity=".20">Kansas City</text>
</svg>