<svg xmlns="http://www.w3.org/2000/svg" viewBox="0 0 1200 700" preserveAspectRatio="xMidYMid slice">
  <defs>
    <linearGradient id="g" x1="0" y1="0" x2="1" y2="1">
      <stop offset="0" stop-color="#f5edff"/>
      <stop offset="0.55" stop-color="#ffffff"/>
      <stop offset="1" stop-color="#7c4bc7" stop-opacity=".30"/>
    </linearGradient>
    <radialGradient id="sun" cx="78%" cy="18%" r="42%"><stop offset="0" stop-color="#7c4bc7" stop-opacity=".38"/><stop offset="1" stop-color="#7c4bc7" stop-opacity="0"/></radialGradient>
  </defs>
  <rect width="1200" height="700" fill="url(#g)"/>
  <rect width="1200" height="700" fill="url(#sun)"/>
  <circle cx="1010" cy="120" r="80" fill="#7c4bc7" opacity=".18"/>
  <circle cx="840" cy="285" r="78" fill="none" stroke="#7c4bc7" stroke-width="16" opacity=".7"/><rect x="832" y="360" width="16" height="80" fill="#7c4bc7" opacity=".7"/>
  <g><rect x="0" y="162" width="54" height="298" rx="8" fill="#ff7a59" opacity="0.29"/><rect x="67" y="228" width="98" height="232" rx="8" fill="#ff7a59" opacity="0.53"/><rect x="185" y="224" width="63" height="236" rx="8" fill="#ff7a59" opacity="0.33"/><rect x="263" y="144" width="86" height="316" rx="8" fill="#ff7a59" opacity="0.30"/><rect x="364" y="191" width="88" height="269" rx="8" fill="#ff7a59" opacity="0.40"/><rect x="460" y="143" width="75" height="317" rx="8" fill="#ff7a59" opacity="0.41"/><rect x="549" y="266" width="82" height="194" rx="8" fill="#ff7a59" opacity="0.31"/><rect x="649" y="130" width="50" height="330" rx="8" fill="#ff7a59" opacity="0.43"/><rect x="714" y="289" width="58" height="171" rx="8" fill="#ff7a59" opacity="0.41"/><rect x="788" y="290" width="97" height="170" rx="8" fill="#ff7a59" opacity="0.41"/><rect x="904" y="186" width="81" height="274" rx="8" fill="#ff7a59" opacity="0.45"/><rect x="1002" y="296" width="107" height="164" rx="8" fill="#ff7a59" opacity="0.49"/><rect x="1118" y="330" width="89" height="130" rx="8" fill="#ff7a59" opacity="0.37"/></g>
  <g><rect x="12" y="184" width="8" height="10" rx="2" fill="white" opacity=".18"/><rect x="12" y="208" width="8" height="10" rx="2" fill="white" opacity=".18"/><rect x="12" y="232" width="8" height="10" rx="2" fill="white" opacity=".18"/><rect x="12" y="256" width="8" height="10" rx="2" fill="white" opacity=".18"/><rect x="12" y="280" width="8" height="10" rx="2" fill="white" opacity=".18"/><rect x="34" y="184" width="8" height="10" rx="2" fill="white" opacity=".18"/><rect x="34" y="208" width="8" height="10" rx="2" fill="white" opacity=".18"/><rect x="34" y="232" width="8" height="10" rx="2" fill="white" opacity=".18"/><rect x="34" y="256" width="8" height="10" rx="2" fill="white" opacity=".18"/><rect x="34" y="280" width="8" height="10" rx="2" fill="white" opacity=".18"/><rect x="197" y="246" width="8" height="10" rx="2" fill="white" opacity=".18"/><rect x="197" y="270" width="8" height="10" rx="2" fill="white" opacity=".18"/><rect x="197" y="294" width="8" height="10" rx="2" fill="white" opacity=".18"/><rect x="197" y="318" width="8" height="10" rx="2" fill="white" opacity=".18"/><rect x="197" y="342" width="8" height="10" rx="2" fill="white" opacity=".18"/><rect x="219" y="246" width="8" height="10" rx="2" fill="white" opacity=".18"/><rect x="219" y="270" width="8" height="10" rx="2" fill="white" opacity=".18"/><rect x="219" y="294" width="8" height="10" rx="2" fill="white" opacity=".18"/><rect x="219" y="318" width="8" height="10" rx="2" fill="white" opacity=".18"/><rect x="219" y="342" width="8" height="10" rx="2" fill="white" opacity=".18"/><rect x="376" y="213" width="8" height="10" rx="2" fill="white" opacity=".18"/><rect x="376" y="237" width="8" height="10" rx="2" fill="white" opacity=".18"/><rect x="376" y="261" width="8" height="10" rx="2" fill="white" opacity=".18"/><rect x="376" y="285" width="8" height="10" rx="2" fill="white" opacity=".18"/><rect x="376" y="309" width="8" height="10" rx="2" fill="white" opacity=".18"/><rect x="398" y="213" width="8" height="10" rx="2" fill="white" opacity=".18"/><rect x="398" y="237" width="8" height="10" rx="2" fill="white" opacity=".18"/><rect x="398" y="261" width="8" height="10" rx="2" fill="white" opacity=".18"/><rect x="398" y="285" width="8" height="10" rx="2" fill="white" opacity=".18"/><rect x="398" y="309" width="8" height="10" rx="2" fill="white" opacity=".18"/><rect x="420" y="213" width="8" height="10" rx="2" fill="white" opacity=".18"/><rect x="420" y="237" width="8" height="10" rx="2" fill="white" opacity=".18"/><rect x="420" y="261" width="8" height="10" rx="2" fill="white" opacity=".18"/><rect x="420" y="285" width="8" height="10" rx="2" fill="white" opacity=".18"/><rect x="420" y="309" width="8" height="10" rx="2" fill="white" opacity=".18"/><rect x="561" y="288" width="8" height="10" rx="2" fill="white" opacity=".18"/><rect x="561" y="312" width="8" height="10" rx="2" fill="white" opacity=".18"/><rect x="561" y="336" width="8" height="10" rx="2" fill="white" opacity=".18"/><rect x="561" y="360" width="8" height="10" rx="2" fill="white" opacity=".18"/><rect x="561" y="384" width="8" height="10" rx="2" fill="white" opacity=".18"/><rect x="583" y="288" width="8" height="10" rx="2" fill="white" opacity=".18"/><rect x="583" y="312" width="8" height="10" rx="2" fill="white" opacity=".18"/><rect x="583" y="336" width="8" height="10" rx="2" fill="white" opacity=".18"/><rect x="583" y="360" width="8" height="10" rx="2" fill="white" opacity=".18"/><rect x="583" y="384" width="8" height="10" rx="2" fill="white" opacity=".18"/><rect x="605" y="288" width="8" height="10" rx="2" fill="white" opacity=".18"/><rect x="605" y="312" width="8" height="10" rx="2" fill="white" opacity=".18"/><rect x="605" y="336" width="8" height="10" rx="2" fill="white" opacity=".18"/><rect x="605" y="360" width="8" height="10" rx="2" fill="white" opacity=".18"/><rect x="605" y="384" width="8" height="10" rx="2" fill="white" opacity=".18"/><rect x="726" y="311" width="8" height="10" rx="2" fill="white" opacity=".18"/><rect x="726" y="335" width="8" height="10" rx="2" fill="white" opacity=".18"/><rect x="726" y="359" width="8" height="10" rx="2" fill="white" opacity=".18"/><rect x="726" y="383" width="8" height="10" rx="2" fill="white" opacity=".18"/><rect x="726" y="407" width="8" height="10" rx="2" fill="white" opacity=".18"/><rect x="748" y="311" width="8" height="10" rx="2" fill="white" opacity=".18"/><rect x="748" y="335" width="8" height="10" rx="2" fill="white" opacity=".18"/><rect x="748" y="359" width="8" height="10" rx="2" fill="white" opacity=".18"/><rect x="748" y="383" width="8" height="10" rx="2" fill="white" opacity=".18"/><rect x="748" y="407" width="8" height="10" rx="2" fill="white" opacity=".18"/><rect x="916" y="208" width="8" height="10" rx="2" fill="white" opacity=".18"/><rect x="916" y="232" width="8" height="10" rx="2" fill="white" opacity=".18"/><rect x="916" y="256" width="8" height="10" rx="2" fill="white" opacity=".18"/><rect x="916" y="280" width="8" height="10" rx="2" fill="white" opacity=".18"/><rect x="916" y="304" width="8" height="10" rx="2" fill="white" opacity=".18"/><rect x="938" y="208" width="8" height="10" rx="2" fill="white" opacity=".18"/><rect x="938" y="232" width="8" height="10" rx="2" fill="white" opacity=".18"/><rect x="938" y="256" width="8" height="10" rx="2" fill="white" opacity=".18"/><rect x="938" y="280" width="8" height="10" rx="2" fill="white" opacity=".18"/><rect x="938" y="304" width="8" height="10" rx="2" fill="white" opacity=".18"/><rect x="960" y="208" width="8" height="10" rx="2" fill="white" opacity=".18"/><rect x="960" y="232" width="8" height="10" rx="2" fill="white" opacity=".18"/><rect x="960" y="256" width="8" height="10" rx="2" fill="white" opacity=".18"/><rect x="960" y="280" width="8" height="10" rx="2" fill="white" opacity=".18"/><rect x="960" y="304" width="8" height="10" rx="2" fill="white" opacity=".18"/><rect x="1130" y="352" width="8" height="10" rx="2" fill="white" opacity=".18"/><rect x="1130" y="376" width="8" height="10" rx="2" fill="white" opacity=".18"/><rect x="1130" y="400" width="8" height="10" rx="2" fill="white" opacity=".18"/><rect x="1130" y="424" width="8" height="10" rx="2" fill="white" opacity=".18"/><rect x="1152" y="352" width="8" height="10" rx="2" fill="white" opacity=".18"/><rect x="1152" y="376" width="8" height="10" rx="2" fill="white" opacity=".18"/><rect x="1152" y="400" width="8" height="10" rx="2" fill="white" opacity=".18"/><rect x="1152" y="424" width="8" height="10" rx="2" fill="white" opacity=".18"/><rect x="1174" y="352" width="8" height="10" rx="2" fill="white" opacity=".18"/><rect x="1174" y="376" width="8" height="10" rx="2" fill="white" opacity=".18"/><rect x="1174" y="400" width="8" height="10" rx="2" fill="white" opacity=".18"/><rect x="1174" y="424" width="8" height="10" rx="2" fill="white" opacity=".18"/></g>
  <rect x="0" y="452" width="1200" height="248" fill="#ff7a59" opacity=".06"/>
  <text x="60" y="625" font-family="Inter, Arial, sans-serif" font-size="34" font-weight="700" fill="#ff7a59" opacity=".20">Las Vegas</text>
</svg>