<svg xmlns="http://www.w3.org/2000/svg" viewBox="0 0 1200 700" preserveAspectRatio="xMidYMid slice">
  <defs>
    <linearGradient id="g" x1="0" y1="0" x2="1" y2="1">
      <stop offset="0" stop-color="#eef8f0"/>
      <stop offset="0.55" stop-color="#ffffff"/>
      <stop offset="1" stop-color="#315f46" stop-opacity=".30"/>
    </linearGradient>
    <radialGradient id="sun" cx="78%" cy="18%" r="42%"><stop offset="0" stop-color="#315f46" stop-opacity=".38"/><stop offset="1" stop-color="#315f46" stop-opacity="0"/></radialGradient>
  </defs>
  <rect width="1200" height="700" fill="url(#g)"/>
  <rect width="1200" height="700" fill="url(#sun)"/>
  <circle cx="1010" cy="120" r="80" fill="#315f46" opacity=".18"/>
  <path d="M0 390 L130 230 L230 345 L360 170 L520 370 L700 210 L830 360 L970 190 L1200 390 Z" fill="#315f46" opacity=".28"/><path d="M0 410 L180 300 L330 395 L540 260 L760 405 L940 285 L1200 415 Z" fill="#2f66a1" opacity=".38"/>
  <g><rect x="0" y="275" width="57" height="185" rx="8" fill="#2f66a1" opacity="0.28"/><rect x="76" y="189" width="102" height="271" rx="8" fill="#2f66a1" opacity="0.52"/><rect x="191" y="169" width="91" height="291" rx="8" fill="#2f66a1" opacity="0.37"/><rect x="295" y="146" width="93" height="314" rx="8" fill="#2f66a1" opacity="0.48"/><rect x="400" y="192" width="64" height="268" rx="8" fill="#2f66a1" opacity="0.38"/><rect x="480" y="321" width="90" height="139" rx="8" fill="#2f66a1" opacity="0.36"/><rect x="583" y="130" width="89" height="330" rx="8" fill="#2f66a1" opacity="0.36"/><rect x="681" y="313" width="98" height="147" rx="8" fill="#2f66a1" opacity="0.36"/><rect x="798" y="217" width="105" height="243" rx="8" fill="#2f66a1" opacity="0.29"/><rect x="911" y="261" width="80" height="199" rx="8" fill="#2f66a1" opacity="0.51"/><rect x="999" y="293" width="110" height="167" rx="8" fill="#2f66a1" opacity="0.53"/><rect x="1120" y="231" width="87" height="229" rx="8" fill="#2f66a1" opacity="0.53"/></g>
  <g><rect x="12" y="297" width="8" height="10" rx="2" fill="white" opacity=".18"/><rect x="12" y="321" width="8" height="10" rx="2" fill="white" opacity=".18"/><rect x="12" y="345" width="8" height="10" rx="2" fill="white" opacity=".18"/><rect x="12" y="369" width="8" height="10" rx="2" fill="white" opacity=".18"/><rect x="12" y="393" width="8" height="10" rx="2" fill="white" opacity=".18"/><rect x="34" y="297" width="8" height="10" rx="2" fill="white" opacity=".18"/><rect x="34" y="321" width="8" height="10" rx="2" fill="white" opacity=".18"/><rect x="34" y="345" width="8" height="10" rx="2" fill="white" opacity=".18"/><rect x="34" y="369" width="8" height="10" rx="2" fill="white" opacity=".18"/><rect x="34" y="393" width="8" height="10" rx="2" fill="white" opacity=".18"/><rect x="203" y="191" width="8" height="10" rx="2" fill="white" opacity=".18"/><rect x="203" y="215" width="8" height="10" rx="2" fill="white" opacity=".18"/><rect x="203" y="239" width="8" height="10" rx="2" fill="white" opacity=".18"/><rect x="203" y="263" width="8" height="10" rx="2" fill="white" opacity=".18"/><rect x="203" y="287" width="8" height="10" rx="2" fill="white" opacity=".18"/><rect x="225" y="191" width="8" height="10" rx="2" fill="white" opacity=".18"/><rect x="225" y="215" width="8" height="10" rx="2" fill="white" opacity=".18"/><rect x="225" y="239" width="8" height="10" rx="2" fill="white" opacity=".18"/><rect x="225" y="263" width="8" height="10" rx="2" fill="white" opacity=".18"/><rect x="225" y="287" width="8" height="10" rx="2" fill="white" opacity=".18"/><rect x="247" y="191" width="8" height="10" rx="2" fill="white" opacity=".18"/><rect x="247" y="215" width="8" height="10" rx="2" fill="white" opacity=".18"/><rect x="247" y="239" width="8" height="10" rx="2" fill="white" opacity=".18"/><rect x="247" y="263" width="8" height="10" rx="2" fill="white" opacity=".18"/><rect x="247" y="287" width="8" height="10" rx="2" fill="white" opacity=".18"/><rect x="412" y="214" width="8" height="10" rx="2" fill="white" opacity=".18"/><rect x="412" y="238" width="8" height="10" rx="2" fill="white" opacity=".18"/><rect x="412" y="262" width="8" height="10" rx="2" fill="white" opacity=".18"/><rect x="412" y="286" width="8" height="10" rx="2" fill="white" opacity=".18"/><rect x="412" y="310" width="8" height="10" rx="2" fill="white" opacity=".18"/><rect x="434" y="214" width="8" height="10" rx="2" fill="white" opacity=".18"/><rect x="434" y="238" width="8" height="10" rx="2" fill="white" opacity=".18"/><rect x="434" y="262" width="8" height="10" rx="2" fill="white" opacity=".18"/><rect x="434" y="286" width="8" height="10" rx="2" fill="white" opacity=".18"/><rect x="434" y="310" width="8" height="10" rx="2" fill="white" opacity=".18"/><rect x="595" y="152" width="8" height="10" rx="2" fill="white" opacity=".18"/><rect x="595" y="176" width="8" height="10" rx="2" fill="white" opacity=".18"/><rect x="595" y="200" width="8" height="10" rx="2" fill="white" opacity=".18"/><rect x="595" y="224" width="8" height="10" rx="2" fill="white" opacity=".18"/><rect x="595" y="248" width="8" height="10" rx="2" fill="white" opacity=".18"/><rect x="617" y="152" width="8" height="10" rx="2" fill="white" opacity=".18"/><rect x="617" y="176" width="8" height="10" rx="2" fill="white" opacity=".18"/><rect x="617" y="200" width="8" height="10" rx="2" fill="white" opacity=".18"/><rect x="617" y="224" width="8" height="10" rx="2" fill="white" opacity=".18"/><rect x="617" y="248" width="8" height="10" rx="2" fill="white" opacity=".18"/><rect x="639" y="152" width="8" height="10" rx="2" fill="white" opacity=".18"/><rect x="639" y="176" width="8" height="10" rx="2" fill="white" opacity=".18"/><rect x="639" y="200" width="8" height="10" rx="2" fill="white" opacity=".18"/><rect x="639" y="224" width="8" height="10" rx="2" fill="white" opacity=".18"/><rect x="639" y="248" width="8" height="10" rx="2" fill="white" opacity=".18"/><rect x="810" y="239" width="8" height="10" rx="2" fill="white" opacity=".18"/><rect x="810" y="263" width="8" height="10" rx="2" fill="white" opacity=".18"/><rect x="810" y="287" width="8" height="10" rx="2" fill="white" opacity=".18"/><rect x="810" y="311" width="8" height="10" rx="2" fill="white" opacity=".18"/><rect x="810" y="335" width="8" height="10" rx="2" fill="white" opacity=".18"/><rect x="832" y="239" width="8" height="10" rx="2" fill="white" opacity=".18"/><rect x="832" y="263" width="8" height="10" rx="2" fill="white" opacity=".18"/><rect x="832" y="287" width="8" height="10" rx="2" fill="white" opacity=".18"/><rect x="832" y="311" width="8" height="10" rx="2" fill="white" opacity=".18"/><rect x="832" y="335" width="8" height="10" rx="2" fill="white" opacity=".18"/><rect x="854" y="239" width="8" height="10" rx="2" fill="white" opacity=".18"/><rect x="854" y="263" width="8" height="10" rx="2" fill="white" opacity=".18"/><rect x="854" y="287" width="8" height="10" rx="2" fill="white" opacity=".18"/><rect x="854" y="311" width="8" height="10" rx="2" fill="white" opacity=".18"/><rect x="854" y="335" width="8" height="10" rx="2" fill="white" opacity=".18"/><rect x="1011" y="315" width="8" height="10" rx="2" fill="white" opacity=".18"/><rect x="1011" y="339" width="8" height="10" rx="2" fill="white" opacity=".18"/><rect x="1011" y="363" width="8" height="10" rx="2" fill="white" opacity=".18"/><rect x="1011" y="387" width="8" height="10" rx="2" fill="white" opacity=".18"/><rect x="1011" y="411" width="8" height="10" rx="2" fill="white" opacity=".18"/><rect x="1033" y="315" width="8" height="10" rx="2" fill="white" opacity=".18"/><rect x="1033" y="339" width="8" height="10" rx="2" fill="white" opacity=".18"/><rect x="1033" y="363" width="8" height="10" rx="2" fill="white" opacity=".18"/><rect x="1033" y="387" width="8" height="10" rx="2" fill="white" opacity=".18"/><rect x="1033" y="411" width="8" height="10" rx="2" fill="white" opacity=".18"/><rect x="1055" y="315" width="8" height="10" rx="2" fill="white" opacity=".18"/><rect x="1055" y="339" width="8" height="10" rx="2" fill="white" opacity=".18"/><rect x="1055" y="363" width="8" height="10" rx="2" fill="white" opacity=".18"/><rect x="1055" y="387" width="8" height="10" rx="2" fill="white" opacity=".18"/><rect x="1055" y="411" width="8" height="10" rx="2" fill="white" opacity=".18"/></g>
  <rect x="0" y="452" width="1200" height="248" fill="#2f66a1" opacity=".06"/>
  <text x="60" y="625" font-family="Inter, Arial, sans-serif" font-size="34" font-weight="700" fill="#2f66a1" opacity=".20">Lexington</text>
</svg>