<svg xmlns="http://www.w3.org/2000/svg" viewBox="0 0 1200 700" preserveAspectRatio="xMidYMid slice">
  <defs>
    <linearGradient id="g" x1="0" y1="0" x2="1" y2="1">
      <stop offset="0" stop-color="#f0f6ff"/>
      <stop offset="0.55" stop-color="#ffffff"/>
      <stop offset="1" stop-color="#244a7d" stop-opacity=".30"/>
    </linearGradient>
    <radialGradient id="sun" cx="78%" cy="18%" r="42%"><stop offset="0" stop-color="#244a7d" stop-opacity=".38"/><stop offset="1" stop-color="#244a7d" stop-opacity="0"/></radialGradient>
  </defs>
  <rect width="1200" height="700" fill="url(#g)"/>
  <rect width="1200" height="700" fill="url(#sun)"/>
  <circle cx="1010" cy="120" r="80" fill="#244a7d" opacity=".18"/>
  <path d="M0 500 C220 460 350 530 600 495 C820 465 980 510 1200 480 L1200 700 L0 700 Z" fill="#244a7d" opacity=".22"/><path d="M140 445 C260 380 380 380 500 445" fill="none" stroke="#f26a21" stroke-width="12" opacity=".62"/>
  <g><rect x="0" y="315" width="102" height="145" rx="8" fill="#f26a21" opacity="0.36"/><rect x="113" y="316" width="99" height="144" rx="8" fill="#f26a21" opacity="0.53"/><rect x="220" y="292" width="63" height="168" rx="8" fill="#f26a21" opacity="0.34"/><rect x="300" y="283" width="87" height="177" rx="8" fill="#f26a21" opacity="0.30"/><rect x="403" y="200" width="85" height="260" rx="8" fill="#f26a21" opacity="0.47"/><rect x="504" y="143" width="93" height="317" rx="8" fill="#f26a21" opacity="0.51"/><rect x="607" y="161" width="54" height="299" rx="8" fill="#f26a21" opacity="0.43"/><rect x="675" y="302" width="84" height="158" rx="8" fill="#f26a21" opacity="0.41"/><rect x="772" y="144" width="100" height="316" rx="8" fill="#f26a21" opacity="0.51"/><rect x="892" y="326" width="84" height="134" rx="8" fill="#f26a21" opacity="0.40"/><rect x="995" y="155" width="65" height="305" rx="8" fill="#f26a21" opacity="0.38"/><rect x="1071" y="269" width="84" height="191" rx="8" fill="#f26a21" opacity="0.39"/><rect x="1164" y="191" width="67" height="269" rx="8" fill="#f26a21" opacity="0.39"/></g>
  <g><rect x="12" y="337" width="8" height="10" rx="2" fill="white" opacity=".18"/><rect x="12" y="361" width="8" height="10" rx="2" fill="white" opacity=".18"/><rect x="12" y="385" width="8" height="10" rx="2" fill="white" opacity=".18"/><rect x="12" y="409" width="8" height="10" rx="2" fill="white" opacity=".18"/><rect x="12" y="433" width="8" height="10" rx="2" fill="white" opacity=".18"/><rect x="34" y="337" width="8" height="10" rx="2" fill="white" opacity=".18"/><rect x="34" y="361" width="8" height="10" rx="2" fill="white" opacity=".18"/><rect x="34" y="385" width="8" height="10" rx="2" fill="white" opacity=".18"/><rect x="34" y="409" width="8" height="10" rx="2" fill="white" opacity=".18"/><rect x="34" y="433" width="8" height="10" rx="2" fill="white" opacity=".18"/><rect x="56" y="337" width="8" height="10" rx="2" fill="white" opacity=".18"/><rect x="56" y="361" width="8" height="10" rx="2" fill="white" opacity=".18"/><rect x="56" y="385" width="8" height="10" rx="2" fill="white" opacity=".18"/><rect x="56" y="409" width="8" height="10" rx="2" fill="white" opacity=".18"/><rect x="56" y="433" width="8" height="10" rx="2" fill="white" opacity=".18"/><rect x="232" y="314" width="8" height="10" rx="2" fill="white" opacity=".18"/><rect x="232" y="338" width="8" height="10" rx="2" fill="white" opacity=".18"/><rect x="232" y="362" width="8" height="10" rx="2" fill="white" opacity=".18"/><rect x="232" y="386" width="8" height="10" rx="2" fill="white" opacity=".18"/><rect x="232" y="410" width="8" height="10" rx="2" fill="white" opacity=".18"/><rect x="254" y="314" width="8" height="10" rx="2" fill="white" opacity=".18"/><rect x="254" y="338" width="8" height="10" rx="2" fill="white" opacity=".18"/><rect x="254" y="362" width="8" height="10" rx="2" fill="white" opacity=".18"/><rect x="254" y="386" width="8" height="10" rx="2" fill="white" opacity=".18"/><rect x="254" y="410" width="8" height="10" rx="2" fill="white" opacity=".18"/><rect x="415" y="222" width="8" height="10" rx="2" fill="white" opacity=".18"/><rect x="415" y="246" width="8" height="10" rx="2" fill="white" opacity=".18"/><rect x="415" y="270" width="8" height="10" rx="2" fill="white" opacity=".18"/><rect x="415" y="294" width="8" height="10" rx="2" fill="white" opacity=".18"/><rect x="415" y="318" width="8" height="10" rx="2" fill="white" opacity=".18"/><rect x="437" y="222" width="8" height="10" rx="2" fill="white" opacity=".18"/><rect x="437" y="246" width="8" height="10" rx="2" fill="white" opacity=".18"/><rect x="437" y="270" width="8" height="10" rx="2" fill="white" opacity=".18"/><rect x="437" y="294" width="8" height="10" rx="2" fill="white" opacity=".18"/><rect x="437" y="318" width="8" height="10" rx="2" fill="white" opacity=".18"/><rect x="459" y="222" width="8" height="10" rx="2" fill="white" opacity=".18"/><rect x="459" y="246" width="8" height="10" rx="2" fill="white" opacity=".18"/><rect x="459" y="270" width="8" height="10" rx="2" fill="white" opacity=".18"/><rect x="459" y="294" width="8" height="10" rx="2" fill="white" opacity=".18"/><rect x="459" y="318" width="8" height="10" rx="2" fill="white" opacity=".18"/><rect x="619" y="183" width="8" height="10" rx="2" fill="white" opacity=".18"/><rect x="619" y="207" width="8" height="10" rx="2" fill="white" opacity=".18"/><rect x="619" y="231" width="8" height="10" rx="2" fill="white" opacity=".18"/><rect x="619" y="255" width="8" height="10" rx="2" fill="white" opacity=".18"/><rect x="619" y="279" width="8" height="10" rx="2" fill="white" opacity=".18"/><rect x="641" y="183" width="8" height="10" rx="2" fill="white" opacity=".18"/><rect x="641" y="207" width="8" height="10" rx="2" fill="white" opacity=".18"/><rect x="641" y="231" width="8" height="10" rx="2" fill="white" opacity=".18"/><rect x="641" y="255" width="8" height="10" rx="2" fill="white" opacity=".18"/><rect x="641" y="279" width="8" height="10" rx="2" fill="white" opacity=".18"/><rect x="784" y="166" width="8" height="10" rx="2" fill="white" opacity=".18"/><rect x="784" y="190" width="8" height="10" rx="2" fill="white" opacity=".18"/><rect x="784" y="214" width="8" height="10" rx="2" fill="white" opacity=".18"/><rect x="784" y="238" width="8" height="10" rx="2" fill="white" opacity=".18"/><rect x="784" y="262" width="8" height="10" rx="2" fill="white" opacity=".18"/><rect x="806" y="166" width="8" height="10" rx="2" fill="white" opacity=".18"/><rect x="806" y="190" width="8" height="10" rx="2" fill="white" opacity=".18"/><rect x="806" y="214" width="8" height="10" rx="2" fill="white" opacity=".18"/><rect x="806" y="238" width="8" height="10" rx="2" fill="white" opacity=".18"/><rect x="806" y="262" width="8" height="10" rx="2" fill="white" opacity=".18"/><rect x="828" y="166" width="8" height="10" rx="2" fill="white" opacity=".18"/><rect x="828" y="190" width="8" height="10" rx="2" fill="white" opacity=".18"/><rect x="828" y="214" width="8" height="10" rx="2" fill="white" opacity=".18"/><rect x="828" y="238" width="8" height="10" rx="2" fill="white" opacity=".18"/><rect x="828" y="262" width="8" height="10" rx="2" fill="white" opacity=".18"/><rect x="1007" y="177" width="8" height="10" rx="2" fill="white" opacity=".18"/><rect x="1007" y="201" width="8" height="10" rx="2" fill="white" opacity=".18"/><rect x="1007" y="225" width="8" height="10" rx="2" fill="white" opacity=".18"/><rect x="1007" y="249" width="8" height="10" rx="2" fill="white" opacity=".18"/><rect x="1007" y="273" width="8" height="10" rx="2" fill="white" opacity=".18"/><rect x="1029" y="177" width="8" height="10" rx="2" fill="white" opacity=".18"/><rect x="1029" y="201" width="8" height="10" rx="2" fill="white" opacity=".18"/><rect x="1029" y="225" width="8" height="10" rx="2" fill="white" opacity=".18"/><rect x="1029" y="249" width="8" height="10" rx="2" fill="white" opacity=".18"/><rect x="1029" y="273" width="8" height="10" rx="2" fill="white" opacity=".18"/><rect x="1176" y="213" width="8" height="10" rx="2" fill="white" opacity=".18"/><rect x="1176" y="237" width="8" height="10" rx="2" fill="white" opacity=".18"/><rect x="1176" y="261" width="8" height="10" rx="2" fill="white" opacity=".18"/><rect x="1176" y="285" width="8" height="10" rx="2" fill="white" opacity=".18"/><rect x="1176" y="309" width="8" height="10" rx="2" fill="white" opacity=".18"/><rect x="1198" y="213" width="8" height="10" rx="2" fill="white" opacity=".18"/><rect x="1198" y="237" width="8" height="10" rx="2" fill="white" opacity=".18"/><rect x="1198" y="261" width="8" height="10" rx="2" fill="white" opacity=".18"/><rect x="1198" y="285" width="8" height="10" rx="2" fill="white" opacity=".18"/><rect x="1198" y="309" width="8" height="10" rx="2" fill="white" opacity=".18"/><rect x="1220" y="213" width="8" height="10" rx="2" fill="white" opacity=".18"/><rect x="1220" y="237" width="8" height="10" rx="2" fill="white" opacity=".18"/><rect x="1220" y="261" width="8" height="10" rx="2" fill="white" opacity=".18"/><rect x="1220" y="285" width="8" height="10" rx="2" fill="white" opacity=".18"/><rect x="1220" y="309" width="8" height="10" rx="2" fill="white" opacity=".18"/></g>
  <rect x="0" y="452" width="1200" height="248" fill="#f26a21" opacity=".06"/>
  <text x="60" y="625" font-family="Inter, Arial, sans-serif" font-size="34" font-weight="700" fill="#f26a21" opacity=".20">Louisville</text>
</svg>