<svg xmlns="http://www.w3.org/2000/svg" viewBox="0 0 1200 700" preserveAspectRatio="xMidYMid slice">
  <defs>
    <linearGradient id="g" x1="0" y1="0" x2="1" y2="1">
      <stop offset="0" stop-color="#fff3e8"/>
      <stop offset="0.55" stop-color="#ffffff"/>
      <stop offset="1" stop-color="#9b5b2e" stop-opacity=".30"/>
    </linearGradient>
    <radialGradient id="sun" cx="78%" cy="18%" r="42%"><stop offset="0" stop-color="#9b5b2e" stop-opacity=".38"/><stop offset="1" stop-color="#9b5b2e" stop-opacity="0"/></radialGradient>
  </defs>
  <rect width="1200" height="700" fill="url(#g)"/>
  <rect width="1200" height="700" fill="url(#sun)"/>
  <circle cx="1010" cy="120" r="80" fill="#9b5b2e" opacity=".18"/>
  <path d="M720 370 C720 300 790 300 790 230 L815 230 L815 372" fill="none" stroke="#9b5b2e" stroke-width="18" opacity=".65"/><circle cx="720" cy="374" r="25" fill="#9b5b2e" opacity=".65"/>
  <g><rect x="0" y="303" width="72" height="157" rx="8" fill="#1e4164" opacity="0.48"/><rect x="84" y="315" width="93" height="145" rx="8" fill="#1e4164" opacity="0.42"/><rect x="190" y="165" width="52" height="295" rx="8" fill="#1e4164" opacity="0.38"/><rect x="260" y="278" width="60" height="182" rx="8" fill="#1e4164" opacity="0.39"/><rect x="336" y="147" width="109" height="313" rx="8" fill="#1e4164" opacity="0.38"/><rect x="457" y="244" width="99" height="216" rx="8" fill="#1e4164" opacity="0.53"/><rect x="572" y="181" width="99" height="279" rx="8" fill="#1e4164" opacity="0.29"/><rect x="682" y="279" width="69" height="181" rx="8" fill="#1e4164" opacity="0.37"/><rect x="765" y="213" width="84" height="247" rx="8" fill="#1e4164" opacity="0.34"/><rect x="869" y="281" width="110" height="179" rx="8" fill="#1e4164" opacity="0.45"/><rect x="995" y="327" width="66" height="133" rx="8" fill="#1e4164" opacity="0.33"/><rect x="1077" y="323" width="50" height="137" rx="8" fill="#1e4164" opacity="0.32"/><rect x="1141" y="303" width="77" height="157" rx="8" fill="#1e4164" opacity="0.37"/></g>
  <g><rect x="12" y="325" width="8" height="10" rx="2" fill="white" opacity=".18"/><rect x="12" y="349" width="8" height="10" rx="2" fill="white" opacity=".18"/><rect x="12" y="373" width="8" height="10" rx="2" fill="white" opacity=".18"/><rect x="12" y="397" width="8" height="10" rx="2" fill="white" opacity=".18"/><rect x="12" y="421" width="8" height="10" rx="2" fill="white" opacity=".18"/><rect x="34" y="325" width="8" height="10" rx="2" fill="white" opacity=".18"/><rect x="34" y="349" width="8" height="10" rx="2" fill="white" opacity=".18"/><rect x="34" y="373" width="8" height="10" rx="2" fill="white" opacity=".18"/><rect x="34" y="397" width="8" height="10" rx="2" fill="white" opacity=".18"/><rect x="34" y="421" width="8" height="10" rx="2" fill="white" opacity=".18"/><rect x="56" y="325" width="8" height="10" rx="2" fill="white" opacity=".18"/><rect x="56" y="349" width="8" height="10" rx="2" fill="white" opacity=".18"/><rect x="56" y="373" width="8" height="10" rx="2" fill="white" opacity=".18"/><rect x="56" y="397" width="8" height="10" rx="2" fill="white" opacity=".18"/><rect x="56" y="421" width="8" height="10" rx="2" fill="white" opacity=".18"/><rect x="202" y="187" width="8" height="10" rx="2" fill="white" opacity=".18"/><rect x="202" y="211" width="8" height="10" rx="2" fill="white" opacity=".18"/><rect x="202" y="235" width="8" height="10" rx="2" fill="white" opacity=".18"/><rect x="202" y="259" width="8" height="10" rx="2" fill="white" opacity=".18"/><rect x="202" y="283" width="8" height="10" rx="2" fill="white" opacity=".18"/><rect x="224" y="187" width="8" height="10" rx="2" fill="white" opacity=".18"/><rect x="224" y="211" width="8" height="10" rx="2" fill="white" opacity=".18"/><rect x="224" y="235" width="8" height="10" rx="2" fill="white" opacity=".18"/><rect x="224" y="259" width="8" height="10" rx="2" fill="white" opacity=".18"/><rect x="224" y="283" width="8" height="10" rx="2" fill="white" opacity=".18"/><rect x="348" y="169" width="8" height="10" rx="2" fill="white" opacity=".18"/><rect x="348" y="193" width="8" height="10" rx="2" fill="white" opacity=".18"/><rect x="348" y="217" width="8" height="10" rx="2" fill="white" opacity=".18"/><rect x="348" y="241" width="8" height="10" rx="2" fill="white" opacity=".18"/><rect x="348" y="265" width="8" height="10" rx="2" fill="white" opacity=".18"/><rect x="370" y="169" width="8" height="10" rx="2" fill="white" opacity=".18"/><rect x="370" y="193" width="8" height="10" rx="2" fill="white" opacity=".18"/><rect x="370" y="217" width="8" height="10" rx="2" fill="white" opacity=".18"/><rect x="370" y="241" width="8" height="10" rx="2" fill="white" opacity=".18"/><rect x="370" y="265" width="8" height="10" rx="2" fill="white" opacity=".18"/><rect x="392" y="169" width="8" height="10" rx="2" fill="white" opacity=".18"/><rect x="392" y="193" width="8" height="10" rx="2" fill="white" opacity=".18"/><rect x="392" y="217" width="8" height="10" rx="2" fill="white" opacity=".18"/><rect x="392" y="241" width="8" height="10" rx="2" fill="white" opacity=".18"/><rect x="392" y="265" width="8" height="10" rx="2" fill="white" opacity=".18"/><rect x="584" y="203" width="8" height="10" rx="2" fill="white" opacity=".18"/><rect x="584" y="227" width="8" height="10" rx="2" fill="white" opacity=".18"/><rect x="584" y="251" width="8" height="10" rx="2" fill="white" opacity=".18"/><rect x="584" y="275" width="8" height="10" rx="2" fill="white" opacity=".18"/><rect x="584" y="299" width="8" height="10" rx="2" fill="white" opacity=".18"/><rect x="606" y="203" width="8" height="10" rx="2" fill="white" opacity=".18"/><rect x="606" y="227" width="8" height="10" rx="2" fill="white" opacity=".18"/><rect x="606" y="251" width="8" height="10" rx="2" fill="white" opacity=".18"/><rect x="606" y="275" width="8" height="10" rx="2" fill="white" opacity=".18"/><rect x="606" y="299" width="8" height="10" rx="2" fill="white" opacity=".18"/><rect x="628" y="203" width="8" height="10" rx="2" fill="white" opacity=".18"/><rect x="628" y="227" width="8" height="10" rx="2" fill="white" opacity=".18"/><rect x="628" y="251" width="8" height="10" rx="2" fill="white" opacity=".18"/><rect x="628" y="275" width="8" height="10" rx="2" fill="white" opacity=".18"/><rect x="628" y="299" width="8" height="10" rx="2" fill="white" opacity=".18"/><rect x="777" y="235" width="8" height="10" rx="2" fill="white" opacity=".18"/><rect x="777" y="259" width="8" height="10" rx="2" fill="white" opacity=".18"/><rect x="777" y="283" width="8" height="10" rx="2" fill="white" opacity=".18"/><rect x="777" y="307" width="8" height="10" rx="2" fill="white" opacity=".18"/><rect x="777" y="331" width="8" height="10" rx="2" fill="white" opacity=".18"/><rect x="799" y="235" width="8" height="10" rx="2" fill="white" opacity=".18"/><rect x="799" y="259" width="8" height="10" rx="2" fill="white" opacity=".18"/><rect x="799" y="283" width="8" height="10" rx="2" fill="white" opacity=".18"/><rect x="799" y="307" width="8" height="10" rx="2" fill="white" opacity=".18"/><rect x="799" y="331" width="8" height="10" rx="2" fill="white" opacity=".18"/><rect x="821" y="235" width="8" height="10" rx="2" fill="white" opacity=".18"/><rect x="821" y="259" width="8" height="10" rx="2" fill="white" opacity=".18"/><rect x="821" y="283" width="8" height="10" rx="2" fill="white" opacity=".18"/><rect x="821" y="307" width="8" height="10" rx="2" fill="white" opacity=".18"/><rect x="821" y="331" width="8" height="10" rx="2" fill="white" opacity=".18"/><rect x="1007" y="349" width="8" height="10" rx="2" fill="white" opacity=".18"/><rect x="1007" y="373" width="8" height="10" rx="2" fill="white" opacity=".18"/><rect x="1007" y="397" width="8" height="10" rx="2" fill="white" opacity=".18"/><rect x="1007" y="421" width="8" height="10" rx="2" fill="white" opacity=".18"/><rect x="1029" y="349" width="8" height="10" rx="2" fill="white" opacity=".18"/><rect x="1029" y="373" width="8" height="10" rx="2" fill="white" opacity=".18"/><rect x="1029" y="397" width="8" height="10" rx="2" fill="white" opacity=".18"/><rect x="1029" y="421" width="8" height="10" rx="2" fill="white" opacity=".18"/><rect x="1153" y="325" width="8" height="10" rx="2" fill="white" opacity=".18"/><rect x="1153" y="349" width="8" height="10" rx="2" fill="white" opacity=".18"/><rect x="1153" y="373" width="8" height="10" rx="2" fill="white" opacity=".18"/><rect x="1153" y="397" width="8" height="10" rx="2" fill="white" opacity=".18"/><rect x="1153" y="421" width="8" height="10" rx="2" fill="white" opacity=".18"/><rect x="1175" y="325" width="8" height="10" rx="2" fill="white" opacity=".18"/><rect x="1175" y="349" width="8" height="10" rx="2" fill="white" opacity=".18"/><rect x="1175" y="373" width="8" height="10" rx="2" fill="white" opacity=".18"/><rect x="1175" y="397" width="8" height="10" rx="2" fill="white" opacity=".18"/><rect x="1175" y="421" width="8" height="10" rx="2" fill="white" opacity=".18"/><rect x="1197" y="325" width="8" height="10" rx="2" fill="white" opacity=".18"/><rect x="1197" y="349" width="8" height="10" rx="2" fill="white" opacity=".18"/><rect x="1197" y="373" width="8" height="10" rx="2" fill="white" opacity=".18"/><rect x="1197" y="397" width="8" height="10" rx="2" fill="white" opacity=".18"/><rect x="1197" y="421" width="8" height="10" rx="2" fill="white" opacity=".18"/></g>
  <rect x="0" y="452" width="1200" height="248" fill="#1e4164" opacity=".06"/>
  <text x="60" y="625" font-family="Inter, Arial, sans-serif" font-size="34" font-weight="700" fill="#1e4164" opacity=".20">Nashville</text>
</svg>