<svg xmlns="http://www.w3.org/2000/svg" viewBox="0 0 1200 700" preserveAspectRatio="xMidYMid slice">
  <defs>
    <linearGradient id="g" x1="0" y1="0" x2="1" y2="1">
      <stop offset="0" stop-color="#fff1df"/>
      <stop offset="0.55" stop-color="#ffffff"/>
      <stop offset="1" stop-color="#d9642a" stop-opacity=".30"/>
    </linearGradient>
    <radialGradient id="sun" cx="78%" cy="18%" r="42%"><stop offset="0" stop-color="#d9642a" stop-opacity=".38"/><stop offset="1" stop-color="#d9642a" stop-opacity="0"/></radialGradient>
  </defs>
  <rect width="1200" height="700" fill="url(#g)"/>
  <rect width="1200" height="700" fill="url(#sun)"/>
  <circle cx="1010" cy="120" r="80" fill="#d9642a" opacity=".18"/>
  <path d="M0 390 L130 230 L230 345 L360 170 L520 370 L700 210 L830 360 L970 190 L1200 390 Z" fill="#d9642a" opacity=".28"/><path d="M0 410 L180 300 L330 395 L540 260 L760 405 L940 285 L1200 415 Z" fill="#873e2a" opacity=".38"/>
  <g><rect x="0" y="297" width="59" height="163" rx="8" fill="#873e2a" opacity="0.32"/><rect x="79" y="294" width="68" height="166" rx="8" fill="#873e2a" opacity="0.30"/><rect x="160" y="300" width="107" height="160" rx="8" fill="#873e2a" opacity="0.33"/><rect x="287" y="274" width="93" height="186" rx="8" fill="#873e2a" opacity="0.51"/><rect x="398" y="167" width="83" height="293" rx="8" fill="#873e2a" opacity="0.48"/><rect x="494" y="301" width="82" height="159" rx="8" fill="#873e2a" opacity="0.43"/><rect x="585" y="151" width="52" height="309" rx="8" fill="#873e2a" opacity="0.39"/><rect x="656" y="230" width="55" height="230" rx="8" fill="#873e2a" opacity="0.52"/><rect x="729" y="330" width="80" height="130" rx="8" fill="#873e2a" opacity="0.40"/><rect x="825" y="189" width="106" height="271" rx="8" fill="#873e2a" opacity="0.43"/><rect x="942" y="186" width="78" height="274" rx="8" fill="#873e2a" opacity="0.53"/><rect x="1036" y="270" width="68" height="190" rx="8" fill="#873e2a" opacity="0.55"/><rect x="1116" y="305" width="60" height="155" rx="8" fill="#873e2a" opacity="0.46"/><rect x="1184" y="152" width="89" height="308" rx="8" fill="#873e2a" opacity="0.32"/></g>
  <g><rect x="12" y="319" width="8" height="10" rx="2" fill="white" opacity=".18"/><rect x="12" y="343" width="8" height="10" rx="2" fill="white" opacity=".18"/><rect x="12" y="367" width="8" height="10" rx="2" fill="white" opacity=".18"/><rect x="12" y="391" width="8" height="10" rx="2" fill="white" opacity=".18"/><rect x="12" y="415" width="8" height="10" rx="2" fill="white" opacity=".18"/><rect x="34" y="319" width="8" height="10" rx="2" fill="white" opacity=".18"/><rect x="34" y="343" width="8" height="10" rx="2" fill="white" opacity=".18"/><rect x="34" y="367" width="8" height="10" rx="2" fill="white" opacity=".18"/><rect x="34" y="391" width="8" height="10" rx="2" fill="white" opacity=".18"/><rect x="34" y="415" width="8" height="10" rx="2" fill="white" opacity=".18"/><rect x="172" y="322" width="8" height="10" rx="2" fill="white" opacity=".18"/><rect x="172" y="346" width="8" height="10" rx="2" fill="white" opacity=".18"/><rect x="172" y="370" width="8" height="10" rx="2" fill="white" opacity=".18"/><rect x="172" y="394" width="8" height="10" rx="2" fill="white" opacity=".18"/><rect x="172" y="418" width="8" height="10" rx="2" fill="white" opacity=".18"/><rect x="194" y="322" width="8" height="10" rx="2" fill="white" opacity=".18"/><rect x="194" y="346" width="8" height="10" rx="2" fill="white" opacity=".18"/><rect x="194" y="370" width="8" height="10" rx="2" fill="white" opacity=".18"/><rect x="194" y="394" width="8" height="10" rx="2" fill="white" opacity=".18"/><rect x="194" y="418" width="8" height="10" rx="2" fill="white" opacity=".18"/><rect x="216" y="322" width="8" height="10" rx="2" fill="white" opacity=".18"/><rect x="216" y="346" width="8" height="10" rx="2" fill="white" opacity=".18"/><rect x="216" y="370" width="8" height="10" rx="2" fill="white" opacity=".18"/><rect x="216" y="394" width="8" height="10" rx="2" fill="white" opacity=".18"/><rect x="216" y="418" width="8" height="10" rx="2" fill="white" opacity=".18"/><rect x="410" y="189" width="8" height="10" rx="2" fill="white" opacity=".18"/><rect x="410" y="213" width="8" height="10" rx="2" fill="white" opacity=".18"/><rect x="410" y="237" width="8" height="10" rx="2" fill="white" opacity=".18"/><rect x="410" y="261" width="8" height="10" rx="2" fill="white" opacity=".18"/><rect x="410" y="285" width="8" height="10" rx="2" fill="white" opacity=".18"/><rect x="432" y="189" width="8" height="10" rx="2" fill="white" opacity=".18"/><rect x="432" y="213" width="8" height="10" rx="2" fill="white" opacity=".18"/><rect x="432" y="237" width="8" height="10" rx="2" fill="white" opacity=".18"/><rect x="432" y="261" width="8" height="10" rx="2" fill="white" opacity=".18"/><rect x="432" y="285" width="8" height="10" rx="2" fill="white" opacity=".18"/><rect x="454" y="189" width="8" height="10" rx="2" fill="white" opacity=".18"/><rect x="454" y="213" width="8" height="10" rx="2" fill="white" opacity=".18"/><rect x="454" y="237" width="8" height="10" rx="2" fill="white" opacity=".18"/><rect x="454" y="261" width="8" height="10" rx="2" fill="white" opacity=".18"/><rect x="454" y="285" width="8" height="10" rx="2" fill="white" opacity=".18"/><rect x="597" y="173" width="8" height="10" rx="2" fill="white" opacity=".18"/><rect x="597" y="197" width="8" height="10" rx="2" fill="white" opacity=".18"/><rect x="597" y="221" width="8" height="10" rx="2" fill="white" opacity=".18"/><rect x="597" y="245" width="8" height="10" rx="2" fill="white" opacity=".18"/><rect x="597" y="269" width="8" height="10" rx="2" fill="white" opacity=".18"/><rect x="619" y="173" width="8" height="10" rx="2" fill="white" opacity=".18"/><rect x="619" y="197" width="8" height="10" rx="2" fill="white" opacity=".18"/><rect x="619" y="221" width="8" height="10" rx="2" fill="white" opacity=".18"/><rect x="619" y="245" width="8" height="10" rx="2" fill="white" opacity=".18"/><rect x="619" y="269" width="8" height="10" rx="2" fill="white" opacity=".18"/><rect x="741" y="352" width="8" height="10" rx="2" fill="white" opacity=".18"/><rect x="741" y="376" width="8" height="10" rx="2" fill="white" opacity=".18"/><rect x="741" y="400" width="8" height="10" rx="2" fill="white" opacity=".18"/><rect x="741" y="424" width="8" height="10" rx="2" fill="white" opacity=".18"/><rect x="763" y="352" width="8" height="10" rx="2" fill="white" opacity=".18"/><rect x="763" y="376" width="8" height="10" rx="2" fill="white" opacity=".18"/><rect x="763" y="400" width="8" height="10" rx="2" fill="white" opacity=".18"/><rect x="763" y="424" width="8" height="10" rx="2" fill="white" opacity=".18"/><rect x="785" y="352" width="8" height="10" rx="2" fill="white" opacity=".18"/><rect x="785" y="376" width="8" height="10" rx="2" fill="white" opacity=".18"/><rect x="785" y="400" width="8" height="10" rx="2" fill="white" opacity=".18"/><rect x="785" y="424" width="8" height="10" rx="2" fill="white" opacity=".18"/><rect x="954" y="208" width="8" height="10" rx="2" fill="white" opacity=".18"/><rect x="954" y="232" width="8" height="10" rx="2" fill="white" opacity=".18"/><rect x="954" y="256" width="8" height="10" rx="2" fill="white" opacity=".18"/><rect x="954" y="280" width="8" height="10" rx="2" fill="white" opacity=".18"/><rect x="954" y="304" width="8" height="10" rx="2" fill="white" opacity=".18"/><rect x="976" y="208" width="8" height="10" rx="2" fill="white" opacity=".18"/><rect x="976" y="232" width="8" height="10" rx="2" fill="white" opacity=".18"/><rect x="976" y="256" width="8" height="10" rx="2" fill="white" opacity=".18"/><rect x="976" y="280" width="8" height="10" rx="2" fill="white" opacity=".18"/><rect x="976" y="304" width="8" height="10" rx="2" fill="white" opacity=".18"/><rect x="998" y="208" width="8" height="10" rx="2" fill="white" opacity=".18"/><rect x="998" y="232" width="8" height="10" rx="2" fill="white" opacity=".18"/><rect x="998" y="256" width="8" height="10" rx="2" fill="white" opacity=".18"/><rect x="998" y="280" width="8" height="10" rx="2" fill="white" opacity=".18"/><rect x="998" y="304" width="8" height="10" rx="2" fill="white" opacity=".18"/><rect x="1128" y="327" width="8" height="10" rx="2" fill="white" opacity=".18"/><rect x="1128" y="351" width="8" height="10" rx="2" fill="white" opacity=".18"/><rect x="1128" y="375" width="8" height="10" rx="2" fill="white" opacity=".18"/><rect x="1128" y="399" width="8" height="10" rx="2" fill="white" opacity=".18"/><rect x="1128" y="423" width="8" height="10" rx="2" fill="white" opacity=".18"/><rect x="1150" y="327" width="8" height="10" rx="2" fill="white" opacity=".18"/><rect x="1150" y="351" width="8" height="10" rx="2" fill="white" opacity=".18"/><rect x="1150" y="375" width="8" height="10" rx="2" fill="white" opacity=".18"/><rect x="1150" y="399" width="8" height="10" rx="2" fill="white" opacity=".18"/><rect x="1150" y="423" width="8" height="10" rx="2" fill="white" opacity=".18"/></g>
  <rect x="0" y="452" width="1200" height="248" fill="#873e2a" opacity=".06"/>
  <text x="60" y="625" font-family="Inter, Arial, sans-serif" font-size="34" font-weight="700" fill="#873e2a" opacity=".20">Phoenix</text>
</svg>