<svg xmlns="http://www.w3.org/2000/svg" viewBox="0 0 1200 700" preserveAspectRatio="xMidYMid slice">
  <defs>
    <linearGradient id="g" x1="0" y1="0" x2="1" y2="1">
      <stop offset="0" stop-color="#eef8f2"/>
      <stop offset="0.55" stop-color="#ffffff"/>
      <stop offset="1" stop-color="#2f6f55" stop-opacity=".30"/>
    </linearGradient>
    <radialGradient id="sun" cx="78%" cy="18%" r="42%"><stop offset="0" stop-color="#2f6f55" stop-opacity=".38"/><stop offset="1" stop-color="#2f6f55" stop-opacity="0"/></radialGradient>
  </defs>
  <rect width="1200" height="700" fill="url(#g)"/>
  <rect width="1200" height="700" fill="url(#sun)"/>
  <circle cx="1010" cy="120" r="80" fill="#2f6f55" opacity=".18"/>
  <path d="M0 390 L130 230 L230 345 L360 170 L520 370 L700 210 L830 360 L970 190 L1200 390 Z" fill="#2f6f55" opacity=".28"/><path d="M0 410 L180 300 L330 395 L540 260 L760 405 L940 285 L1200 415 Z" fill="#8fb7a1" opacity=".38"/>
  <g><rect x="0" y="314" width="109" height="146" rx="8" fill="#8fb7a1" opacity="0.33"/><rect x="119" y="318" width="90" height="142" rx="8" fill="#8fb7a1" opacity="0.54"/><rect x="227" y="315" width="61" height="145" rx="8" fill="#8fb7a1" opacity="0.41"/><rect x="301" y="281" width="65" height="179" rx="8" fill="#8fb7a1" opacity="0.46"/><rect x="376" y="287" width="101" height="173" rx="8" fill="#8fb7a1" opacity="0.39"/><rect x="488" y="317" width="56" height="143" rx="8" fill="#8fb7a1" opacity="0.49"/><rect x="554" y="254" width="101" height="206" rx="8" fill="#8fb7a1" opacity="0.31"/><rect x="667" y="338" width="50" height="122" rx="8" fill="#8fb7a1" opacity="0.39"/><rect x="731" y="322" width="110" height="138" rx="8" fill="#8fb7a1" opacity="0.50"/><rect x="859" y="151" width="51" height="309" rx="8" fill="#8fb7a1" opacity="0.42"/><rect x="919" y="143" width="110" height="317" rx="8" fill="#8fb7a1" opacity="0.36"/><rect x="1040" y="226" width="56" height="234" rx="8" fill="#8fb7a1" opacity="0.37"/><rect x="1114" y="281" width="63" height="179" rx="8" fill="#8fb7a1" opacity="0.43"/><rect x="1194" y="149" width="63" height="311" rx="8" fill="#8fb7a1" opacity="0.54"/></g>
  <g><rect x="12" y="336" width="8" height="10" rx="2" fill="white" opacity=".18"/><rect x="12" y="360" width="8" height="10" rx="2" fill="white" opacity=".18"/><rect x="12" y="384" width="8" height="10" rx="2" fill="white" opacity=".18"/><rect x="12" y="408" width="8" height="10" rx="2" fill="white" opacity=".18"/><rect x="12" y="432" width="8" height="10" rx="2" fill="white" opacity=".18"/><rect x="34" y="336" width="8" height="10" rx="2" fill="white" opacity=".18"/><rect x="34" y="360" width="8" height="10" rx="2" fill="white" opacity=".18"/><rect x="34" y="384" width="8" height="10" rx="2" fill="white" opacity=".18"/><rect x="34" y="408" width="8" height="10" rx="2" fill="white" opacity=".18"/><rect x="34" y="432" width="8" height="10" rx="2" fill="white" opacity=".18"/><rect x="56" y="336" width="8" height="10" rx="2" fill="white" opacity=".18"/><rect x="56" y="360" width="8" height="10" rx="2" fill="white" opacity=".18"/><rect x="56" y="384" width="8" height="10" rx="2" fill="white" opacity=".18"/><rect x="56" y="408" width="8" height="10" rx="2" fill="white" opacity=".18"/><rect x="56" y="432" width="8" height="10" rx="2" fill="white" opacity=".18"/><rect x="239" y="337" width="8" height="10" rx="2" fill="white" opacity=".18"/><rect x="239" y="361" width="8" height="10" rx="2" fill="white" opacity=".18"/><rect x="239" y="385" width="8" height="10" rx="2" fill="white" opacity=".18"/><rect x="239" y="409" width="8" height="10" rx="2" fill="white" opacity=".18"/><rect x="239" y="433" width="8" height="10" rx="2" fill="white" opacity=".18"/><rect x="261" y="337" width="8" height="10" rx="2" fill="white" opacity=".18"/><rect x="261" y="361" width="8" height="10" rx="2" fill="white" opacity=".18"/><rect x="261" y="385" width="8" height="10" rx="2" fill="white" opacity=".18"/><rect x="261" y="409" width="8" height="10" rx="2" fill="white" opacity=".18"/><rect x="261" y="433" width="8" height="10" rx="2" fill="white" opacity=".18"/><rect x="388" y="309" width="8" height="10" rx="2" fill="white" opacity=".18"/><rect x="388" y="333" width="8" height="10" rx="2" fill="white" opacity=".18"/><rect x="388" y="357" width="8" height="10" rx="2" fill="white" opacity=".18"/><rect x="388" y="381" width="8" height="10" rx="2" fill="white" opacity=".18"/><rect x="388" y="405" width="8" height="10" rx="2" fill="white" opacity=".18"/><rect x="410" y="309" width="8" height="10" rx="2" fill="white" opacity=".18"/><rect x="410" y="333" width="8" height="10" rx="2" fill="white" opacity=".18"/><rect x="410" y="357" width="8" height="10" rx="2" fill="white" opacity=".18"/><rect x="410" y="381" width="8" height="10" rx="2" fill="white" opacity=".18"/><rect x="410" y="405" width="8" height="10" rx="2" fill="white" opacity=".18"/><rect x="432" y="309" width="8" height="10" rx="2" fill="white" opacity=".18"/><rect x="432" y="333" width="8" height="10" rx="2" fill="white" opacity=".18"/><rect x="432" y="357" width="8" height="10" rx="2" fill="white" opacity=".18"/><rect x="432" y="381" width="8" height="10" rx="2" fill="white" opacity=".18"/><rect x="432" y="405" width="8" height="10" rx="2" fill="white" opacity=".18"/><rect x="566" y="276" width="8" height="10" rx="2" fill="white" opacity=".18"/><rect x="566" y="300" width="8" height="10" rx="2" fill="white" opacity=".18"/><rect x="566" y="324" width="8" height="10" rx="2" fill="white" opacity=".18"/><rect x="566" y="348" width="8" height="10" rx="2" fill="white" opacity=".18"/><rect x="566" y="372" width="8" height="10" rx="2" fill="white" opacity=".18"/><rect x="588" y="276" width="8" height="10" rx="2" fill="white" opacity=".18"/><rect x="588" y="300" width="8" height="10" rx="2" fill="white" opacity=".18"/><rect x="588" y="324" width="8" height="10" rx="2" fill="white" opacity=".18"/><rect x="588" y="348" width="8" height="10" rx="2" fill="white" opacity=".18"/><rect x="588" y="372" width="8" height="10" rx="2" fill="white" opacity=".18"/><rect x="610" y="276" width="8" height="10" rx="2" fill="white" opacity=".18"/><rect x="610" y="300" width="8" height="10" rx="2" fill="white" opacity=".18"/><rect x="610" y="324" width="8" height="10" rx="2" fill="white" opacity=".18"/><rect x="610" y="348" width="8" height="10" rx="2" fill="white" opacity=".18"/><rect x="610" y="372" width="8" height="10" rx="2" fill="white" opacity=".18"/><rect x="743" y="344" width="8" height="10" rx="2" fill="white" opacity=".18"/><rect x="743" y="368" width="8" height="10" rx="2" fill="white" opacity=".18"/><rect x="743" y="392" width="8" height="10" rx="2" fill="white" opacity=".18"/><rect x="743" y="416" width="8" height="10" rx="2" fill="white" opacity=".18"/><rect x="765" y="344" width="8" height="10" rx="2" fill="white" opacity=".18"/><rect x="765" y="368" width="8" height="10" rx="2" fill="white" opacity=".18"/><rect x="765" y="392" width="8" height="10" rx="2" fill="white" opacity=".18"/><rect x="765" y="416" width="8" height="10" rx="2" fill="white" opacity=".18"/><rect x="787" y="344" width="8" height="10" rx="2" fill="white" opacity=".18"/><rect x="787" y="368" width="8" height="10" rx="2" fill="white" opacity=".18"/><rect x="787" y="392" width="8" height="10" rx="2" fill="white" opacity=".18"/><rect x="787" y="416" width="8" height="10" rx="2" fill="white" opacity=".18"/><rect x="931" y="165" width="8" height="10" rx="2" fill="white" opacity=".18"/><rect x="931" y="189" width="8" height="10" rx="2" fill="white" opacity=".18"/><rect x="931" y="213" width="8" height="10" rx="2" fill="white" opacity=".18"/><rect x="931" y="237" width="8" height="10" rx="2" fill="white" opacity=".18"/><rect x="931" y="261" width="8" height="10" rx="2" fill="white" opacity=".18"/><rect x="953" y="165" width="8" height="10" rx="2" fill="white" opacity=".18"/><rect x="953" y="189" width="8" height="10" rx="2" fill="white" opacity=".18"/><rect x="953" y="213" width="8" height="10" rx="2" fill="white" opacity=".18"/><rect x="953" y="237" width="8" height="10" rx="2" fill="white" opacity=".18"/><rect x="953" y="261" width="8" height="10" rx="2" fill="white" opacity=".18"/><rect x="975" y="165" width="8" height="10" rx="2" fill="white" opacity=".18"/><rect x="975" y="189" width="8" height="10" rx="2" fill="white" opacity=".18"/><rect x="975" y="213" width="8" height="10" rx="2" fill="white" opacity=".18"/><rect x="975" y="237" width="8" height="10" rx="2" fill="white" opacity=".18"/><rect x="975" y="261" width="8" height="10" rx="2" fill="white" opacity=".18"/><rect x="1126" y="303" width="8" height="10" rx="2" fill="white" opacity=".18"/><rect x="1126" y="327" width="8" height="10" rx="2" fill="white" opacity=".18"/><rect x="1126" y="351" width="8" height="10" rx="2" fill="white" opacity=".18"/><rect x="1126" y="375" width="8" height="10" rx="2" fill="white" opacity=".18"/><rect x="1126" y="399" width="8" height="10" rx="2" fill="white" opacity=".18"/><rect x="1148" y="303" width="8" height="10" rx="2" fill="white" opacity=".18"/><rect x="1148" y="327" width="8" height="10" rx="2" fill="white" opacity=".18"/><rect x="1148" y="351" width="8" height="10" rx="2" fill="white" opacity=".18"/><rect x="1148" y="375" width="8" height="10" rx="2" fill="white" opacity=".18"/><rect x="1148" y="399" width="8" height="10" rx="2" fill="white" opacity=".18"/></g>
  <rect x="0" y="452" width="1200" height="248" fill="#8fb7a1" opacity=".06"/>
  <text x="60" y="625" font-family="Inter, Arial, sans-serif" font-size="34" font-weight="700" fill="#8fb7a1" opacity=".20">Portland</text>
</svg>