<svg xmlns="http://www.w3.org/2000/svg" viewBox="0 0 1200 700" preserveAspectRatio="xMidYMid slice">
  <defs>
    <linearGradient id="g" x1="0" y1="0" x2="1" y2="1">
      <stop offset="0" stop-color="#eef6f7"/>
      <stop offset="0.55" stop-color="#ffffff"/>
      <stop offset="1" stop-color="#527f8f" stop-opacity=".30"/>
    </linearGradient>
    <radialGradient id="sun" cx="78%" cy="18%" r="42%"><stop offset="0" stop-color="#527f8f" stop-opacity=".38"/><stop offset="1" stop-color="#527f8f" stop-opacity="0"/></radialGradient>
  </defs>
  <rect width="1200" height="700" fill="url(#g)"/>
  <rect width="1200" height="700" fill="url(#sun)"/>
  <circle cx="1010" cy="120" r="80" fill="#527f8f" opacity=".18"/>
  <path d="M0 390 L130 230 L230 345 L360 170 L520 370 L700 210 L830 360 L970 190 L1200 390 Z" fill="#527f8f" opacity=".28"/><path d="M0 410 L180 300 L330 395 L540 260 L760 405 L940 285 L1200 415 Z" fill="#8ab17d" opacity=".38"/>
  <g><rect x="0" y="211" width="58" height="249" rx="8" fill="#8ab17d" opacity="0.38"/><rect x="70" y="258" width="97" height="202" rx="8" fill="#8ab17d" opacity="0.32"/><rect x="181" y="203" width="72" height="257" rx="8" fill="#8ab17d" opacity="0.39"/><rect x="272" y="265" width="62" height="195" rx="8" fill="#8ab17d" opacity="0.42"/><rect x="346" y="182" width="62" height="278" rx="8" fill="#8ab17d" opacity="0.36"/><rect x="420" y="261" width="57" height="199" rx="8" fill="#8ab17d" opacity="0.28"/><rect x="487" y="331" width="102" height="129" rx="8" fill="#8ab17d" opacity="0.51"/><rect x="607" y="223" width="108" height="237" rx="8" fill="#8ab17d" opacity="0.46"/><rect x="731" y="209" width="78" height="251" rx="8" fill="#8ab17d" opacity="0.30"/><rect x="828" y="240" width="109" height="220" rx="8" fill="#8ab17d" opacity="0.51"/><rect x="957" y="208" width="96" height="252" rx="8" fill="#8ab17d" opacity="0.40"/><rect x="1073" y="320" width="54" height="140" rx="8" fill="#8ab17d" opacity="0.47"/><rect x="1140" y="231" width="106" height="229" rx="8" fill="#8ab17d" opacity="0.31"/></g>
  <g><rect x="12" y="233" width="8" height="10" rx="2" fill="white" opacity=".18"/><rect x="12" y="257" width="8" height="10" rx="2" fill="white" opacity=".18"/><rect x="12" y="281" width="8" height="10" rx="2" fill="white" opacity=".18"/><rect x="12" y="305" width="8" height="10" rx="2" fill="white" opacity=".18"/><rect x="12" y="329" width="8" height="10" rx="2" fill="white" opacity=".18"/><rect x="34" y="233" width="8" height="10" rx="2" fill="white" opacity=".18"/><rect x="34" y="257" width="8" height="10" rx="2" fill="white" opacity=".18"/><rect x="34" y="281" width="8" height="10" rx="2" fill="white" opacity=".18"/><rect x="34" y="305" width="8" height="10" rx="2" fill="white" opacity=".18"/><rect x="34" y="329" width="8" height="10" rx="2" fill="white" opacity=".18"/><rect x="193" y="225" width="8" height="10" rx="2" fill="white" opacity=".18"/><rect x="193" y="249" width="8" height="10" rx="2" fill="white" opacity=".18"/><rect x="193" y="273" width="8" height="10" rx="2" fill="white" opacity=".18"/><rect x="193" y="297" width="8" height="10" rx="2" fill="white" opacity=".18"/><rect x="193" y="321" width="8" height="10" rx="2" fill="white" opacity=".18"/><rect x="215" y="225" width="8" height="10" rx="2" fill="white" opacity=".18"/><rect x="215" y="249" width="8" height="10" rx="2" fill="white" opacity=".18"/><rect x="215" y="273" width="8" height="10" rx="2" fill="white" opacity=".18"/><rect x="215" y="297" width="8" height="10" rx="2" fill="white" opacity=".18"/><rect x="215" y="321" width="8" height="10" rx="2" fill="white" opacity=".18"/><rect x="237" y="225" width="8" height="10" rx="2" fill="white" opacity=".18"/><rect x="237" y="249" width="8" height="10" rx="2" fill="white" opacity=".18"/><rect x="237" y="273" width="8" height="10" rx="2" fill="white" opacity=".18"/><rect x="237" y="297" width="8" height="10" rx="2" fill="white" opacity=".18"/><rect x="237" y="321" width="8" height="10" rx="2" fill="white" opacity=".18"/><rect x="358" y="204" width="8" height="10" rx="2" fill="white" opacity=".18"/><rect x="358" y="228" width="8" height="10" rx="2" fill="white" opacity=".18"/><rect x="358" y="252" width="8" height="10" rx="2" fill="white" opacity=".18"/><rect x="358" y="276" width="8" height="10" rx="2" fill="white" opacity=".18"/><rect x="358" y="300" width="8" height="10" rx="2" fill="white" opacity=".18"/><rect x="380" y="204" width="8" height="10" rx="2" fill="white" opacity=".18"/><rect x="380" y="228" width="8" height="10" rx="2" fill="white" opacity=".18"/><rect x="380" y="252" width="8" height="10" rx="2" fill="white" opacity=".18"/><rect x="380" y="276" width="8" height="10" rx="2" fill="white" opacity=".18"/><rect x="380" y="300" width="8" height="10" rx="2" fill="white" opacity=".18"/><rect x="499" y="353" width="8" height="10" rx="2" fill="white" opacity=".18"/><rect x="499" y="377" width="8" height="10" rx="2" fill="white" opacity=".18"/><rect x="499" y="401" width="8" height="10" rx="2" fill="white" opacity=".18"/><rect x="499" y="425" width="8" height="10" rx="2" fill="white" opacity=".18"/><rect x="521" y="353" width="8" height="10" rx="2" fill="white" opacity=".18"/><rect x="521" y="377" width="8" height="10" rx="2" fill="white" opacity=".18"/><rect x="521" y="401" width="8" height="10" rx="2" fill="white" opacity=".18"/><rect x="521" y="425" width="8" height="10" rx="2" fill="white" opacity=".18"/><rect x="543" y="353" width="8" height="10" rx="2" fill="white" opacity=".18"/><rect x="543" y="377" width="8" height="10" rx="2" fill="white" opacity=".18"/><rect x="543" y="401" width="8" height="10" rx="2" fill="white" opacity=".18"/><rect x="543" y="425" width="8" height="10" rx="2" fill="white" opacity=".18"/><rect x="743" y="231" width="8" height="10" rx="2" fill="white" opacity=".18"/><rect x="743" y="255" width="8" height="10" rx="2" fill="white" opacity=".18"/><rect x="743" y="279" width="8" height="10" rx="2" fill="white" opacity=".18"/><rect x="743" y="303" width="8" height="10" rx="2" fill="white" opacity=".18"/><rect x="743" y="327" width="8" height="10" rx="2" fill="white" opacity=".18"/><rect x="765" y="231" width="8" height="10" rx="2" fill="white" opacity=".18"/><rect x="765" y="255" width="8" height="10" rx="2" fill="white" opacity=".18"/><rect x="765" y="279" width="8" height="10" rx="2" fill="white" opacity=".18"/><rect x="765" y="303" width="8" height="10" rx="2" fill="white" opacity=".18"/><rect x="765" y="327" width="8" height="10" rx="2" fill="white" opacity=".18"/><rect x="787" y="231" width="8" height="10" rx="2" fill="white" opacity=".18"/><rect x="787" y="255" width="8" height="10" rx="2" fill="white" opacity=".18"/><rect x="787" y="279" width="8" height="10" rx="2" fill="white" opacity=".18"/><rect x="787" y="303" width="8" height="10" rx="2" fill="white" opacity=".18"/><rect x="787" y="327" width="8" height="10" rx="2" fill="white" opacity=".18"/><rect x="969" y="230" width="8" height="10" rx="2" fill="white" opacity=".18"/><rect x="969" y="254" width="8" height="10" rx="2" fill="white" opacity=".18"/><rect x="969" y="278" width="8" height="10" rx="2" fill="white" opacity=".18"/><rect x="969" y="302" width="8" height="10" rx="2" fill="white" opacity=".18"/><rect x="969" y="326" width="8" height="10" rx="2" fill="white" opacity=".18"/><rect x="991" y="230" width="8" height="10" rx="2" fill="white" opacity=".18"/><rect x="991" y="254" width="8" height="10" rx="2" fill="white" opacity=".18"/><rect x="991" y="278" width="8" height="10" rx="2" fill="white" opacity=".18"/><rect x="991" y="302" width="8" height="10" rx="2" fill="white" opacity=".18"/><rect x="991" y="326" width="8" height="10" rx="2" fill="white" opacity=".18"/><rect x="1013" y="230" width="8" height="10" rx="2" fill="white" opacity=".18"/><rect x="1013" y="254" width="8" height="10" rx="2" fill="white" opacity=".18"/><rect x="1013" y="278" width="8" height="10" rx="2" fill="white" opacity=".18"/><rect x="1013" y="302" width="8" height="10" rx="2" fill="white" opacity=".18"/><rect x="1013" y="326" width="8" height="10" rx="2" fill="white" opacity=".18"/><rect x="1152" y="253" width="8" height="10" rx="2" fill="white" opacity=".18"/><rect x="1152" y="277" width="8" height="10" rx="2" fill="white" opacity=".18"/><rect x="1152" y="301" width="8" height="10" rx="2" fill="white" opacity=".18"/><rect x="1152" y="325" width="8" height="10" rx="2" fill="white" opacity=".18"/><rect x="1152" y="349" width="8" height="10" rx="2" fill="white" opacity=".18"/><rect x="1174" y="253" width="8" height="10" rx="2" fill="white" opacity=".18"/><rect x="1174" y="277" width="8" height="10" rx="2" fill="white" opacity=".18"/><rect x="1174" y="301" width="8" height="10" rx="2" fill="white" opacity=".18"/><rect x="1174" y="325" width="8" height="10" rx="2" fill="white" opacity=".18"/><rect x="1174" y="349" width="8" height="10" rx="2" fill="white" opacity=".18"/><rect x="1196" y="253" width="8" height="10" rx="2" fill="white" opacity=".18"/><rect x="1196" y="277" width="8" height="10" rx="2" fill="white" opacity=".18"/><rect x="1196" y="301" width="8" height="10" rx="2" fill="white" opacity=".18"/><rect x="1196" y="325" width="8" height="10" rx="2" fill="white" opacity=".18"/><rect x="1196" y="349" width="8" height="10" rx="2" fill="white" opacity=".18"/></g>
  <rect x="0" y="452" width="1200" height="248" fill="#8ab17d" opacity=".06"/>
  <text x="60" y="625" font-family="Inter, Arial, sans-serif" font-size="34" font-weight="700" fill="#8ab17d" opacity=".20">Salt Lake City</text>
</svg>