<svg xmlns="http://www.w3.org/2000/svg" viewBox="0 0 1200 700" preserveAspectRatio="xMidYMid slice">
  <defs>
    <linearGradient id="g" x1="0" y1="0" x2="1" y2="1">
      <stop offset="0" stop-color="#edf8ff"/>
      <stop offset="0.55" stop-color="#ffffff"/>
      <stop offset="1" stop-color="#2f83b8" stop-opacity=".30"/>
    </linearGradient>
    <radialGradient id="sun" cx="78%" cy="18%" r="42%"><stop offset="0" stop-color="#2f83b8" stop-opacity=".38"/><stop offset="1" stop-color="#2f83b8" stop-opacity="0"/></radialGradient>
  </defs>
  <rect width="1200" height="700" fill="url(#g)"/>
  <rect width="1200" height="700" fill="url(#sun)"/>
  <circle cx="1010" cy="120" r="80" fill="#2f83b8" opacity=".18"/>
  <path d="M0 500 C200 470 350 535 600 500 C830 465 1000 525 1200 490 L1200 700 L0 700 Z" fill="#2f83b8" opacity=".25"/><path d="M115 430 C130 360 165 330 210 315 C180 350 158 388 150 445" stroke="#f5ad56" stroke-width="12" fill="none" opacity=".58"/><path d="M210 315 C170 300 145 305 105 335" stroke="#f5ad56" stroke-width="10" fill="none" opacity=".58"/>
  <g><rect x="0" y="140" width="59" height="320" rx="8" fill="#f5ad56" opacity="0.48"/><rect x="78" y="195" width="65" height="265" rx="8" fill="#f5ad56" opacity="0.44"/><rect x="160" y="239" width="83" height="221" rx="8" fill="#f5ad56" opacity="0.36"/><rect x="255" y="285" width="76" height="175" rx="8" fill="#f5ad56" opacity="0.47"/><rect x="339" y="234" width="74" height="226" rx="8" fill="#f5ad56" opacity="0.33"/><rect x="431" y="210" width="71" height="250" rx="8" fill="#f5ad56" opacity="0.36"/><rect x="519" y="170" width="60" height="290" rx="8" fill="#f5ad56" opacity="0.37"/><rect x="588" y="226" width="69" height="234" rx="8" fill="#f5ad56" opacity="0.49"/><rect x="676" y="188" width="50" height="272" rx="8" fill="#f5ad56" opacity="0.52"/><rect x="737" y="312" width="61" height="148" rx="8" fill="#f5ad56" opacity="0.47"/><rect x="810" y="330" width="96" height="130" rx="8" fill="#f5ad56" opacity="0.53"/><rect x="926" y="321" width="63" height="139" rx="8" fill="#f5ad56" opacity="0.30"/><rect x="1009" y="289" width="103" height="171" rx="8" fill="#f5ad56" opacity="0.54"/><rect x="1129" y="188" width="91" height="272" rx="8" fill="#f5ad56" opacity="0.37"/></g>
  <g><rect x="12" y="162" width="8" height="10" rx="2" fill="white" opacity=".18"/><rect x="12" y="186" width="8" height="10" rx="2" fill="white" opacity=".18"/><rect x="12" y="210" width="8" height="10" rx="2" fill="white" opacity=".18"/><rect x="12" y="234" width="8" height="10" rx="2" fill="white" opacity=".18"/><rect x="12" y="258" width="8" height="10" rx="2" fill="white" opacity=".18"/><rect x="34" y="162" width="8" height="10" rx="2" fill="white" opacity=".18"/><rect x="34" y="186" width="8" height="10" rx="2" fill="white" opacity=".18"/><rect x="34" y="210" width="8" height="10" rx="2" fill="white" opacity=".18"/><rect x="34" y="234" width="8" height="10" rx="2" fill="white" opacity=".18"/><rect x="34" y="258" width="8" height="10" rx="2" fill="white" opacity=".18"/><rect x="172" y="261" width="8" height="10" rx="2" fill="white" opacity=".18"/><rect x="172" y="285" width="8" height="10" rx="2" fill="white" opacity=".18"/><rect x="172" y="309" width="8" height="10" rx="2" fill="white" opacity=".18"/><rect x="172" y="333" width="8" height="10" rx="2" fill="white" opacity=".18"/><rect x="172" y="357" width="8" height="10" rx="2" fill="white" opacity=".18"/><rect x="194" y="261" width="8" height="10" rx="2" fill="white" opacity=".18"/><rect x="194" y="285" width="8" height="10" rx="2" fill="white" opacity=".18"/><rect x="194" y="309" width="8" height="10" rx="2" fill="white" opacity=".18"/><rect x="194" y="333" width="8" height="10" rx="2" fill="white" opacity=".18"/><rect x="194" y="357" width="8" height="10" rx="2" fill="white" opacity=".18"/><rect x="216" y="261" width="8" height="10" rx="2" fill="white" opacity=".18"/><rect x="216" y="285" width="8" height="10" rx="2" fill="white" opacity=".18"/><rect x="216" y="309" width="8" height="10" rx="2" fill="white" opacity=".18"/><rect x="216" y="333" width="8" height="10" rx="2" fill="white" opacity=".18"/><rect x="216" y="357" width="8" height="10" rx="2" fill="white" opacity=".18"/><rect x="351" y="256" width="8" height="10" rx="2" fill="white" opacity=".18"/><rect x="351" y="280" width="8" height="10" rx="2" fill="white" opacity=".18"/><rect x="351" y="304" width="8" height="10" rx="2" fill="white" opacity=".18"/><rect x="351" y="328" width="8" height="10" rx="2" fill="white" opacity=".18"/><rect x="351" y="352" width="8" height="10" rx="2" fill="white" opacity=".18"/><rect x="373" y="256" width="8" height="10" rx="2" fill="white" opacity=".18"/><rect x="373" y="280" width="8" height="10" rx="2" fill="white" opacity=".18"/><rect x="373" y="304" width="8" height="10" rx="2" fill="white" opacity=".18"/><rect x="373" y="328" width="8" height="10" rx="2" fill="white" opacity=".18"/><rect x="373" y="352" width="8" height="10" rx="2" fill="white" opacity=".18"/><rect x="395" y="256" width="8" height="10" rx="2" fill="white" opacity=".18"/><rect x="395" y="280" width="8" height="10" rx="2" fill="white" opacity=".18"/><rect x="395" y="304" width="8" height="10" rx="2" fill="white" opacity=".18"/><rect x="395" y="328" width="8" height="10" rx="2" fill="white" opacity=".18"/><rect x="395" y="352" width="8" height="10" rx="2" fill="white" opacity=".18"/><rect x="531" y="192" width="8" height="10" rx="2" fill="white" opacity=".18"/><rect x="531" y="216" width="8" height="10" rx="2" fill="white" opacity=".18"/><rect x="531" y="240" width="8" height="10" rx="2" fill="white" opacity=".18"/><rect x="531" y="264" width="8" height="10" rx="2" fill="white" opacity=".18"/><rect x="531" y="288" width="8" height="10" rx="2" fill="white" opacity=".18"/><rect x="553" y="192" width="8" height="10" rx="2" fill="white" opacity=".18"/><rect x="553" y="216" width="8" height="10" rx="2" fill="white" opacity=".18"/><rect x="553" y="240" width="8" height="10" rx="2" fill="white" opacity=".18"/><rect x="553" y="264" width="8" height="10" rx="2" fill="white" opacity=".18"/><rect x="553" y="288" width="8" height="10" rx="2" fill="white" opacity=".18"/><rect x="688" y="210" width="8" height="10" rx="2" fill="white" opacity=".18"/><rect x="688" y="234" width="8" height="10" rx="2" fill="white" opacity=".18"/><rect x="688" y="258" width="8" height="10" rx="2" fill="white" opacity=".18"/><rect x="688" y="282" width="8" height="10" rx="2" fill="white" opacity=".18"/><rect x="688" y="306" width="8" height="10" rx="2" fill="white" opacity=".18"/><rect x="710" y="210" width="8" height="10" rx="2" fill="white" opacity=".18"/><rect x="710" y="234" width="8" height="10" rx="2" fill="white" opacity=".18"/><rect x="710" y="258" width="8" height="10" rx="2" fill="white" opacity=".18"/><rect x="710" y="282" width="8" height="10" rx="2" fill="white" opacity=".18"/><rect x="710" y="306" width="8" height="10" rx="2" fill="white" opacity=".18"/><rect x="822" y="352" width="8" height="10" rx="2" fill="white" opacity=".18"/><rect x="822" y="376" width="8" height="10" rx="2" fill="white" opacity=".18"/><rect x="822" y="400" width="8" height="10" rx="2" fill="white" opacity=".18"/><rect x="822" y="424" width="8" height="10" rx="2" fill="white" opacity=".18"/><rect x="844" y="352" width="8" height="10" rx="2" fill="white" opacity=".18"/><rect x="844" y="376" width="8" height="10" rx="2" fill="white" opacity=".18"/><rect x="844" y="400" width="8" height="10" rx="2" fill="white" opacity=".18"/><rect x="844" y="424" width="8" height="10" rx="2" fill="white" opacity=".18"/><rect x="866" y="352" width="8" height="10" rx="2" fill="white" opacity=".18"/><rect x="866" y="376" width="8" height="10" rx="2" fill="white" opacity=".18"/><rect x="866" y="400" width="8" height="10" rx="2" fill="white" opacity=".18"/><rect x="866" y="424" width="8" height="10" rx="2" fill="white" opacity=".18"/><rect x="1021" y="311" width="8" height="10" rx="2" fill="white" opacity=".18"/><rect x="1021" y="335" width="8" height="10" rx="2" fill="white" opacity=".18"/><rect x="1021" y="359" width="8" height="10" rx="2" fill="white" opacity=".18"/><rect x="1021" y="383" width="8" height="10" rx="2" fill="white" opacity=".18"/><rect x="1021" y="407" width="8" height="10" rx="2" fill="white" opacity=".18"/><rect x="1043" y="311" width="8" height="10" rx="2" fill="white" opacity=".18"/><rect x="1043" y="335" width="8" height="10" rx="2" fill="white" opacity=".18"/><rect x="1043" y="359" width="8" height="10" rx="2" fill="white" opacity=".18"/><rect x="1043" y="383" width="8" height="10" rx="2" fill="white" opacity=".18"/><rect x="1043" y="407" width="8" height="10" rx="2" fill="white" opacity=".18"/><rect x="1065" y="311" width="8" height="10" rx="2" fill="white" opacity=".18"/><rect x="1065" y="335" width="8" height="10" rx="2" fill="white" opacity=".18"/><rect x="1065" y="359" width="8" height="10" rx="2" fill="white" opacity=".18"/><rect x="1065" y="383" width="8" height="10" rx="2" fill="white" opacity=".18"/><rect x="1065" y="407" width="8" height="10" rx="2" fill="white" opacity=".18"/></g>
  <rect x="0" y="452" width="1200" height="248" fill="#f5ad56" opacity=".06"/>
  <text x="60" y="625" font-family="Inter, Arial, sans-serif" font-size="34" font-weight="700" fill="#f5ad56" opacity=".20">San Diego</text>
</svg>