<svg xmlns="http://www.w3.org/2000/svg" viewBox="0 0 1200 700" preserveAspectRatio="xMidYMid slice">
  <defs>
    <linearGradient id="g" x1="0" y1="0" x2="1" y2="1">
      <stop offset="0" stop-color="#eaf4f8"/>
      <stop offset="0.55" stop-color="#ffffff"/>
      <stop offset="1" stop-color="#244d69" stop-opacity=".30"/>
    </linearGradient>
    <radialGradient id="sun" cx="78%" cy="18%" r="42%"><stop offset="0" stop-color="#244d69" stop-opacity=".38"/><stop offset="1" stop-color="#244d69" stop-opacity="0"/></radialGradient>
  </defs>
  <rect width="1200" height="700" fill="url(#g)"/>
  <rect width="1200" height="700" fill="url(#sun)"/>
  <circle cx="1010" cy="120" r="80" fill="#244d69" opacity=".18"/>
  <rect x="590" y="205" width="20" height="240" rx="10" fill="#6aa3a3" opacity=".85"/><ellipse cx="600" cy="235" rx="70" ry="16" fill="#6aa3a3" opacity=".85"/><path d="M560 255 L640 255 L620 280 L580 280 Z" fill="#244d69" opacity=".75"/>
  <g><rect x="0" y="228" width="94" height="232" rx="8" fill="#6aa3a3" opacity="0.44"/><rect x="114" y="274" width="92" height="186" rx="8" fill="#6aa3a3" opacity="0.37"/><rect x="214" y="332" width="59" height="128" rx="8" fill="#6aa3a3" opacity="0.44"/><rect x="285" y="283" width="101" height="177" rx="8" fill="#6aa3a3" opacity="0.44"/><rect x="401" y="288" width="54" height="172" rx="8" fill="#6aa3a3" opacity="0.38"/><rect x="467" y="336" width="106" height="124" rx="8" fill="#6aa3a3" opacity="0.47"/><rect x="590" y="201" width="92" height="259" rx="8" fill="#6aa3a3" opacity="0.35"/><rect x="701" y="255" width="54" height="205" rx="8" fill="#6aa3a3" opacity="0.44"/><rect x="775" y="276" width="70" height="184" rx="8" fill="#6aa3a3" opacity="0.35"/><rect x="855" y="217" width="83" height="243" rx="8" fill="#6aa3a3" opacity="0.50"/><rect x="957" y="246" width="93" height="214" rx="8" fill="#6aa3a3" opacity="0.51"/><rect x="1059" y="338" width="95" height="122" rx="8" fill="#6aa3a3" opacity="0.42"/><rect x="1170" y="135" width="91" height="325" rx="8" fill="#6aa3a3" opacity="0.52"/></g>
  <g><rect x="12" y="250" width="8" height="10" rx="2" fill="white" opacity=".18"/><rect x="12" y="274" width="8" height="10" rx="2" fill="white" opacity=".18"/><rect x="12" y="298" width="8" height="10" rx="2" fill="white" opacity=".18"/><rect x="12" y="322" width="8" height="10" rx="2" fill="white" opacity=".18"/><rect x="12" y="346" width="8" height="10" rx="2" fill="white" opacity=".18"/><rect x="34" y="250" width="8" height="10" rx="2" fill="white" opacity=".18"/><rect x="34" y="274" width="8" height="10" rx="2" fill="white" opacity=".18"/><rect x="34" y="298" width="8" height="10" rx="2" fill="white" opacity=".18"/><rect x="34" y="322" width="8" height="10" rx="2" fill="white" opacity=".18"/><rect x="34" y="346" width="8" height="10" rx="2" fill="white" opacity=".18"/><rect x="56" y="250" width="8" height="10" rx="2" fill="white" opacity=".18"/><rect x="56" y="274" width="8" height="10" rx="2" fill="white" opacity=".18"/><rect x="56" y="298" width="8" height="10" rx="2" fill="white" opacity=".18"/><rect x="56" y="322" width="8" height="10" rx="2" fill="white" opacity=".18"/><rect x="56" y="346" width="8" height="10" rx="2" fill="white" opacity=".18"/><rect x="226" y="354" width="8" height="10" rx="2" fill="white" opacity=".18"/><rect x="226" y="378" width="8" height="10" rx="2" fill="white" opacity=".18"/><rect x="226" y="402" width="8" height="10" rx="2" fill="white" opacity=".18"/><rect x="226" y="426" width="8" height="10" rx="2" fill="white" opacity=".18"/><rect x="248" y="354" width="8" height="10" rx="2" fill="white" opacity=".18"/><rect x="248" y="378" width="8" height="10" rx="2" fill="white" opacity=".18"/><rect x="248" y="402" width="8" height="10" rx="2" fill="white" opacity=".18"/><rect x="248" y="426" width="8" height="10" rx="2" fill="white" opacity=".18"/><rect x="413" y="310" width="8" height="10" rx="2" fill="white" opacity=".18"/><rect x="413" y="334" width="8" height="10" rx="2" fill="white" opacity=".18"/><rect x="413" y="358" width="8" height="10" rx="2" fill="white" opacity=".18"/><rect x="413" y="382" width="8" height="10" rx="2" fill="white" opacity=".18"/><rect x="413" y="406" width="8" height="10" rx="2" fill="white" opacity=".18"/><rect x="435" y="310" width="8" height="10" rx="2" fill="white" opacity=".18"/><rect x="435" y="334" width="8" height="10" rx="2" fill="white" opacity=".18"/><rect x="435" y="358" width="8" height="10" rx="2" fill="white" opacity=".18"/><rect x="435" y="382" width="8" height="10" rx="2" fill="white" opacity=".18"/><rect x="435" y="406" width="8" height="10" rx="2" fill="white" opacity=".18"/><rect x="602" y="223" width="8" height="10" rx="2" fill="white" opacity=".18"/><rect x="602" y="247" width="8" height="10" rx="2" fill="white" opacity=".18"/><rect x="602" y="271" width="8" height="10" rx="2" fill="white" opacity=".18"/><rect x="602" y="295" width="8" height="10" rx="2" fill="white" opacity=".18"/><rect x="602" y="319" width="8" height="10" rx="2" fill="white" opacity=".18"/><rect x="624" y="223" width="8" height="10" rx="2" fill="white" opacity=".18"/><rect x="624" y="247" width="8" height="10" rx="2" fill="white" opacity=".18"/><rect x="624" y="271" width="8" height="10" rx="2" fill="white" opacity=".18"/><rect x="624" y="295" width="8" height="10" rx="2" fill="white" opacity=".18"/><rect x="624" y="319" width="8" height="10" rx="2" fill="white" opacity=".18"/><rect x="646" y="223" width="8" height="10" rx="2" fill="white" opacity=".18"/><rect x="646" y="247" width="8" height="10" rx="2" fill="white" opacity=".18"/><rect x="646" y="271" width="8" height="10" rx="2" fill="white" opacity=".18"/><rect x="646" y="295" width="8" height="10" rx="2" fill="white" opacity=".18"/><rect x="646" y="319" width="8" height="10" rx="2" fill="white" opacity=".18"/><rect x="787" y="298" width="8" height="10" rx="2" fill="white" opacity=".18"/><rect x="787" y="322" width="8" height="10" rx="2" fill="white" opacity=".18"/><rect x="787" y="346" width="8" height="10" rx="2" fill="white" opacity=".18"/><rect x="787" y="370" width="8" height="10" rx="2" fill="white" opacity=".18"/><rect x="787" y="394" width="8" height="10" rx="2" fill="white" opacity=".18"/><rect x="809" y="298" width="8" height="10" rx="2" fill="white" opacity=".18"/><rect x="809" y="322" width="8" height="10" rx="2" fill="white" opacity=".18"/><rect x="809" y="346" width="8" height="10" rx="2" fill="white" opacity=".18"/><rect x="809" y="370" width="8" height="10" rx="2" fill="white" opacity=".18"/><rect x="809" y="394" width="8" height="10" rx="2" fill="white" opacity=".18"/><rect x="831" y="298" width="8" height="10" rx="2" fill="white" opacity=".18"/><rect x="831" y="322" width="8" height="10" rx="2" fill="white" opacity=".18"/><rect x="831" y="346" width="8" height="10" rx="2" fill="white" opacity=".18"/><rect x="831" y="370" width="8" height="10" rx="2" fill="white" opacity=".18"/><rect x="831" y="394" width="8" height="10" rx="2" fill="white" opacity=".18"/><rect x="969" y="268" width="8" height="10" rx="2" fill="white" opacity=".18"/><rect x="969" y="292" width="8" height="10" rx="2" fill="white" opacity=".18"/><rect x="969" y="316" width="8" height="10" rx="2" fill="white" opacity=".18"/><rect x="969" y="340" width="8" height="10" rx="2" fill="white" opacity=".18"/><rect x="969" y="364" width="8" height="10" rx="2" fill="white" opacity=".18"/><rect x="991" y="268" width="8" height="10" rx="2" fill="white" opacity=".18"/><rect x="991" y="292" width="8" height="10" rx="2" fill="white" opacity=".18"/><rect x="991" y="316" width="8" height="10" rx="2" fill="white" opacity=".18"/><rect x="991" y="340" width="8" height="10" rx="2" fill="white" opacity=".18"/><rect x="991" y="364" width="8" height="10" rx="2" fill="white" opacity=".18"/><rect x="1013" y="268" width="8" height="10" rx="2" fill="white" opacity=".18"/><rect x="1013" y="292" width="8" height="10" rx="2" fill="white" opacity=".18"/><rect x="1013" y="316" width="8" height="10" rx="2" fill="white" opacity=".18"/><rect x="1013" y="340" width="8" height="10" rx="2" fill="white" opacity=".18"/><rect x="1013" y="364" width="8" height="10" rx="2" fill="white" opacity=".18"/><rect x="1182" y="157" width="8" height="10" rx="2" fill="white" opacity=".18"/><rect x="1182" y="181" width="8" height="10" rx="2" fill="white" opacity=".18"/><rect x="1182" y="205" width="8" height="10" rx="2" fill="white" opacity=".18"/><rect x="1182" y="229" width="8" height="10" rx="2" fill="white" opacity=".18"/><rect x="1182" y="253" width="8" height="10" rx="2" fill="white" opacity=".18"/><rect x="1204" y="157" width="8" height="10" rx="2" fill="white" opacity=".18"/><rect x="1204" y="181" width="8" height="10" rx="2" fill="white" opacity=".18"/><rect x="1204" y="205" width="8" height="10" rx="2" fill="white" opacity=".18"/><rect x="1204" y="229" width="8" height="10" rx="2" fill="white" opacity=".18"/><rect x="1204" y="253" width="8" height="10" rx="2" fill="white" opacity=".18"/><rect x="1226" y="157" width="8" height="10" rx="2" fill="white" opacity=".18"/><rect x="1226" y="181" width="8" height="10" rx="2" fill="white" opacity=".18"/><rect x="1226" y="205" width="8" height="10" rx="2" fill="white" opacity=".18"/><rect x="1226" y="229" width="8" height="10" rx="2" fill="white" opacity=".18"/><rect x="1226" y="253" width="8" height="10" rx="2" fill="white" opacity=".18"/></g>
  <rect x="0" y="452" width="1200" height="248" fill="#6aa3a3" opacity=".06"/>
  <text x="60" y="625" font-family="Inter, Arial, sans-serif" font-size="34" font-weight="700" fill="#6aa3a3" opacity=".20">Seattle</text>
</svg>