<svg xmlns="http://www.w3.org/2000/svg" viewBox="0 0 1200 700" preserveAspectRatio="xMidYMid slice">
  <defs>
    <linearGradient id="g" x1="0" y1="0" x2="1" y2="1">
      <stop offset="0" stop-color="#fff2e7"/>
      <stop offset="0.55" stop-color="#ffffff"/>
      <stop offset="1" stop-color="#f36f2a" stop-opacity=".30"/>
    </linearGradient>
    <radialGradient id="sun" cx="78%" cy="18%" r="42%"><stop offset="0" stop-color="#f36f2a" stop-opacity=".38"/><stop offset="1" stop-color="#f36f2a" stop-opacity="0"/></radialGradient>
  </defs>
  <rect width="1200" height="700" fill="url(#g)"/>
  <rect width="1200" height="700" fill="url(#sun)"/>
  <circle cx="1010" cy="120" r="80" fill="#f36f2a" opacity=".18"/>
  <path d="M0 500 C200 470 350 535 600 500 C830 465 1000 525 1200 490 L1200 700 L0 700 Z" fill="#f36f2a" opacity=".25"/><path d="M115 430 C130 360 165 330 210 315 C180 350 158 388 150 445" stroke="#1b6582" stroke-width="12" fill="none" opacity=".58"/><path d="M210 315 C170 300 145 305 105 335" stroke="#1b6582" stroke-width="10" fill="none" opacity=".58"/>
  <g><rect x="0" y="280" width="59" height="180" rx="8" fill="#1b6582" opacity="0.36"/><rect x="79" y="321" width="58" height="139" rx="8" fill="#1b6582" opacity="0.38"/><rect x="148" y="289" width="76" height="171" rx="8" fill="#1b6582" opacity="0.40"/><rect x="234" y="227" width="63" height="233" rx="8" fill="#1b6582" opacity="0.32"/><rect x="312" y="258" width="107" height="202" rx="8" fill="#1b6582" opacity="0.48"/><rect x="433" y="163" width="74" height="297" rx="8" fill="#1b6582" opacity="0.36"/><rect x="515" y="218" width="95" height="242" rx="8" fill="#1b6582" opacity="0.50"/><rect x="629" y="337" width="105" height="123" rx="8" fill="#1b6582" opacity="0.31"/><rect x="745" y="204" width="76" height="256" rx="8" fill="#1b6582" opacity="0.41"/><rect x="836" y="253" width="63" height="207" rx="8" fill="#1b6582" opacity="0.34"/><rect x="917" y="172" width="66" height="288" rx="8" fill="#1b6582" opacity="0.53"/><rect x="994" y="253" width="102" height="207" rx="8" fill="#1b6582" opacity="0.30"/><rect x="1104" y="150" width="75" height="310" rx="8" fill="#1b6582" opacity="0.40"/><rect x="1189" y="174" width="54" height="286" rx="8" fill="#1b6582" opacity="0.54"/></g>
  <g><rect x="12" y="302" width="8" height="10" rx="2" fill="white" opacity=".18"/><rect x="12" y="326" width="8" height="10" rx="2" fill="white" opacity=".18"/><rect x="12" y="350" width="8" height="10" rx="2" fill="white" opacity=".18"/><rect x="12" y="374" width="8" height="10" rx="2" fill="white" opacity=".18"/><rect x="12" y="398" width="8" height="10" rx="2" fill="white" opacity=".18"/><rect x="34" y="302" width="8" height="10" rx="2" fill="white" opacity=".18"/><rect x="34" y="326" width="8" height="10" rx="2" fill="white" opacity=".18"/><rect x="34" y="350" width="8" height="10" rx="2" fill="white" opacity=".18"/><rect x="34" y="374" width="8" height="10" rx="2" fill="white" opacity=".18"/><rect x="34" y="398" width="8" height="10" rx="2" fill="white" opacity=".18"/><rect x="160" y="311" width="8" height="10" rx="2" fill="white" opacity=".18"/><rect x="160" y="335" width="8" height="10" rx="2" fill="white" opacity=".18"/><rect x="160" y="359" width="8" height="10" rx="2" fill="white" opacity=".18"/><rect x="160" y="383" width="8" height="10" rx="2" fill="white" opacity=".18"/><rect x="160" y="407" width="8" height="10" rx="2" fill="white" opacity=".18"/><rect x="182" y="311" width="8" height="10" rx="2" fill="white" opacity=".18"/><rect x="182" y="335" width="8" height="10" rx="2" fill="white" opacity=".18"/><rect x="182" y="359" width="8" height="10" rx="2" fill="white" opacity=".18"/><rect x="182" y="383" width="8" height="10" rx="2" fill="white" opacity=".18"/><rect x="182" y="407" width="8" height="10" rx="2" fill="white" opacity=".18"/><rect x="204" y="311" width="8" height="10" rx="2" fill="white" opacity=".18"/><rect x="204" y="335" width="8" height="10" rx="2" fill="white" opacity=".18"/><rect x="204" y="359" width="8" height="10" rx="2" fill="white" opacity=".18"/><rect x="204" y="383" width="8" height="10" rx="2" fill="white" opacity=".18"/><rect x="204" y="407" width="8" height="10" rx="2" fill="white" opacity=".18"/><rect x="324" y="280" width="8" height="10" rx="2" fill="white" opacity=".18"/><rect x="324" y="304" width="8" height="10" rx="2" fill="white" opacity=".18"/><rect x="324" y="328" width="8" height="10" rx="2" fill="white" opacity=".18"/><rect x="324" y="352" width="8" height="10" rx="2" fill="white" opacity=".18"/><rect x="324" y="376" width="8" height="10" rx="2" fill="white" opacity=".18"/><rect x="346" y="280" width="8" height="10" rx="2" fill="white" opacity=".18"/><rect x="346" y="304" width="8" height="10" rx="2" fill="white" opacity=".18"/><rect x="346" y="328" width="8" height="10" rx="2" fill="white" opacity=".18"/><rect x="346" y="352" width="8" height="10" rx="2" fill="white" opacity=".18"/><rect x="346" y="376" width="8" height="10" rx="2" fill="white" opacity=".18"/><rect x="368" y="280" width="8" height="10" rx="2" fill="white" opacity=".18"/><rect x="368" y="304" width="8" height="10" rx="2" fill="white" opacity=".18"/><rect x="368" y="328" width="8" height="10" rx="2" fill="white" opacity=".18"/><rect x="368" y="352" width="8" height="10" rx="2" fill="white" opacity=".18"/><rect x="368" y="376" width="8" height="10" rx="2" fill="white" opacity=".18"/><rect x="527" y="240" width="8" height="10" rx="2" fill="white" opacity=".18"/><rect x="527" y="264" width="8" height="10" rx="2" fill="white" opacity=".18"/><rect x="527" y="288" width="8" height="10" rx="2" fill="white" opacity=".18"/><rect x="527" y="312" width="8" height="10" rx="2" fill="white" opacity=".18"/><rect x="527" y="336" width="8" height="10" rx="2" fill="white" opacity=".18"/><rect x="549" y="240" width="8" height="10" rx="2" fill="white" opacity=".18"/><rect x="549" y="264" width="8" height="10" rx="2" fill="white" opacity=".18"/><rect x="549" y="288" width="8" height="10" rx="2" fill="white" opacity=".18"/><rect x="549" y="312" width="8" height="10" rx="2" fill="white" opacity=".18"/><rect x="549" y="336" width="8" height="10" rx="2" fill="white" opacity=".18"/><rect x="571" y="240" width="8" height="10" rx="2" fill="white" opacity=".18"/><rect x="571" y="264" width="8" height="10" rx="2" fill="white" opacity=".18"/><rect x="571" y="288" width="8" height="10" rx="2" fill="white" opacity=".18"/><rect x="571" y="312" width="8" height="10" rx="2" fill="white" opacity=".18"/><rect x="571" y="336" width="8" height="10" rx="2" fill="white" opacity=".18"/><rect x="757" y="226" width="8" height="10" rx="2" fill="white" opacity=".18"/><rect x="757" y="250" width="8" height="10" rx="2" fill="white" opacity=".18"/><rect x="757" y="274" width="8" height="10" rx="2" fill="white" opacity=".18"/><rect x="757" y="298" width="8" height="10" rx="2" fill="white" opacity=".18"/><rect x="757" y="322" width="8" height="10" rx="2" fill="white" opacity=".18"/><rect x="779" y="226" width="8" height="10" rx="2" fill="white" opacity=".18"/><rect x="779" y="250" width="8" height="10" rx="2" fill="white" opacity=".18"/><rect x="779" y="274" width="8" height="10" rx="2" fill="white" opacity=".18"/><rect x="779" y="298" width="8" height="10" rx="2" fill="white" opacity=".18"/><rect x="779" y="322" width="8" height="10" rx="2" fill="white" opacity=".18"/><rect x="801" y="226" width="8" height="10" rx="2" fill="white" opacity=".18"/><rect x="801" y="250" width="8" height="10" rx="2" fill="white" opacity=".18"/><rect x="801" y="274" width="8" height="10" rx="2" fill="white" opacity=".18"/><rect x="801" y="298" width="8" height="10" rx="2" fill="white" opacity=".18"/><rect x="801" y="322" width="8" height="10" rx="2" fill="white" opacity=".18"/><rect x="929" y="194" width="8" height="10" rx="2" fill="white" opacity=".18"/><rect x="929" y="218" width="8" height="10" rx="2" fill="white" opacity=".18"/><rect x="929" y="242" width="8" height="10" rx="2" fill="white" opacity=".18"/><rect x="929" y="266" width="8" height="10" rx="2" fill="white" opacity=".18"/><rect x="929" y="290" width="8" height="10" rx="2" fill="white" opacity=".18"/><rect x="951" y="194" width="8" height="10" rx="2" fill="white" opacity=".18"/><rect x="951" y="218" width="8" height="10" rx="2" fill="white" opacity=".18"/><rect x="951" y="242" width="8" height="10" rx="2" fill="white" opacity=".18"/><rect x="951" y="266" width="8" height="10" rx="2" fill="white" opacity=".18"/><rect x="951" y="290" width="8" height="10" rx="2" fill="white" opacity=".18"/><rect x="1116" y="172" width="8" height="10" rx="2" fill="white" opacity=".18"/><rect x="1116" y="196" width="8" height="10" rx="2" fill="white" opacity=".18"/><rect x="1116" y="220" width="8" height="10" rx="2" fill="white" opacity=".18"/><rect x="1116" y="244" width="8" height="10" rx="2" fill="white" opacity=".18"/><rect x="1116" y="268" width="8" height="10" rx="2" fill="white" opacity=".18"/><rect x="1138" y="172" width="8" height="10" rx="2" fill="white" opacity=".18"/><rect x="1138" y="196" width="8" height="10" rx="2" fill="white" opacity=".18"/><rect x="1138" y="220" width="8" height="10" rx="2" fill="white" opacity=".18"/><rect x="1138" y="244" width="8" height="10" rx="2" fill="white" opacity=".18"/><rect x="1138" y="268" width="8" height="10" rx="2" fill="white" opacity=".18"/><rect x="1160" y="172" width="8" height="10" rx="2" fill="white" opacity=".18"/><rect x="1160" y="196" width="8" height="10" rx="2" fill="white" opacity=".18"/><rect x="1160" y="220" width="8" height="10" rx="2" fill="white" opacity=".18"/><rect x="1160" y="244" width="8" height="10" rx="2" fill="white" opacity=".18"/><rect x="1160" y="268" width="8" height="10" rx="2" fill="white" opacity=".18"/></g>
  <rect x="0" y="452" width="1200" height="248" fill="#1b6582" opacity=".06"/>
  <text x="60" y="625" font-family="Inter, Arial, sans-serif" font-size="34" font-weight="700" fill="#1b6582" opacity=".20">Tampa</text>
</svg>