<svg xmlns="http://www.w3.org/2000/svg" viewBox="0 0 1200 700" preserveAspectRatio="xMidYMid slice">
  <defs>
    <linearGradient id="g" x1="0" y1="0" x2="1" y2="1">
      <stop offset="0" stop-color="#eef8f1"/>
      <stop offset="0.55" stop-color="#ffffff"/>
      <stop offset="1" stop-color="#497a52" stop-opacity=".30"/>
    </linearGradient>
    <radialGradient id="sun" cx="78%" cy="18%" r="42%"><stop offset="0" stop-color="#497a52" stop-opacity=".38"/><stop offset="1" stop-color="#497a52" stop-opacity="0"/></radialGradient>
  </defs>
  <rect width="1200" height="700" fill="url(#g)"/>
  <rect width="1200" height="700" fill="url(#sun)"/>
  <circle cx="1010" cy="120" r="80" fill="#497a52" opacity=".18"/>
  <path d="M0 390 L130 230 L230 345 L360 170 L520 370 L700 210 L830 360 L970 190 L1200 390 Z" fill="#497a52" opacity=".28"/><path d="M0 410 L180 300 L330 395 L540 260 L760 405 L940 285 L1200 415 Z" fill="#c88f3a" opacity=".38"/>
  <g><rect x="0" y="204" width="52" height="256" rx="8" fill="#c88f3a" opacity="0.51"/><rect x="71" y="311" width="83" height="149" rx="8" fill="#c88f3a" opacity="0.38"/><rect x="167" y="333" width="88" height="127" rx="8" fill="#c88f3a" opacity="0.50"/><rect x="263" y="194" width="75" height="266" rx="8" fill="#c88f3a" opacity="0.36"/><rect x="352" y="169" width="78" height="291" rx="8" fill="#c88f3a" opacity="0.55"/><rect x="441" y="198" width="105" height="262" rx="8" fill="#c88f3a" opacity="0.41"/><rect x="555" y="154" width="69" height="306" rx="8" fill="#c88f3a" opacity="0.45"/><rect x="634" y="285" width="62" height="175" rx="8" fill="#c88f3a" opacity="0.52"/><rect x="713" y="165" width="82" height="295" rx="8" fill="#c88f3a" opacity="0.47"/><rect x="814" y="238" width="81" height="222" rx="8" fill="#c88f3a" opacity="0.35"/><rect x="906" y="324" width="88" height="136" rx="8" fill="#c88f3a" opacity="0.51"/><rect x="1006" y="199" width="108" height="261" rx="8" fill="#c88f3a" opacity="0.49"/><rect x="1132" y="175" width="76" height="285" rx="8" fill="#c88f3a" opacity="0.50"/></g>
  <g><rect x="12" y="226" width="8" height="10" rx="2" fill="white" opacity=".18"/><rect x="12" y="250" width="8" height="10" rx="2" fill="white" opacity=".18"/><rect x="12" y="274" width="8" height="10" rx="2" fill="white" opacity=".18"/><rect x="12" y="298" width="8" height="10" rx="2" fill="white" opacity=".18"/><rect x="12" y="322" width="8" height="10" rx="2" fill="white" opacity=".18"/><rect x="34" y="226" width="8" height="10" rx="2" fill="white" opacity=".18"/><rect x="34" y="250" width="8" height="10" rx="2" fill="white" opacity=".18"/><rect x="34" y="274" width="8" height="10" rx="2" fill="white" opacity=".18"/><rect x="34" y="298" width="8" height="10" rx="2" fill="white" opacity=".18"/><rect x="34" y="322" width="8" height="10" rx="2" fill="white" opacity=".18"/><rect x="179" y="355" width="8" height="10" rx="2" fill="white" opacity=".18"/><rect x="179" y="379" width="8" height="10" rx="2" fill="white" opacity=".18"/><rect x="179" y="403" width="8" height="10" rx="2" fill="white" opacity=".18"/><rect x="179" y="427" width="8" height="10" rx="2" fill="white" opacity=".18"/><rect x="201" y="355" width="8" height="10" rx="2" fill="white" opacity=".18"/><rect x="201" y="379" width="8" height="10" rx="2" fill="white" opacity=".18"/><rect x="201" y="403" width="8" height="10" rx="2" fill="white" opacity=".18"/><rect x="201" y="427" width="8" height="10" rx="2" fill="white" opacity=".18"/><rect x="223" y="355" width="8" height="10" rx="2" fill="white" opacity=".18"/><rect x="223" y="379" width="8" height="10" rx="2" fill="white" opacity=".18"/><rect x="223" y="403" width="8" height="10" rx="2" fill="white" opacity=".18"/><rect x="223" y="427" width="8" height="10" rx="2" fill="white" opacity=".18"/><rect x="364" y="191" width="8" height="10" rx="2" fill="white" opacity=".18"/><rect x="364" y="215" width="8" height="10" rx="2" fill="white" opacity=".18"/><rect x="364" y="239" width="8" height="10" rx="2" fill="white" opacity=".18"/><rect x="364" y="263" width="8" height="10" rx="2" fill="white" opacity=".18"/><rect x="364" y="287" width="8" height="10" rx="2" fill="white" opacity=".18"/><rect x="386" y="191" width="8" height="10" rx="2" fill="white" opacity=".18"/><rect x="386" y="215" width="8" height="10" rx="2" fill="white" opacity=".18"/><rect x="386" y="239" width="8" height="10" rx="2" fill="white" opacity=".18"/><rect x="386" y="263" width="8" height="10" rx="2" fill="white" opacity=".18"/><rect x="386" y="287" width="8" height="10" rx="2" fill="white" opacity=".18"/><rect x="408" y="191" width="8" height="10" rx="2" fill="white" opacity=".18"/><rect x="408" y="215" width="8" height="10" rx="2" fill="white" opacity=".18"/><rect x="408" y="239" width="8" height="10" rx="2" fill="white" opacity=".18"/><rect x="408" y="263" width="8" height="10" rx="2" fill="white" opacity=".18"/><rect x="408" y="287" width="8" height="10" rx="2" fill="white" opacity=".18"/><rect x="567" y="176" width="8" height="10" rx="2" fill="white" opacity=".18"/><rect x="567" y="200" width="8" height="10" rx="2" fill="white" opacity=".18"/><rect x="567" y="224" width="8" height="10" rx="2" fill="white" opacity=".18"/><rect x="567" y="248" width="8" height="10" rx="2" fill="white" opacity=".18"/><rect x="567" y="272" width="8" height="10" rx="2" fill="white" opacity=".18"/><rect x="589" y="176" width="8" height="10" rx="2" fill="white" opacity=".18"/><rect x="589" y="200" width="8" height="10" rx="2" fill="white" opacity=".18"/><rect x="589" y="224" width="8" height="10" rx="2" fill="white" opacity=".18"/><rect x="589" y="248" width="8" height="10" rx="2" fill="white" opacity=".18"/><rect x="589" y="272" width="8" height="10" rx="2" fill="white" opacity=".18"/><rect x="611" y="176" width="8" height="10" rx="2" fill="white" opacity=".18"/><rect x="611" y="200" width="8" height="10" rx="2" fill="white" opacity=".18"/><rect x="611" y="224" width="8" height="10" rx="2" fill="white" opacity=".18"/><rect x="611" y="248" width="8" height="10" rx="2" fill="white" opacity=".18"/><rect x="611" y="272" width="8" height="10" rx="2" fill="white" opacity=".18"/><rect x="725" y="187" width="8" height="10" rx="2" fill="white" opacity=".18"/><rect x="725" y="211" width="8" height="10" rx="2" fill="white" opacity=".18"/><rect x="725" y="235" width="8" height="10" rx="2" fill="white" opacity=".18"/><rect x="725" y="259" width="8" height="10" rx="2" fill="white" opacity=".18"/><rect x="725" y="283" width="8" height="10" rx="2" fill="white" opacity=".18"/><rect x="747" y="187" width="8" height="10" rx="2" fill="white" opacity=".18"/><rect x="747" y="211" width="8" height="10" rx="2" fill="white" opacity=".18"/><rect x="747" y="235" width="8" height="10" rx="2" fill="white" opacity=".18"/><rect x="747" y="259" width="8" height="10" rx="2" fill="white" opacity=".18"/><rect x="747" y="283" width="8" height="10" rx="2" fill="white" opacity=".18"/><rect x="769" y="187" width="8" height="10" rx="2" fill="white" opacity=".18"/><rect x="769" y="211" width="8" height="10" rx="2" fill="white" opacity=".18"/><rect x="769" y="235" width="8" height="10" rx="2" fill="white" opacity=".18"/><rect x="769" y="259" width="8" height="10" rx="2" fill="white" opacity=".18"/><rect x="769" y="283" width="8" height="10" rx="2" fill="white" opacity=".18"/><rect x="918" y="346" width="8" height="10" rx="2" fill="white" opacity=".18"/><rect x="918" y="370" width="8" height="10" rx="2" fill="white" opacity=".18"/><rect x="918" y="394" width="8" height="10" rx="2" fill="white" opacity=".18"/><rect x="918" y="418" width="8" height="10" rx="2" fill="white" opacity=".18"/><rect x="940" y="346" width="8" height="10" rx="2" fill="white" opacity=".18"/><rect x="940" y="370" width="8" height="10" rx="2" fill="white" opacity=".18"/><rect x="940" y="394" width="8" height="10" rx="2" fill="white" opacity=".18"/><rect x="940" y="418" width="8" height="10" rx="2" fill="white" opacity=".18"/><rect x="962" y="346" width="8" height="10" rx="2" fill="white" opacity=".18"/><rect x="962" y="370" width="8" height="10" rx="2" fill="white" opacity=".18"/><rect x="962" y="394" width="8" height="10" rx="2" fill="white" opacity=".18"/><rect x="962" y="418" width="8" height="10" rx="2" fill="white" opacity=".18"/><rect x="1144" y="197" width="8" height="10" rx="2" fill="white" opacity=".18"/><rect x="1144" y="221" width="8" height="10" rx="2" fill="white" opacity=".18"/><rect x="1144" y="245" width="8" height="10" rx="2" fill="white" opacity=".18"/><rect x="1144" y="269" width="8" height="10" rx="2" fill="white" opacity=".18"/><rect x="1144" y="293" width="8" height="10" rx="2" fill="white" opacity=".18"/><rect x="1166" y="197" width="8" height="10" rx="2" fill="white" opacity=".18"/><rect x="1166" y="221" width="8" height="10" rx="2" fill="white" opacity=".18"/><rect x="1166" y="245" width="8" height="10" rx="2" fill="white" opacity=".18"/><rect x="1166" y="269" width="8" height="10" rx="2" fill="white" opacity=".18"/><rect x="1166" y="293" width="8" height="10" rx="2" fill="white" opacity=".18"/><rect x="1188" y="197" width="8" height="10" rx="2" fill="white" opacity=".18"/><rect x="1188" y="221" width="8" height="10" rx="2" fill="white" opacity=".18"/><rect x="1188" y="245" width="8" height="10" rx="2" fill="white" opacity=".18"/><rect x="1188" y="269" width="8" height="10" rx="2" fill="white" opacity=".18"/><rect x="1188" y="293" width="8" height="10" rx="2" fill="white" opacity=".18"/></g>
  <rect x="0" y="452" width="1200" height="248" fill="#c88f3a" opacity=".06"/>
  <text x="60" y="625" font-family="Inter, Arial, sans-serif" font-size="34" font-weight="700" fill="#c88f3a" opacity=".20">Virginia</text>
</svg>