<svg xmlns="http://www.w3.org/2000/svg" viewBox="0 0 1200 700" preserveAspectRatio="xMidYMid slice">
  <defs>
    <linearGradient id="g" x1="0" y1="0" x2="1" y2="1">
      <stop offset="0" stop-color="#eef3fb"/>
      <stop offset="0.55" stop-color="#ffffff"/>
      <stop offset="1" stop-color="#244a80" stop-opacity=".30"/>
    </linearGradient>
    <radialGradient id="sun" cx="78%" cy="18%" r="42%"><stop offset="0" stop-color="#244a80" stop-opacity=".38"/><stop offset="1" stop-color="#244a80" stop-opacity="0"/></radialGradient>
  </defs>
  <rect width="1200" height="700" fill="url(#g)"/>
  <rect width="1200" height="700" fill="url(#sun)"/>
  <circle cx="1010" cy="120" r="80" fill="#244a80" opacity=".18"/>
  <rect x="575" y="190" width="48" height="250" fill="#b23a48" opacity=".83"/><path d="M599 120 L575 190 L623 190 Z" fill="#b23a48" opacity=".83"/><ellipse cx="380" cy="340" rx="90" ry="48" fill="#244a80" opacity=".62"/>
  <g><rect x="0" y="321" width="87" height="139" rx="8" fill="#b23a48" opacity="0.42"/><rect x="106" y="284" width="55" height="176" rx="8" fill="#b23a48" opacity="0.53"/><rect x="176" y="188" width="75" height="272" rx="8" fill="#b23a48" opacity="0.50"/><rect x="264" y="151" width="83" height="309" rx="8" fill="#b23a48" opacity="0.49"/><rect x="358" y="236" width="69" height="224" rx="8" fill="#b23a48" opacity="0.43"/><rect x="437" y="222" width="108" height="238" rx="8" fill="#b23a48" opacity="0.55"/><rect x="558" y="178" width="86" height="282" rx="8" fill="#b23a48" opacity="0.44"/><rect x="654" y="325" width="80" height="135" rx="8" fill="#b23a48" opacity="0.47"/><rect x="749" y="320" width="53" height="140" rx="8" fill="#b23a48" opacity="0.36"/><rect x="817" y="151" width="94" height="309" rx="8" fill="#b23a48" opacity="0.54"/><rect x="927" y="337" width="89" height="123" rx="8" fill="#b23a48" opacity="0.39"/><rect x="1027" y="272" width="75" height="188" rx="8" fill="#b23a48" opacity="0.42"/><rect x="1115" y="254" width="101" height="206" rx="8" fill="#b23a48" opacity="0.38"/></g>
  <g><rect x="12" y="343" width="8" height="10" rx="2" fill="white" opacity=".18"/><rect x="12" y="367" width="8" height="10" rx="2" fill="white" opacity=".18"/><rect x="12" y="391" width="8" height="10" rx="2" fill="white" opacity=".18"/><rect x="12" y="415" width="8" height="10" rx="2" fill="white" opacity=".18"/><rect x="12" y="439" width="8" height="10" rx="2" fill="white" opacity=".18"/><rect x="34" y="343" width="8" height="10" rx="2" fill="white" opacity=".18"/><rect x="34" y="367" width="8" height="10" rx="2" fill="white" opacity=".18"/><rect x="34" y="391" width="8" height="10" rx="2" fill="white" opacity=".18"/><rect x="34" y="415" width="8" height="10" rx="2" fill="white" opacity=".18"/><rect x="34" y="439" width="8" height="10" rx="2" fill="white" opacity=".18"/><rect x="56" y="343" width="8" height="10" rx="2" fill="white" opacity=".18"/><rect x="56" y="367" width="8" height="10" rx="2" fill="white" opacity=".18"/><rect x="56" y="391" width="8" height="10" rx="2" fill="white" opacity=".18"/><rect x="56" y="415" width="8" height="10" rx="2" fill="white" opacity=".18"/><rect x="56" y="439" width="8" height="10" rx="2" fill="white" opacity=".18"/><rect x="188" y="210" width="8" height="10" rx="2" fill="white" opacity=".18"/><rect x="188" y="234" width="8" height="10" rx="2" fill="white" opacity=".18"/><rect x="188" y="258" width="8" height="10" rx="2" fill="white" opacity=".18"/><rect x="188" y="282" width="8" height="10" rx="2" fill="white" opacity=".18"/><rect x="188" y="306" width="8" height="10" rx="2" fill="white" opacity=".18"/><rect x="210" y="210" width="8" height="10" rx="2" fill="white" opacity=".18"/><rect x="210" y="234" width="8" height="10" rx="2" fill="white" opacity=".18"/><rect x="210" y="258" width="8" height="10" rx="2" fill="white" opacity=".18"/><rect x="210" y="282" width="8" height="10" rx="2" fill="white" opacity=".18"/><rect x="210" y="306" width="8" height="10" rx="2" fill="white" opacity=".18"/><rect x="232" y="210" width="8" height="10" rx="2" fill="white" opacity=".18"/><rect x="232" y="234" width="8" height="10" rx="2" fill="white" opacity=".18"/><rect x="232" y="258" width="8" height="10" rx="2" fill="white" opacity=".18"/><rect x="232" y="282" width="8" height="10" rx="2" fill="white" opacity=".18"/><rect x="232" y="306" width="8" height="10" rx="2" fill="white" opacity=".18"/><rect x="370" y="258" width="8" height="10" rx="2" fill="white" opacity=".18"/><rect x="370" y="282" width="8" height="10" rx="2" fill="white" opacity=".18"/><rect x="370" y="306" width="8" height="10" rx="2" fill="white" opacity=".18"/><rect x="370" y="330" width="8" height="10" rx="2" fill="white" opacity=".18"/><rect x="370" y="354" width="8" height="10" rx="2" fill="white" opacity=".18"/><rect x="392" y="258" width="8" height="10" rx="2" fill="white" opacity=".18"/><rect x="392" y="282" width="8" height="10" rx="2" fill="white" opacity=".18"/><rect x="392" y="306" width="8" height="10" rx="2" fill="white" opacity=".18"/><rect x="392" y="330" width="8" height="10" rx="2" fill="white" opacity=".18"/><rect x="392" y="354" width="8" height="10" rx="2" fill="white" opacity=".18"/><rect x="414" y="258" width="8" height="10" rx="2" fill="white" opacity=".18"/><rect x="414" y="282" width="8" height="10" rx="2" fill="white" opacity=".18"/><rect x="414" y="306" width="8" height="10" rx="2" fill="white" opacity=".18"/><rect x="414" y="330" width="8" height="10" rx="2" fill="white" opacity=".18"/><rect x="414" y="354" width="8" height="10" rx="2" fill="white" opacity=".18"/><rect x="570" y="200" width="8" height="10" rx="2" fill="white" opacity=".18"/><rect x="570" y="224" width="8" height="10" rx="2" fill="white" opacity=".18"/><rect x="570" y="248" width="8" height="10" rx="2" fill="white" opacity=".18"/><rect x="570" y="272" width="8" height="10" rx="2" fill="white" opacity=".18"/><rect x="570" y="296" width="8" height="10" rx="2" fill="white" opacity=".18"/><rect x="592" y="200" width="8" height="10" rx="2" fill="white" opacity=".18"/><rect x="592" y="224" width="8" height="10" rx="2" fill="white" opacity=".18"/><rect x="592" y="248" width="8" height="10" rx="2" fill="white" opacity=".18"/><rect x="592" y="272" width="8" height="10" rx="2" fill="white" opacity=".18"/><rect x="592" y="296" width="8" height="10" rx="2" fill="white" opacity=".18"/><rect x="614" y="200" width="8" height="10" rx="2" fill="white" opacity=".18"/><rect x="614" y="224" width="8" height="10" rx="2" fill="white" opacity=".18"/><rect x="614" y="248" width="8" height="10" rx="2" fill="white" opacity=".18"/><rect x="614" y="272" width="8" height="10" rx="2" fill="white" opacity=".18"/><rect x="614" y="296" width="8" height="10" rx="2" fill="white" opacity=".18"/><rect x="761" y="342" width="8" height="10" rx="2" fill="white" opacity=".18"/><rect x="761" y="366" width="8" height="10" rx="2" fill="white" opacity=".18"/><rect x="761" y="390" width="8" height="10" rx="2" fill="white" opacity=".18"/><rect x="761" y="414" width="8" height="10" rx="2" fill="white" opacity=".18"/><rect x="761" y="438" width="8" height="10" rx="2" fill="white" opacity=".18"/><rect x="783" y="342" width="8" height="10" rx="2" fill="white" opacity=".18"/><rect x="783" y="366" width="8" height="10" rx="2" fill="white" opacity=".18"/><rect x="783" y="390" width="8" height="10" rx="2" fill="white" opacity=".18"/><rect x="783" y="414" width="8" height="10" rx="2" fill="white" opacity=".18"/><rect x="783" y="438" width="8" height="10" rx="2" fill="white" opacity=".18"/><rect x="939" y="359" width="8" height="10" rx="2" fill="white" opacity=".18"/><rect x="939" y="383" width="8" height="10" rx="2" fill="white" opacity=".18"/><rect x="939" y="407" width="8" height="10" rx="2" fill="white" opacity=".18"/><rect x="939" y="431" width="8" height="10" rx="2" fill="white" opacity=".18"/><rect x="961" y="359" width="8" height="10" rx="2" fill="white" opacity=".18"/><rect x="961" y="383" width="8" height="10" rx="2" fill="white" opacity=".18"/><rect x="961" y="407" width="8" height="10" rx="2" fill="white" opacity=".18"/><rect x="961" y="431" width="8" height="10" rx="2" fill="white" opacity=".18"/><rect x="983" y="359" width="8" height="10" rx="2" fill="white" opacity=".18"/><rect x="983" y="383" width="8" height="10" rx="2" fill="white" opacity=".18"/><rect x="983" y="407" width="8" height="10" rx="2" fill="white" opacity=".18"/><rect x="983" y="431" width="8" height="10" rx="2" fill="white" opacity=".18"/><rect x="1127" y="276" width="8" height="10" rx="2" fill="white" opacity=".18"/><rect x="1127" y="300" width="8" height="10" rx="2" fill="white" opacity=".18"/><rect x="1127" y="324" width="8" height="10" rx="2" fill="white" opacity=".18"/><rect x="1127" y="348" width="8" height="10" rx="2" fill="white" opacity=".18"/><rect x="1127" y="372" width="8" height="10" rx="2" fill="white" opacity=".18"/><rect x="1149" y="276" width="8" height="10" rx="2" fill="white" opacity=".18"/><rect x="1149" y="300" width="8" height="10" rx="2" fill="white" opacity=".18"/><rect x="1149" y="324" width="8" height="10" rx="2" fill="white" opacity=".18"/><rect x="1149" y="348" width="8" height="10" rx="2" fill="white" opacity=".18"/><rect x="1149" y="372" width="8" height="10" rx="2" fill="white" opacity=".18"/><rect x="1171" y="276" width="8" height="10" rx="2" fill="white" opacity=".18"/><rect x="1171" y="300" width="8" height="10" rx="2" fill="white" opacity=".18"/><rect x="1171" y="324" width="8" height="10" rx="2" fill="white" opacity=".18"/><rect x="1171" y="348" width="8" height="10" rx="2" fill="white" opacity=".18"/><rect x="1171" y="372" width="8" height="10" rx="2" fill="white" opacity=".18"/></g>
  <rect x="0" y="452" width="1200" height="248" fill="#b23a48" opacity=".06"/>
  <text x="60" y="625" font-family="Inter, Arial, sans-serif" font-size="34" font-weight="700" fill="#b23a48" opacity=".20">Washington DC</text>
</svg>